<?xml version="1.0" encoding="UTF-8" standalone="no"?>
<svg xmlns:xlink="http://www.w3.org/1999/xlink" height="600.0px" width="1025.0px" xmlns="http://www.w3.org/2000/svg">
  <g transform="matrix(1.0, 0.0, 0.0, 1.0, -35.6, -96.85)">
    <use height="600.0" transform="matrix(1.0, 0.0, 0.0, 1.0, 35.6, 96.85)" width="1025.0" xlink:href="#shape0"/>
    <use height="600.0" transform="matrix(1.0, 0.0, 0.0, 1.0, 35.6, 96.85)" width="1025.0" xlink:href="#shape1"/>
    <use height="600.0" transform="matrix(1.0, 0.0, 0.0, 1.0, 35.6, 96.85)" width="625.25" xlink:href="#shape2"/>
    <use height="600.0" transform="matrix(1.0, 0.0, 0.0, 1.0, 503.6, 96.85)" width="557.0" xlink:href="#shape3"/>
    <use height="26.75" transform="matrix(1.0, 0.0, 0.0, 1.0, 581.85, 372.6)" width="53.0" xlink:href="#shape4"/>
    <use height="113.75" transform="matrix(1.0, 0.0, 0.0, 1.0, 542.85, 331.85)" width="105.5" xlink:href="#shape5"/>
    <use height="137.25" transform="matrix(1.0, 0.0, 0.0, 1.0, 542.85, 312.85)" width="97.75" xlink:href="#shape6"/>
    <use height="106.75" transform="matrix(1.0, 0.0, 0.0, 1.0, 543.35, 332.6)" width="96.75" xlink:href="#shape7"/>
    <use height="137.0" transform="matrix(1.0, 0.0, 0.0, 1.0, 546.6, 312.85)" width="114.25" xlink:href="#shape8"/>
    <use height="62.0" transform="matrix(1.0, 0.0, 0.0, 1.0, 546.6, 312.6)" width="114.5" xlink:href="#shape9"/>
    <use height="78.25" transform="matrix(1.0, 0.0, 0.0, 1.0, 578.35, 374.35)" width="82.75" xlink:href="#shape10"/>
    <use height="52.25" transform="matrix(1.0, 0.0, 0.0, 1.0, 581.35, 359.85)" width="60.5" xlink:href="#shape11"/>
    <use height="2.5" transform="matrix(1.0, 0.0, 0.0, 1.0, 632.75, 384.85)" width="1.9" xlink:href="#shape12"/>
    <use height="129.25" transform="matrix(1.0, 0.0, 0.0, 1.0, 547.1, 313.1)" width="113.5" xlink:href="#shape13"/>
    <use height="136.5" transform="matrix(1.0, 0.0, 0.0, 1.0, 547.1, 313.1)" width="113.5" xlink:href="#shape14"/>
    <use height="72.25" transform="matrix(1.0, 0.0, 0.0, 1.0, 595.85, 352.6)" width="39.75" xlink:href="#shape15"/>
    <use height="63.25" transform="matrix(1.0, 0.0, 0.0, 1.0, 595.85, 361.1)" width="39.5" xlink:href="#shape16"/>
    <use height="37.25" transform="matrix(1.0, 0.0, 0.0, 1.0, 574.6, 335.85)" width="61.75" xlink:href="#shape17"/>
    <use height="91.5" transform="matrix(1.0, 0.0, 0.0, 1.0, 574.6, 344.35)" width="56.5" xlink:href="#shape18"/>
    <use height="123.75" transform="matrix(1.0, 0.0, 0.0, 1.0, 511.6, 326.35)" width="149.5" xlink:href="#shape19"/>
  </g>
  <defs>
    <g id="shape0" transform="matrix(1.0, 0.0, 0.0, 1.0, -35.6, -96.85)">
      <path d="M35.6 96.85 L35.6 696.85 1060.6 696.85 1060.6 96.85 35.6 96.85" fill="#1a1a1a" fill-rule="evenodd" stroke="none"/>
    </g>
    <g id="shape1" transform="matrix(1.0, 0.0, 0.0, 1.0, -35.6, -96.85)">
      <path d="M35.6 696.85 L35.6 96.85 260.6 96.85 218.1 139.35 218.1 159.35 255.6 196.85 255.6 251.85 315.6 311.85 315.6 401.85 240.6 476.85 240.6 491.85 225.6 506.85 225.6 596.85 325.6 696.85 35.6 696.85 M485.6 96.85 L385.6 96.85 385.6 171.85 410.6 196.85 435.6 196.85 485.6 146.85 485.6 96.85 M415.6 696.85 L415.6 601.85 445.6 571.85 510.6 571.85 635.6 696.85 415.6 696.85 M538.1 421.85 L530.6 429.35 530.6 446.85 538.1 454.35 548.1 454.35 558.1 464.35 600.6 464.35 650.6 514.35 713.1 576.85 713.1 619.35 790.6 696.85 1060.6 696.85 1060.6 96.85 550.6 96.85 550.6 149.35 528.1 171.85 528.1 281.85 523.1 286.85 523.1 301.85 535.6 314.35 535.6 374.35 540.6 379.35 540.6 401.85 538.1 404.35 538.1 421.85" fill="#2e2e2e" fill-rule="evenodd" stroke="none"/>
    </g>
    <g id="shape2" transform="matrix(1.0, 0.0, 0.0, 1.0, -35.6, -96.85)">
      <path d="M425.6 696.85 L618.1 696.85 505.6 584.35 453.1 584.35 425.6 611.85 425.6 696.85 M305.6 696.85 L135.6 696.85 305.6 696.85 213.1 604.35 213.1 504.35 225.6 491.85 225.6 476.85 305.6 396.85 305.6 316.85 243.1 254.35 243.1 206.85 193.1 156.85 193.1 139.35 235.6 96.85 35.6 96.85 35.6 696.85 305.6 696.85 M390.6 96.85 L473.1 96.85 473.1 146.85 430.6 189.35 413.1 189.35 390.6 169.35 390.6 96.85 M646.1 408.6 L660.85 408.6 660.85 360.35 650.85 360.35 650.85 336.1 636.35 335.85 574.6 335.85 574.6 326.6 553.1 326.6 553.1 313.1 546.6 313.1 546.6 327.85 537.85 327.85 537.85 366.1 527.85 366.1 527.85 372.1 542.85 372.1 542.85 382.85 522.6 382.85 522.6 381.6 511.6 381.6 511.6 382.85 501.35 382.85 501.35 389.1 511.6 389.1 511.6 390.35 522.6 390.35 522.6 389.1 542.85 389.1 542.85 404.6 543.85 404.6 542.85 407.6 542.85 434.1 543.35 436.85 544.6 438.85 546.85 440.1 548.85 440.35 558.85 440.35 558.85 443.35 559.1 445.6 559.85 447.6 561.35 449.1 564.1 450.1 577.6 449.85 603.1 449.85 603.1 452.35 609.6 452.35 609.6 449.85 617.6 449.85 617.6 452.35 624.1 452.35 624.1 449.85 632.35 449.85 632.35 452.35 638.85 452.35 638.85 449.85 646.1 449.85 646.1 408.6" fill="#d9d9d9" fill-rule="evenodd" stroke="none"/>
    </g>
    <g id="shape3" transform="matrix(1.0, 0.0, 0.0, 1.0, -503.6, -96.85)">
      <path d="M546.6 312.85 L553.35 312.85 553.35 326.35 574.85 326.35 574.85 335.85 636.35 335.85 650.85 336.1 650.85 360.35 660.85 360.35 660.85 408.6 646.1 408.6 646.1 449.85 638.85 449.85 638.85 452.35 632.35 452.35 632.35 449.85 624.1 449.85 624.1 452.35 617.6 452.35 617.6 449.85 609.6 449.85 609.6 452.35 603.1 452.35 603.1 449.85 591.1 449.85 598.1 456.85 640.6 456.85 740.6 556.85 740.6 626.85 810.6 696.85 1060.6 696.85 1060.6 96.85 560.6 96.85 560.6 149.35 533.1 176.85 533.1 267.6 503.6 267.6 503.6 270.85 533.1 270.85 533.1 294.35 546.6 307.85 546.6 312.85" fill="#d9d9d9" fill-rule="evenodd" stroke="none"/>
    </g>
    <g id="shape4" transform="matrix(1.0, 0.0, 0.0, 1.0, -581.85, -372.6)">
      <path d="M581.85 372.6 L581.85 399.35 634.85 399.35 634.35 387.1 634.35 384.85 634.85 372.6 581.85 372.6" fill="#c0c0c0" fill-rule="evenodd" stroke="none"/>
    </g>
    <g id="shape5" transform="matrix(1.0, 0.0, 0.0, 1.0, -542.85, -331.85)">
      <path d="M558.85 439.85 L549.1 439.85 547.1 439.6 545.1 438.35 543.85 436.6 543.35 433.85 543.35 407.85 543.85 405.35 544.85 403.6 546.6 402.6 549.1 402.1 552.1 402.1 552.1 390.85 554.85 390.85 554.85 390.35 549.85 390.35 549.85 390.85 551.6 390.85 551.6 401.6 548.85 401.6 546.35 402.1 544.6 403.1 543.35 405.1 542.85 407.6 542.85 434.1 543.35 436.85 544.6 438.85 546.85 440.1 548.85 440.35 558.85 440.35 558.85 439.85 M647.85 355.1 L647.85 359.35 648.35 359.35 648.35 355.1 647.85 355.1 M647.85 345.35 L647.85 353.1 648.35 353.1 648.35 345.35 647.85 345.35 M562.35 346.1 L563.6 346.1 563.85 345.1 564.0 343.6 564.0 342.1 563.6 340.6 563.1 339.6 562.35 338.6 561.6 337.85 560.6 337.35 559.6 337.1 559.1 337.1 559.1 335.85 559.6 335.85 560.85 336.1 561.85 336.6 562.85 337.35 563.6 338.1 564.3 339.15 564.85 340.35 565.2 341.85 565.2 343.85 565.1 345.1 564.9 346.45 564.6 347.35 562.35 347.35 562.35 346.1 M547.35 359.35 L547.35 361.35 551.35 361.35 551.35 365.1 553.35 365.1 553.35 359.35 547.35 359.35 M547.35 351.6 L547.35 353.6 553.35 353.6 553.35 347.85 551.35 347.85 551.35 351.6 547.35 351.6 M558.85 416.85 L558.85 418.85 560.35 418.85 560.35 416.85 558.85 416.85 M568.1 434.35 L574.6 434.35 574.6 435.85 568.1 435.85 568.1 434.35 M568.1 422.6 L574.6 422.6 574.6 424.1 568.1 424.1 568.1 422.6 M568.1 410.85 L574.6 410.85 574.6 412.35 568.1 412.35 568.1 410.85 M568.1 399.1 L568.1 400.6 574.6 400.6 574.6 399.1 568.1 399.1 M613.85 435.85 L617.6 435.85 617.6 439.35 613.85 439.35 613.85 435.85 M627.35 440.85 L627.35 444.85 632.35 444.85 632.35 440.85 627.35 440.85 M613.85 442.6 L613.85 445.35 617.6 445.35 617.6 442.6 613.85 442.6 M601.85 442.6 L609.6 442.6 609.6 445.35 601.85 445.35 601.85 442.6 M593.35 442.6 L593.35 445.35 597.35 445.35 597.35 442.6 593.35 442.6 M586.1 437.85 L586.1 439.85 587.6 439.85 587.6 437.85 586.1 437.85 M574.1 439.85 L574.1 445.6 575.6 445.6 575.6 439.85 574.1 439.85 M563.35 420.6 L563.35 428.6 564.85 428.6 564.85 420.6 563.35 420.6 M564.85 406.35 L564.85 414.35 563.35 414.35 563.35 406.35 564.85 406.35 M573.6 389.6 L573.6 392.1 568.1 392.1 568.1 393.6 575.1 393.6 575.1 389.6 573.6 389.6 M568.1 378.6 L575.1 378.6 575.1 382.6 573.6 382.6 573.6 380.1 568.1 380.1 568.1 378.6 M570.85 352.1 L571.35 351.6 571.35 345.6 570.85 340.1 569.1 332.35 568.6 331.85 567.85 332.35 569.6 340.35 570.1 345.85 570.1 351.6 570.85 352.1 M552.7 335.95 L552.6 336.05 553.55 336.25 554.4 336.8 554.95 337.6 555.15 338.55 554.95 339.5 554.4 340.35 553.6 340.85 552.6 341.0 551.65 340.85 550.85 340.3 550.3 339.45 550.15 338.5 550.35 337.5 550.9 336.7 551.65 336.15 552.7 335.95 M613.85 378.6 L613.85 379.85 619.85 379.85 619.85 372.85 618.6 372.85 618.6 378.6 613.85 378.6 M613.85 392.1 L619.85 392.1 619.85 399.1 618.6 399.1 618.6 393.35 613.85 393.35 613.85 392.1 M603.1 392.1 L603.1 399.1 604.35 399.1 604.35 393.35 609.1 393.35 609.1 392.1 603.1 392.1 M603.1 379.85 L609.1 379.85 609.1 378.6 604.35 378.6 604.35 372.85 603.1 372.85 603.1 379.85 M581.6 389.6 L581.6 399.1 585.85 399.1 585.85 397.6 583.1 397.6 583.1 390.85 585.85 390.85 585.85 389.6 581.6 389.6 M581.6 372.85 L581.6 382.35 585.85 382.35 585.85 381.1 583.1 381.1 583.1 374.35 585.85 374.35 585.85 372.85 581.6 372.85 M590.35 393.35 L598.1 393.35 598.1 394.6 590.35 394.6 590.35 393.35 M590.35 377.35 L590.35 378.6 598.1 378.6 598.1 377.35 590.35 377.35 M596.85 382.35 L596.85 389.85 597.6 389.85 599.1 386.6 599.1 385.6 597.6 382.35 596.85 382.35 M594.1 382.35 L594.1 383.1 592.85 383.1 592.85 389.1 594.1 389.1 594.1 389.85 592.35 389.85 592.1 389.1 592.1 383.1 592.35 382.35 594.1 382.35 M624.35 383.1 L623.1 383.1 623.1 388.85 624.35 388.85 624.35 389.6 622.35 389.6 622.35 382.35 624.35 382.35 624.35 383.1" fill="#929292" fill-rule="evenodd" stroke="none"/>
    </g>
    <g id="shape6" transform="matrix(1.0, 0.0, 0.0, 1.0, -542.85, -312.85)">
      <path d="M631.1 399.1 L631.1 395.6 626.6 395.6 626.6 396.1 630.6 396.1 630.6 399.1 631.1 399.1 M630.6 391.35 L626.6 391.35 626.6 391.85 631.1 391.85 631.1 388.85 634.35 388.85 634.35 388.35 630.6 388.35 630.6 391.35 M626.6 380.35 L626.6 380.85 630.6 380.85 630.6 383.6 634.35 383.6 634.35 383.1 631.1 383.1 631.1 380.35 626.6 380.35 M631.1 372.85 L631.1 376.1 626.6 376.1 626.6 375.6 630.6 375.6 630.6 372.85 631.1 372.85 M636.1 361.35 L636.1 373.1 637.1 373.1 637.1 361.85 640.1 361.85 640.1 371.35 640.6 371.35 640.6 361.35 636.1 361.35 M547.1 312.85 L546.6 312.85 546.6 327.85 542.85 327.85 542.85 328.35 546.6 328.35 546.6 339.85 547.1 342.35 548.35 344.1 550.35 345.35 552.6 345.85 558.85 345.85 558.85 353.35 555.35 353.35 555.35 353.85 559.35 353.85 559.35 345.35 552.85 345.35 550.6 344.85 548.6 343.6 547.6 342.1 547.1 339.85 547.1 312.85 M600.35 439.35 L608.1 439.35 608.1 436.35 600.35 436.35 600.35 435.6 608.6 435.6 608.6 439.85 600.35 439.85 600.35 439.35 M562.85 381.85 L562.85 373.6 559.35 373.6 559.35 358.85 555.35 358.85 555.35 359.35 558.85 359.35 558.85 374.1 562.35 374.1 562.35 381.35 558.85 381.35 558.85 381.85 562.85 381.85 M554.6 414.85 L554.6 412.1 554.85 409.85 555.85 408.1 557.35 407.1 559.1 406.35 559.6 406.35 559.6 398.6 562.85 398.6 562.85 390.35 558.85 390.35 558.85 390.85 562.35 390.85 562.35 398.1 559.1 398.1 559.1 405.85 557.1 406.6 555.35 407.85 554.35 409.85 554.1 411.85 554.1 414.35 550.35 414.35 550.35 414.85 554.6 414.85 M578.6 449.6 L564.35 449.6 561.6 448.6 560.35 447.35 559.6 445.35 559.35 443.1 559.35 428.1 558.85 428.1 557.35 427.6 555.85 426.35 555.1 424.85 554.6 423.1 554.6 420.1 550.35 420.1 550.35 420.6 554.1 420.6 554.1 423.35 554.6 425.1 555.35 426.6 557.1 428.1 558.85 428.6 558.85 443.35 559.1 445.6 559.85 447.6 561.35 449.1 564.1 450.1 578.6 450.1 578.6 449.6 M548.85 370.35 L551.6 370.35 551.6 381.35 549.85 381.35 549.85 381.85 554.85 381.85 554.85 381.35 552.1 381.35 552.1 369.85 549.1 369.85 546.85 369.6 544.85 368.35 543.6 366.35 543.35 364.1 543.35 332.6 542.85 332.6 542.85 364.35 543.1 366.6 544.6 368.85 546.6 370.1 548.85 370.35" fill="#929292" fill-rule="evenodd" stroke="none"/>
    </g>
    <g id="shape7" transform="matrix(1.0, 0.0, 0.0, 1.0, -543.35, -332.6)">
      <path d="M631.1 391.85 L626.6 391.85 626.6 395.6 631.1 395.6 631.1 391.85 M634.35 388.85 L634.35 390.1 631.1 390.1 631.1 388.85 634.35 388.85 M631.1 381.85 L631.1 383.1 634.35 383.1 634.35 381.85 631.1 381.85 M631.1 376.1 L631.1 380.35 626.6 380.35 626.6 376.1 631.1 376.1 M550.35 414.85 L550.35 420.1 554.6 420.1 554.6 414.85 550.35 414.85 M558.85 381.85 L558.85 390.35 562.85 390.35 562.85 381.85 558.85 381.85 M555.35 353.85 L555.35 358.85 559.35 358.85 559.35 353.85 555.35 353.85 M549.85 381.85 L549.85 390.35 554.85 390.35 554.85 381.85 549.85 381.85 M543.35 332.6 L543.35 338.85 546.6 338.85 546.6 332.6 543.35 332.6 M608.1 436.35 L608.1 439.35 600.35 439.35 600.35 436.35 608.1 436.35 M637.1 361.85 L637.1 371.35 640.1 371.35 640.1 361.85 637.1 361.85" fill="#f0f0f0" fill-rule="evenodd" stroke="none"/>
    </g>
    <g id="shape8" transform="matrix(1.0, 0.0, 0.0, 1.0, -546.6, -312.85)">
      <path d="M636.35 398.85 L636.35 435.85 574.6 435.85 574.6 398.85 636.35 398.85 M574.6 335.85 L574.6 373.1 636.35 373.1 636.35 335.85 574.6 335.85 M571.35 351.6 L571.35 361.1 567.85 361.1 567.85 351.6 571.35 351.6 M569.1 326.35 L553.35 326.35 553.35 312.85 546.6 312.85 546.6 332.35 569.1 332.35 569.1 326.35 M660.85 363.6 L660.85 371.85 650.35 371.85 650.35 363.6 660.85 363.6 M660.85 383.35 L660.85 408.6 649.85 408.6 649.85 400.6 653.35 400.6 653.35 383.35 660.85 383.35 M578.6 441.85 L578.6 449.85 589.1 449.85 589.1 441.85 578.6 441.85" fill="#8d8d8d" fill-rule="evenodd" stroke="none"/>
    </g>
    <g id="shape9" transform="matrix(1.0, 0.0, 0.0, 1.0, -546.6, -312.6)">
      <path d="M574.6 336.1 L575.1 336.1 575.1 326.1 553.6 326.1 553.6 312.6 546.6 312.6 546.6 313.1 553.1 313.1 553.1 326.6 574.6 326.6 574.6 336.1 M636.1 336.35 L650.6 336.35 650.6 360.6 660.6 360.6 660.6 374.6 661.1 374.6 661.1 360.1 651.1 360.1 651.1 335.85 636.1 335.85 636.1 336.35" fill="#8d8d8d" fill-rule="evenodd" stroke="none"/>
    </g>
    <g id="shape10" transform="matrix(1.0, 0.0, 0.0, 1.0, -578.35, -374.35)">
      <path d="M579.1 388.35 L578.6 388.35 578.6 388.85 579.1 388.85 579.1 388.35 M579.1 387.1 L579.1 387.6 578.6 387.6 578.6 387.1 579.1 387.1 M578.6 384.35 L578.6 384.85 579.1 384.85 579.1 384.35 578.6 384.35 M578.6 383.1 L578.6 383.6 579.1 383.6 579.1 383.1 578.6 383.1 M578.35 449.6 L578.35 450.1 602.85 450.1 602.85 452.6 609.85 452.6 609.85 450.1 617.35 450.1 617.35 452.6 624.35 452.6 624.35 450.1 632.1 450.1 632.1 452.6 639.1 452.6 639.1 450.1 646.35 450.1 646.35 408.85 661.1 408.85 661.1 374.35 660.6 374.35 660.6 408.35 645.85 408.35 645.85 411.1 644.35 411.1 644.35 412.1 645.85 412.1 645.85 449.6 638.6 449.6 638.6 452.1 632.6 452.1 632.6 449.6 623.85 449.6 623.85 452.1 617.85 452.1 617.85 449.6 609.35 449.6 609.35 452.1 603.35 452.1 603.35 449.6 578.35 449.6" fill="#8d8d8d" fill-rule="evenodd" stroke="none"/>
    </g>
    <g id="shape11" transform="matrix(1.0, 0.0, 0.0, 1.0, -581.35, -359.85)">
      <path d="M614.2 376.4 L614.2 373.5 613.1 373.5 613.1 376.4 614.2 376.4 M617.3 373.85 L617.3 376.75 618.4 376.75 618.4 373.85 617.3 373.85 M616.85 395.6 L616.85 398.5 617.95 398.5 617.95 395.6 616.85 395.6 M613.25 398.6 L613.25 395.7 612.15 395.7 612.15 398.6 613.25 398.6 M636.1 360.85 L636.1 359.85 641.85 359.85 641.85 360.85 636.1 360.85 M638.1 411.1 L638.1 412.1 636.1 412.1 636.1 411.1 638.1 411.1 M581.85 388.85 L581.85 398.85 581.35 398.85 581.35 388.85 581.85 388.85 M581.35 373.1 L581.85 373.1 581.85 383.1 581.35 383.1 581.35 373.1 M597.1 382.35 L596.6 382.35 596.6 389.85 597.1 389.85 597.1 382.35 M627.85 383.35 L627.85 388.6 627.35 388.6 627.35 383.35 627.85 383.35 M634.85 372.85 L634.85 399.1 634.35 399.1 634.35 372.85 634.85 372.85" fill="#8d8d8d" fill-rule="evenodd" stroke="none"/>
    </g>
    <g id="shape12" transform="matrix(1.0, 0.0, 0.0, 1.0, -632.75, -384.85)">
      <path d="M632.75 384.85 L632.75 387.35 634.65 387.35 634.65 384.85 632.75 384.85" fill="#343434" fill-rule="evenodd" stroke="none"/>
    </g>
    <g id="shape13" transform="matrix(1.0, 0.0, 0.0, 1.0, -547.1, -313.1)">
      <path d="M652.85 395.35 L652.85 398.85 653.85 398.85 653.85 395.35 652.85 395.35 M649.35 401.1 L649.35 408.35 650.35 408.35 650.35 401.1 649.35 401.1 M653.85 382.85 L660.6 382.85 660.6 383.85 653.85 383.85 653.85 382.85 M653.85 394.85 L653.85 393.35 652.85 393.35 652.85 394.85 653.85 394.85 M653.85 387.35 L652.85 387.35 652.85 389.35 653.85 389.35 653.85 387.35 M568.85 351.35 L570.1 351.35 570.1 361.35 568.85 361.35 568.85 351.35 M558.35 332.85 L547.1 332.85 547.1 313.1 553.1 313.1 553.1 326.6 558.35 326.6 558.35 332.85 M628.85 436.35 L626.35 436.35 626.35 434.85 628.85 434.85 628.85 436.35 M636.85 350.6 L636.85 353.35 635.35 353.35 635.35 350.6 636.85 350.6 M574.1 416.85 L575.6 416.85 575.6 413.1 574.1 413.1 574.1 416.85 M636.85 413.6 L636.85 417.1 635.35 417.1 635.35 413.6 636.85 413.6 M583.1 441.35 L584.6 441.35 584.6 442.35 583.1 442.35 583.1 441.35 M656.1 363.1 L656.1 364.1 654.6 364.1 654.6 363.1 656.1 363.1 M635.35 384.85 L635.35 387.1 634.35 387.1 634.35 384.85 635.35 384.85 M580.85 383.1 L580.85 389.1 581.85 389.1 581.85 383.1 580.85 383.1 M569.6 328.35 L569.6 330.6 568.6 330.6 568.6 328.35 569.6 328.35 M565.1 331.85 L563.85 331.85 563.85 332.85 565.1 332.85 565.1 331.85" fill="#d9d9d9" fill-rule="evenodd" stroke="none"/>
    </g>
    <g id="shape14" transform="matrix(1.0, 0.0, 0.0, 1.0, -547.1, -313.1)">
      <path d="M568.85 351.6 L568.85 361.1 570.1 361.1 570.1 351.6 568.85 351.6 M547.1 313.1 L547.1 331.85 558.35 331.85 558.35 326.6 553.35 326.6 553.1 313.1 547.1 313.1 M653.85 383.35 L653.85 401.1 649.85 401.1 649.85 408.35 660.6 408.35 660.6 383.35 653.85 383.35 M634.6 398.85 L636.35 398.85 635.35 413.6 635.35 417.1 636.35 435.85 628.85 434.85 626.35 434.85 574.6 435.85 575.6 416.85 575.6 413.1 574.6 398.85 634.6 398.85 M568.6 331.85 L558.85 331.85 558.85 326.6 568.6 326.6 568.6 331.85 M660.6 364.1 L660.6 371.35 650.85 371.35 650.85 364.1 660.6 364.1 M579.1 442.35 L579.1 449.6 588.6 449.6 588.6 442.35 579.1 442.35 M634.6 373.1 L574.6 373.1 574.6 335.85 636.35 335.85 635.35 350.6 635.35 353.35 636.35 373.1 634.6 373.1" fill="#c0c0c0" fill-rule="evenodd" stroke="none"/>
    </g>
    <g id="shape15" transform="matrix(1.0, 0.0, 0.0, 1.0, -595.85, -352.6)">
      <path d="M607.85 364.85 L607.85 365.35 598.35 365.35 598.35 364.85 607.85 364.85 M629.85 418.1 L629.85 424.85 624.85 424.85 624.85 424.35 629.35 424.35 629.35 418.1 629.85 418.1 M629.35 408.85 L635.6 408.85 635.6 408.35 629.85 408.35 629.85 402.85 629.35 402.85 629.35 408.85 M595.85 404.6 L595.85 405.1 603.1 405.1 603.1 404.6 595.85 404.6 M595.85 400.6 L595.85 400.1 603.1 400.1 603.1 400.6 595.85 400.6 M629.6 363.1 L635.6 363.1 635.6 363.6 630.1 363.6 630.1 369.35 629.6 369.35 629.6 363.1 M625.35 363.1 L625.35 372.35 624.85 372.35 624.85 363.1 625.35 363.1 M607.6 352.6 L607.6 356.35 599.85 356.35 599.85 352.6 607.6 352.6 M619.6 352.6 L619.6 356.35 611.85 356.35 611.85 352.6 619.6 352.6 M631.6 352.6 L631.6 356.35 623.85 356.35 623.85 352.6 631.6 352.6" fill="#929292" fill-rule="evenodd" stroke="none"/>
    </g>
    <g id="shape16" transform="matrix(1.0, 0.0, 0.0, 1.0, -595.85, -361.1)">
      <path d="M635.35 404.35 L635.35 408.35 629.85 408.35 629.85 404.35 635.35 404.35 M635.35 363.6 L635.35 367.6 630.1 367.6 630.1 363.6 635.35 363.6 M607.85 361.1 L607.85 364.85 598.6 364.85 598.6 361.1 607.85 361.1 M629.35 418.1 L629.35 424.35 625.1 424.35 625.1 418.1 629.35 418.1 M595.85 400.6 L595.85 404.6 602.85 404.6 602.85 400.6 595.85 400.6 M625.1 404.35 L625.1 408.85 629.35 408.85 629.35 404.35 625.1 404.35 M625.35 363.1 L625.35 367.6 629.6 367.6 629.6 363.1 625.35 363.1" fill="#f0f0f0" fill-rule="evenodd" stroke="none"/>
    </g>
    <g id="shape17" transform="matrix(1.0, 0.0, 0.0, 1.0, -574.6, -335.85)">
      <path d="M574.6 335.85 L636.35 335.85 636.35 350.6 635.35 350.6 635.35 348.85 624.1 348.85 624.1 348.35 635.35 348.35 635.35 336.85 613.6 336.85 613.6 342.1 613.1 342.1 613.1 336.85 592.6 336.85 592.6 348.35 604.85 348.35 604.85 348.85 592.6 348.85 592.6 350.6 592.1 350.6 592.1 348.85 589.6 348.85 589.6 348.35 592.1 348.35 592.1 336.85 586.6 336.85 586.6 348.35 587.6 348.35 587.6 348.85 586.1 348.85 586.1 342.85 582.35 342.85 582.35 342.35 586.1 342.35 586.1 336.85 575.6 336.85 575.6 342.35 580.35 342.35 580.35 342.85 575.6 342.85 575.6 372.1 592.1 372.1 592.1 369.6 592.6 369.6 592.6 372.1 594.1 372.1 594.1 373.1 574.6 373.1 574.6 335.85" fill="#8d8d8d" fill-rule="evenodd" stroke="none"/>
    </g>
    <g id="shape18" transform="matrix(1.0, 0.0, 0.0, 1.0, -574.6, -344.35)">
      <path d="M631.1 399.85 L629.85 399.85 629.85 401.6 629.35 401.6 629.35 399.85 625.1 399.85 625.1 409.85 624.6 409.85 624.6 399.85 619.35 399.85 619.35 404.85 618.85 404.85 618.85 399.85 603.35 399.85 603.35 407.85 602.85 407.85 602.85 399.85 590.1 399.85 590.1 398.85 631.1 398.85 631.1 399.85 M602.85 409.1 L602.85 411.35 591.85 411.35 591.85 411.85 602.85 411.85 602.85 415.85 603.35 415.85 603.35 409.1 602.85 409.1 M574.6 416.85 L575.6 416.85 575.6 434.85 593.1 434.85 593.1 433.1 593.6 433.1 593.6 434.85 602.85 434.85 602.85 433.35 603.35 433.35 603.35 434.85 612.85 434.85 612.85 429.85 610.85 429.85 610.85 429.35 612.85 429.35 612.85 423.6 608.35 423.6 608.35 429.35 609.6 429.35 609.6 429.85 606.6 429.85 606.6 429.35 607.85 429.35 607.85 423.6 603.35 423.6 603.35 429.35 605.35 429.35 605.35 429.85 603.35 429.85 603.35 432.1 602.85 432.1 602.85 428.1 593.6 428.1 593.6 430.1 593.1 430.1 593.1 423.6 602.85 423.6 602.85 419.1 603.35 419.1 603.35 423.1 615.1 423.1 615.1 423.6 613.35 423.6 613.35 434.85 624.6 434.85 624.6 430.85 625.1 430.85 625.1 434.85 626.35 434.85 626.35 435.85 574.6 435.85 574.6 416.85 M598.6 367.6 L598.1 367.6 598.1 360.6 613.6 360.6 613.6 361.1 598.6 361.1 598.6 367.6 M631.1 373.1 L597.1 373.1 597.1 372.1 598.1 372.1 598.1 369.6 598.6 369.6 598.6 372.1 619.1 372.1 619.1 361.1 615.85 361.1 615.85 360.6 619.6 360.6 619.6 372.1 629.6 372.1 629.6 370.6 630.1 370.6 630.1 372.1 631.1 372.1 631.1 373.1 M592.6 350.35 L592.6 367.6 592.1 367.6 592.1 359.6 575.35 359.6 575.35 359.1 592.1 359.1 592.1 350.35 592.6 350.35 M613.6 344.35 L613.6 348.35 624.35 348.35 624.35 348.85 604.6 348.85 604.6 348.35 613.1 348.35 613.1 344.35 613.6 344.35" fill="#8d8d8d" fill-rule="evenodd" stroke="none"/>
    </g>
    <g id="shape19" transform="matrix(1.0, 0.0, 0.0, 1.0, -511.6, -326.35)">
      <path d="M553.1 331.85 L553.1 332.35 552.6 332.35 552.6 331.85 553.1 331.85 M511.6 381.6 L522.6 381.6 522.6 390.35 511.6 390.35 511.6 381.6 M634.35 372.1 L635.35 372.1 635.35 353.35 636.35 353.35 636.35 373.1 634.35 373.1 634.35 372.1 M568.6 328.35 L569.1 328.35 569.1 326.35 568.6 326.35 568.6 328.35 M568.6 330.6 L569.1 330.6 569.1 332.35 565.1 332.35 565.1 331.85 568.6 331.85 568.6 330.6 M563.85 332.35 L563.85 331.85 558.85 331.85 558.85 326.35 558.35 326.35 558.35 332.35 563.85 332.35 M583.1 441.85 L583.1 442.35 579.1 442.35 579.1 449.6 588.6 449.6 588.6 442.35 584.6 442.35 584.6 441.85 589.1 441.85 589.1 450.1 578.6 450.1 578.6 441.85 583.1 441.85 M661.1 363.6 L661.1 371.85 650.35 371.85 650.35 363.6 654.6 363.6 654.6 364.1 650.85 364.1 650.85 371.35 660.6 371.35 660.6 364.1 656.1 364.1 656.1 363.6 661.1 363.6 M574.6 398.85 L587.1 398.85 587.1 399.85 575.6 399.85 575.6 413.1 574.6 413.1 574.6 398.85 M635.35 417.1 L635.35 434.85 628.85 434.85 628.85 435.85 636.35 435.85 636.35 417.1 635.35 417.1 M634.35 398.85 L636.35 398.85 636.35 413.6 635.35 413.6 635.35 399.85 634.35 399.85 634.35 398.85 M625.1 411.1 L625.1 428.85 624.6 428.85 624.6 423.6 623.6 423.6 623.6 423.1 624.6 423.1 624.6 415.85 619.35 415.85 619.35 423.1 621.6 423.1 621.6 423.6 617.1 423.6 617.1 423.1 618.85 423.1 618.85 406.85 619.35 406.85 619.35 415.35 624.6 415.35 624.6 411.1 625.1 411.1" fill="#8d8d8d" fill-rule="evenodd" stroke="none"/>
    </g>
  </defs>
</svg>
