<?xml version="1.0" encoding="UTF-8" standalone="no"?>
<svg xmlns:xlink="http://www.w3.org/1999/xlink" height="2150.5px" width="3575.0px" xmlns="http://www.w3.org/2000/svg">
  <g transform="matrix(1.0, 0.0, 0.0, 1.0, -110.85, -185.65)">
    <use height="5.0" transform="matrix(1.0, 0.0, 0.0, 1.0, 2103.6, 1395.9)" width="64.5" xlink:href="#shape0"/>
    <use height="2150.25" transform="matrix(1.0, 0.0, 0.0, 1.0, 110.85, 185.65)" width="3575.0" xlink:href="#shape1"/>
    <use height="11.5" transform="matrix(1.0, 0.0, 0.0, 1.0, 2225.85, 1362.4)" width="9.5" xlink:href="#shape2"/>
    <use height="157.25" transform="matrix(1.0, 0.0, 0.0, 1.0, 2112.1, 1289.65)" width="107.5" xlink:href="#shape3"/>
    <use height="115.65" transform="matrix(1.0, 0.0, 0.0, 1.0, 2097.75, 1288.25)" width="116.35" xlink:href="#shape4"/>
    <use height="10.0" transform="matrix(1.0, 0.0, 0.0, 1.0, 2103.1, 1393.4)" width="65.5" xlink:href="#shape5"/>
    <use height="124.0" transform="matrix(1.0, 0.0, 0.0, 1.0, 2132.1, 1325.9)" width="128.0" xlink:href="#shape6"/>
    <use height="46.75" transform="matrix(1.0, 0.0, 0.0, 1.0, 2136.6, 1286.9)" width="36.5" xlink:href="#shape7"/>
    <use height="167.0" transform="matrix(1.0, 0.0, 0.0, 1.0, 2106.85, 1294.65)" width="159.0" xlink:href="#shape8"/>
    <use height="91.0" transform="matrix(1.0, 0.0, 0.0, 1.0, 2141.35, 1294.65)" width="147.75" xlink:href="#shape9"/>
    <use height="224.25" transform="matrix(1.0, 0.0, 0.0, 1.0, 110.85, 1311.15)" width="3575.0" xlink:href="#shape10"/>
    <use height="56.0" transform="matrix(1.0, 0.0, 0.0, 1.0, 2197.1, 1331.65)" width="118.0" xlink:href="#shape11"/>
    <use height="1023.0" transform="matrix(1.0, 0.0, 0.0, 1.0, 110.85, 1313.15)" width="3575.0" xlink:href="#shape12"/>
    <use height="1223.25" transform="matrix(1.0, 0.0, 0.0, 1.0, 110.85, 185.65)" width="3575.0" xlink:href="#shape13"/>
    <use height="159.5" transform="matrix(1.0, 0.0, 0.0, 1.0, 2112.1, 1287.4)" width="104.5" xlink:href="#shape14"/>
    <use height="4.0" transform="matrix(1.0, 0.0, 0.0, 1.0, 2148.1, 1299.5)" width="13.0" xlink:href="#shape15"/>
    <use height="166.5" transform="matrix(1.0, 0.0, 0.0, 1.0, 2097.6, 1280.4)" width="218.0" xlink:href="#shape16"/>
    <use height="30.95" transform="matrix(1.0, 0.0, 0.0, 1.0, 2148.6, 1300.0)" width="12.0" xlink:href="#shape17"/>
    <use height="262.75" transform="matrix(1.0, 0.0, 0.0, 1.0, 2096.6, 1272.65)" width="218.5" xlink:href="#shape18"/>
    <use height="2.6" transform="matrix(1.0, 0.0, 0.0, 1.0, 2155.65, 1326.9)" width="2.55" xlink:href="#shape19"/>
    <use height="33.5" transform="matrix(1.0, 0.0, 0.0, 1.0, 2107.35, 1446.4)" width="47.25" xlink:href="#shape20"/>
    <use height="19.75" transform="matrix(1.0, 0.0, 0.0, 1.0, 2129.85, 1284.95)" width="14.1" xlink:href="#shape21"/>
    <use height="115.75" transform="matrix(1.0, 0.0, 0.0, 1.0, 2124.35, 1376.9)" width="108.5" xlink:href="#shape22"/>
    <use height="223.25" transform="matrix(1.0, 0.0, 0.0, 1.0, 2112.85, 1311.65)" width="198.5" xlink:href="#shape23"/>
    <use height="162.25" transform="matrix(1.0, 0.0, 0.0, 1.0, 2101.6, 1368.65)" width="131.25" xlink:href="#shape24"/>
    <use height="70.0" transform="matrix(1.0, 0.0, 0.0, 1.0, 2118.1, 1446.4)" width="48.75" xlink:href="#shape25"/>
    <use height="53.0" transform="matrix(1.0, 0.0, 0.0, 1.0, 2113.35, 1483.15)" width="51.75" xlink:href="#shape26"/>
    <use height="74.5" transform="matrix(1.0, 0.0, 0.0, 1.0, 2106.1, 1446.4)" width="53.0" xlink:href="#shape27"/>
    <use height="155.5" transform="matrix(1.0, 0.0, 0.0, 1.0, 2114.6, 1348.4)" width="190.0" xlink:href="#shape28"/>
    <use height="46.5" transform="matrix(1.0, 0.0, 0.0, 1.0, 2261.1, 1331.65)" width="54.0" xlink:href="#shape29"/>
    <use height="6.05" transform="matrix(1.0, 0.0, 0.0, 1.0, 2153.95, 1325.2)" width="6.05" xlink:href="#shape30"/>
  </g>
  <defs>
    <g id="shape0" transform="matrix(1.0, 0.0, 0.0, 1.0, -2103.6, -1395.9)">
      <path d="M2168.1 1395.9 L2168.1 1400.65 2153.6 1400.65 2153.6 1395.9 2168.1 1395.9 M2103.6 1395.9 L2103.6 1400.9 2118.1 1400.9 2118.1 1395.9 2103.6 1395.9" fill="#1a1a1a" fill-rule="evenodd" stroke="none"/>
    </g>
    <g id="shape1" transform="matrix(1.0, 0.0, 0.0, 1.0, -110.85, -185.65)">
      <path d="M110.85 2335.9 L110.85 1426.65 110.85 185.65 1898.35 185.75 3685.85 185.9 3685.85 2335.65 1898.35 2335.75 110.85 2335.9" fill="#d9d9d9" fill-rule="evenodd" stroke="none"/>
    </g>
    <g id="shape2" transform="matrix(1.0, 0.0, 0.0, 1.0, -2225.85, -1362.4)">
      <path d="M2225.85 1362.4 L2225.85 1373.9 2235.35 1373.9 2235.35 1362.4 2225.85 1362.4" fill="#d9d9d9" fill-rule="evenodd" stroke="none"/>
    </g>
    <g id="shape3" transform="matrix(1.0, 0.0, 0.0, 1.0, -2112.1, -1289.65)">
      <path d="M2179.85 1427.4 L2179.85 1431.15 2219.6 1431.15 2219.6 1427.4 2179.85 1427.4 M2148.6 1295.4 L2148.6 1289.65 2137.6 1289.65 2137.6 1314.15 2152.6 1314.15 2152.6 1308.4 2143.85 1308.4 2143.85 1295.4 2148.6 1295.4 M2161.1 1295.4 L2165.85 1295.4 2165.85 1308.4 2164.35 1308.9 2163.35 1308.9 2161.35 1308.4 2157.1 1308.4 2157.1 1313.9 2172.1 1313.9 2171.6 1310.4 2171.6 1309.15 2172.1 1289.65 2161.1 1289.65 2161.1 1295.4 M2112.1 1436.4 L2112.1 1446.9 2118.85 1446.9 2118.85 1436.4 2117.6 1436.9 2116.6 1436.9 2112.1 1436.4 M2154.1 1426.65 L2153.6 1431.15 2153.6 1432.4 2154.1 1433.4 2144.1 1433.4 2144.6 1428.9 2144.6 1427.9 2144.1 1426.65 2148.85 1427.15 2150.1 1427.15 2154.1 1426.65 M2131.85 1426.65 L2131.85 1430.65 2136.6 1430.15 2138.1 1430.15 2139.6 1430.65 2139.6 1426.65 2139.1 1427.15 2138.1 1427.15 2131.85 1426.65" fill="#c0c0c0" fill-rule="evenodd" stroke="none"/>
    </g>
    <g id="shape4" transform="matrix(1.0, 0.0, 0.0, 1.0, -2097.75, -1288.25)">
      <path d="M2212.6 1394.65 L2211.1 1395.4 2211.1 1397.15 2212.6 1397.9 2214.1 1397.15 2214.1 1395.4 2212.6 1394.65 M2098.65 1288.25 L2097.75 1289.65 2098.65 1291.1 2100.25 1291.1 2101.05 1289.65 2100.25 1288.25 2098.65 1288.25 M2150.85 1293.15 L2150.85 1294.15 2151.35 1294.65 2158.35 1294.65 2159.1 1293.9 2159.1 1293.15 2158.1 1293.15 2158.1 1293.65 2151.85 1293.65 2151.85 1293.15 2150.85 1293.15 M2172.1 1393.9 L2172.15 1393.9 2173.05 1393.95 2174.05 1394.25 2175.05 1394.8 2175.9 1395.7 2176.6 1396.75 2177.1 1397.9 2177.1 1399.65 2176.7 1401.05 2175.95 1402.2 2175.05 1403.0 2174.05 1403.5 2173.1 1403.8 2172.1 1403.9 2172.1 1393.9 M2150.85 1290.15 L2159.1 1290.15 2159.1 1291.9 2158.1 1291.9 2158.1 1291.15 2151.85 1291.15 2151.85 1291.9 2150.85 1291.9 2150.85 1290.15 M2148.1 1299.45 L2161.1 1299.45 2161.1 1303.45 2148.1 1303.45 2148.1 1299.45 M2154.1 1326.9 L2154.1 1329.4 2155.85 1331.15 2158.1 1331.15 2159.85 1329.4 2159.85 1326.9 2158.1 1325.15 2155.85 1325.15 2154.1 1326.9" fill="#929292" fill-rule="evenodd" stroke="none"/>
    </g>
    <g id="shape5" transform="matrix(1.0, 0.0, 0.0, 1.0, -2103.1, -1393.4)">
      <path d="M2153.6 1393.4 L2168.6 1393.4 2168.6 1403.15 2153.1 1403.15 2153.1 1393.4 2153.6 1393.4 2153.6 1402.65 2168.1 1402.65 2168.1 1393.9 2153.6 1393.9 2153.6 1393.4 M2103.6 1393.4 L2103.6 1393.9 2118.1 1393.9 2118.1 1402.9 2103.6 1402.9 2103.6 1393.4 2103.1 1393.4 2103.1 1403.4 2118.6 1403.4 2118.6 1393.4 2103.6 1393.4" fill="#8d8d8d" fill-rule="evenodd" stroke="none"/>
    </g>
    <g id="shape6" transform="matrix(1.0, 0.0, 0.0, 1.0, -2132.1, -1325.9)">
      <path d="M2260.1 1342.65 L2250.35 1342.65 2250.35 1340.15 2260.1 1340.15 2260.1 1342.65 M2139.1 1446.4 L2139.1 1449.9 2132.1 1449.9 2132.1 1446.4 2139.1 1446.4 M2226.35 1347.9 L2226.35 1351.65 2221.6 1351.65 2221.6 1347.9 2226.35 1347.9 M2240.35 1327.4 L2239.85 1327.9 2241.35 1329.4 2236.1 1334.65 2233.1 1331.65 2238.85 1325.9 2240.35 1327.4 M2243.6 1362.4 L2243.6 1365.9 2246.35 1365.9 2246.35 1362.4 2243.6 1362.4 M2235.85 1352.65 L2240.6 1352.65 2240.6 1357.15 2235.85 1357.15 2235.85 1352.65" fill="#f0f0f0" fill-rule="evenodd" stroke="none"/>
    </g>
    <g id="shape7" transform="matrix(1.0, 0.0, 0.0, 1.0, -2136.6, -1286.9)">
      <path d="M2136.6 1288.4 L2136.6 1318.15 2136.6 1331.65 2138.6 1333.65 2139.1 1333.15 2137.35 1331.4 2137.35 1314.9 2153.1 1314.9 2153.1 1312.65 2152.85 1312.65 2152.85 1308.4 2152.1 1308.4 2152.1 1309.15 2152.35 1309.15 2152.35 1312.65 2152.1 1312.65 2152.1 1313.4 2148.35 1313.4 2148.35 1308.4 2147.6 1308.4 2147.6 1309.15 2147.85 1309.15 2147.85 1313.4 2143.85 1313.4 2143.85 1311.4 2143.35 1311.4 2143.35 1313.4 2138.1 1313.4 2138.1 1309.15 2139.1 1309.15 2139.1 1308.9 2143.1 1308.9 2143.1 1309.15 2143.35 1309.15 2143.35 1310.4 2143.85 1310.4 2143.85 1309.15 2144.1 1309.15 2144.1 1308.15 2143.1 1308.15 2143.1 1308.4 2138.6 1308.4 2138.6 1304.65 2139.35 1304.65 2139.35 1303.9 2138.6 1303.9 2138.6 1300.15 2139.35 1300.15 2139.35 1299.4 2138.6 1299.4 2138.6 1295.4 2139.35 1295.4 2139.35 1294.65 2138.6 1294.65 2138.6 1291.15 2139.35 1291.15 2139.35 1290.4 2143.1 1290.4 2143.1 1291.15 2143.85 1291.15 2143.85 1290.4 2147.85 1290.4 2147.85 1291.15 2148.6 1291.15 2148.6 1290.4 2161.1 1290.4 2161.1 1291.15 2161.85 1291.15 2161.85 1290.4 2165.85 1290.4 2165.85 1291.15 2166.6 1291.15 2166.6 1290.4 2170.35 1290.4 2170.35 1291.15 2171.1 1291.15 2171.1 1294.65 2170.35 1294.65 2170.35 1295.4 2171.1 1295.4 2171.1 1299.4 2170.35 1299.4 2170.35 1300.15 2171.1 1300.15 2171.1 1303.9 2165.85 1303.9 2165.85 1308.15 2165.6 1308.15 2165.6 1308.4 2164.35 1308.4 2164.35 1308.9 2165.6 1308.9 2165.6 1309.15 2166.6 1309.15 2166.6 1308.15 2166.35 1308.15 2166.35 1304.65 2166.6 1304.65 2166.6 1304.4 2170.35 1304.4 2170.35 1304.65 2171.1 1304.65 2171.1 1308.4 2170.35 1308.4 2170.35 1309.15 2172.1 1309.15 2172.1 1305.9 2173.1 1305.9 2173.1 1288.4 2166.85 1288.4 2166.85 1286.9 2165.85 1286.9 2165.85 1288.4 2139.1 1288.4 2139.1 1286.9 2138.1 1286.9 2138.1 1288.4 2136.6 1288.4" fill="#8d8d8d" fill-rule="evenodd" stroke="none"/>
    </g>
    <g id="shape8" transform="matrix(1.0, 0.0, 0.0, 1.0, -2106.85, -1294.65)">
      <path d="M2265.85 1342.65 L2265.85 1343.15 2250.35 1343.15 2250.35 1342.65 2265.85 1342.65 M2249.6 1373.9 L2252.6 1373.9 2252.6 1369.9 2253.1 1369.9 2253.1 1373.9 2265.85 1373.9 2265.85 1374.4 2249.6 1374.4 2249.6 1373.9 M2161.6 1426.65 L2166.6 1426.65 2166.6 1446.4 2166.1 1446.4 2166.1 1427.15 2161.6 1427.15 2161.6 1426.65 M2155.35 1426.65 L2155.35 1427.15 2154.1 1427.15 2154.1 1426.65 2155.35 1426.65 M2144.1 1426.65 L2139.6 1426.65 2139.6 1427.15 2144.1 1427.15 2144.1 1426.65 M2106.85 1461.65 L2107.35 1461.65 2107.35 1427.15 2131.85 1427.15 2131.85 1426.65 2106.85 1426.65 2106.85 1461.65 M2165.6 1294.65 L2166.6 1294.65 2166.6 1295.65 2165.6 1295.65 2165.6 1294.65 M2166.6 1299.4 L2165.85 1299.4 2165.85 1300.15 2166.6 1300.15 2166.6 1299.4 M2172.35 1334.65 L2173.1 1334.65 2173.1 1315.4 2173.6 1315.4 2173.6 1314.9 2175.35 1314.9 2175.35 1313.9 2173.6 1313.9 2173.6 1313.4 2172.1 1313.4 2172.1 1310.4 2171.6 1310.4 2171.6 1313.4 2166.6 1313.4 2166.6 1312.65 2165.85 1312.65 2165.85 1313.4 2162.1 1313.4 2162.1 1312.65 2161.85 1312.65 2161.85 1309.15 2162.1 1309.15 2162.1 1308.9 2163.35 1308.9 2163.35 1308.4 2161.35 1308.4 2161.35 1312.65 2161.1 1312.65 2161.1 1313.4 2157.6 1313.4 2157.6 1312.65 2157.35 1312.65 2157.35 1309.15 2157.6 1309.15 2157.6 1308.4 2156.85 1308.4 2156.85 1312.65 2156.6 1312.65 2156.6 1314.9 2158.35 1314.9 2158.35 1315.4 2166.85 1315.4 2166.85 1318.4 2167.35 1318.4 2167.35 1315.4 2171.1 1315.4 2171.1 1320.4 2167.35 1320.4 2167.35 1319.4 2166.85 1319.4 2166.85 1320.9 2171.1 1320.9 2171.1 1321.9 2172.35 1321.9 2172.35 1334.65" fill="#8d8d8d" fill-rule="evenodd" stroke="none"/>
    </g>
    <g id="shape9" transform="matrix(1.0, 0.0, 0.0, 1.0, -2141.35, -1294.65)">
      <path d="M2260.1 1385.15 L2260.1 1385.65 2253.6 1385.65 2253.6 1385.15 2260.1 1385.15 M2143.1 1303.9 L2143.1 1304.65 2143.85 1304.65 2143.85 1303.9 2143.1 1303.9 M2143.85 1299.4 L2143.1 1299.4 2143.1 1300.15 2143.85 1300.15 2143.85 1299.4 M2144.1 1295.65 L2144.1 1294.65 2143.1 1294.65 2143.1 1295.65 2144.1 1295.65 M2147.85 1295.4 L2148.6 1295.4 2148.6 1294.65 2147.85 1294.65 2147.85 1295.4 M2161.85 1295.4 L2161.85 1294.65 2161.1 1294.65 2161.1 1295.4 2161.85 1295.4 M2243.85 1374.4 L2240.6 1374.4 2240.6 1365.9 2246.35 1365.9 2246.35 1366.4 2241.1 1366.4 2241.1 1373.9 2243.85 1373.9 2243.85 1374.4 M2288.6 1381.9 L2288.6 1384.65 2289.1 1384.65 2289.1 1381.9 2288.6 1381.9 M2288.6 1377.9 L2289.1 1377.9 2289.1 1380.4 2288.6 1380.4 2288.6 1377.9 M2172.35 1337.65 L2172.35 1337.9 2164.35 1337.9 2164.35 1338.65 2173.1 1338.65 2173.1 1337.65 2172.35 1337.65 M2161.1 1337.9 L2143.85 1337.9 2141.85 1335.9 2141.35 1336.4 2143.6 1338.65 2161.1 1338.65 2161.1 1337.9 M2260.1 1339.65 L2260.1 1340.15 2245.1 1340.15 2241.1 1344.15 2241.1 1361.9 2246.35 1361.9 2246.35 1362.4 2240.6 1362.4 2240.6 1343.9 2244.85 1339.65 2260.1 1339.65" fill="#8d8d8d" fill-rule="evenodd" stroke="none"/>
    </g>
    <g id="shape10" transform="matrix(1.0, 0.0, 0.0, 1.0, -110.85, -1311.15)">
      <path d="M2132.1 1452.9 L2134.1 1452.9 2134.1 1453.4 2138.1 1453.4 2138.1 1452.9 2139.1 1452.9 2139.1 1446.4 2165.1 1446.4 2165.1 1508.4 2159.1 1508.4 2159.1 1520.65 2144.1 1520.65 2144.1 1535.4 2130.1 1535.4 2130.1 1520.9 2113.1 1520.9 2113.1 1516.4 2106.1 1516.4 2106.1 1483.15 2112.35 1483.15 2112.35 1475.15 2106.35 1475.15 2106.35 1446.4 2132.1 1446.4 2132.1 1452.9 M2109.1 1311.15 L2131.1 1311.15 2131.1 1321.15 2131.35 1321.15 2131.35 1331.15 2111.35 1331.15 2111.35 1321.4 2109.1 1321.4 2109.1 1311.15 M2323.85 1339.9 L2323.1 1385.15 2314.85 1385.65 2314.85 1339.9 2323.85 1339.9 M2093.6 1407.65 L110.85 1404.4 110.85 1429.9 2093.6 1430.65 2093.6 1407.65 M2199.85 1432.9 L2199.85 1407.9 2243.6 1407.15 2249.85 1385.4 2264.1 1385.4 2280.6 1405.9 3685.85 1405.65 3685.85 1430.15 2199.85 1432.9" fill="#8d8d8d" fill-rule="evenodd" stroke="none"/>
    </g>
    <g id="shape11" transform="matrix(1.0, 0.0, 0.0, 1.0, -2197.1, -1331.65)">
      <path d="M2215.85 1362.65 L2206.6 1362.65 2206.6 1352.65 2209.6 1352.65 2209.6 1355.4 2213.6 1355.4 2213.6 1352.65 2216.35 1352.65 2216.35 1351.65 2226.35 1351.65 2226.35 1352.65 2235.85 1352.65 2235.85 1360.65 2237.35 1360.65 2237.35 1381.9 2239.1 1381.9 2239.1 1382.65 2238.35 1382.65 2238.35 1384.65 2239.1 1384.65 2239.1 1385.4 2236.6 1385.4 2236.6 1387.65 2235.85 1387.65 2235.85 1386.9 2230.6 1386.9 2230.6 1387.65 2229.85 1387.65 2229.85 1386.4 2225.85 1386.4 2225.85 1386.9 2210.1 1386.9 2210.1 1385.9 2197.85 1385.9 2197.85 1385.4 2197.1 1385.4 2197.1 1384.65 2197.85 1384.65 2197.85 1382.65 2197.1 1382.65 2197.1 1381.9 2198.35 1381.9 2198.35 1383.9 2206.1 1383.9 2206.1 1373.9 2215.85 1373.9 2215.85 1362.65 M2315.1 1354.9 L2315.1 1331.65 2265.85 1331.65 2265.85 1348.4 2262.1 1348.4 2262.1 1361.4 2265.85 1361.4 2265.85 1378.15 2315.1 1378.15 2315.1 1354.9 2299.6 1354.9 2299.6 1360.9 2274.85 1360.9 2274.85 1348.9 2299.6 1348.9 2299.6 1354.9 2315.1 1354.9" fill="#8d8d8d" fill-rule="evenodd" stroke="none"/>
    </g>
    <g id="shape12" transform="matrix(1.0, 0.0, 0.0, 1.0, -110.85, -1313.15)">
      <path d="M2159.35 1536.15 L2144.1 1536.15 2144.1 1535.4 2130.1 1535.4 2130.1 1530.65 2113.6 1530.65 2113.6 1516.4 2106.1 1516.4 2106.1 1483.15 2112.35 1483.15 2112.35 1475.15 2106.35 1475.15 2106.35 1461.65 2106.85 1461.65 2106.85 1441.15 2100.1 1441.15 2100.1 1426.65 110.85 1426.65 110.85 2335.9 2156.35 2336.15 3685.85 2335.9 3685.85 1426.9 2236.6 1426.9 2236.6 1425.4 2226.85 1425.4 2226.85 1426.9 2218.85 1426.9 2218.85 1427.4 2219.6 1427.4 2219.6 1430.4 2218.85 1430.4 2218.85 1431.15 2216.6 1431.15 2216.6 1430.4 2215.85 1430.4 2215.85 1431.15 2213.6 1431.15 2213.6 1430.4 2212.85 1430.4 2212.85 1431.15 2210.35 1431.15 2210.35 1430.65 2209.85 1430.65 2209.85 1427.4 2210.35 1427.4 2210.35 1426.9 2208.85 1426.9 2208.85 1427.4 2209.35 1427.4 2209.35 1430.65 2208.85 1430.65 2208.85 1431.15 2206.6 1431.15 2206.6 1430.65 2205.85 1430.65 2205.85 1431.15 2203.6 1431.15 2203.6 1430.65 2202.85 1430.65 2202.85 1431.15 2200.6 1431.15 2200.6 1430.65 2200.1 1430.65 2200.1 1427.4 2201.1 1427.4 2201.1 1423.15 2200.35 1423.15 2200.35 1424.9 2197.6 1424.9 2197.6 1423.15 2196.85 1423.15 2196.85 1426.9 2195.85 1426.9 2195.85 1427.4 2199.6 1427.4 2199.6 1430.65 2199.1 1430.65 2199.1 1431.15 2196.6 1431.15 2196.6 1430.65 2195.85 1430.65 2195.85 1431.15 2193.6 1431.15 2193.6 1430.65 2192.85 1430.65 2192.85 1431.15 2190.35 1431.15 2190.35 1430.65 2189.85 1430.65 2189.85 1427.4 2190.35 1427.4 2190.35 1426.9 2188.85 1426.9 2188.85 1427.4 2189.35 1427.4 2189.35 1430.65 2188.85 1430.65 2188.85 1431.15 2186.6 1431.15 2186.6 1430.65 2185.85 1430.65 2185.85 1431.15 2183.6 1431.15 2183.6 1430.65 2182.85 1430.65 2182.85 1431.15 2180.6 1431.15 2180.6 1430.65 2179.85 1430.65 2179.85 1427.4 2180.6 1427.4 2180.6 1426.9 2176.85 1426.9 2176.85 1446.4 2165.1 1446.4 2165.1 1508.4 2159.1 1508.4 2159.1 1520.65 2159.35 1520.65 2159.35 1536.15 M2261.35 1379.15 L2261.35 1378.15 2259.85 1378.15 2259.85 1377.65 2265.85 1377.65 2265.85 1378.15 2261.85 1378.15 2261.85 1379.15 2261.35 1379.15 M2208.1 1313.15 L2216.1 1321.15 2217.6 1319.65 2218.1 1320.15 2216.85 1321.4 2222.1 1326.65 2223.1 1325.65 2230.6 1333.15 2232.6 1331.15 2236.6 1335.15 2238.35 1333.4 2238.85 1333.9 2238.1 1334.65 2238.85 1335.4 2239.6 1334.65 2240.1 1335.15 2238.6 1336.65 2239.6 1337.65 2232.6 1344.65 2232.1 1344.15 2228.35 1347.9 2217.85 1347.9 2217.85 1347.15 2208.1 1347.15 2208.1 1348.15 2198.6 1348.15 2198.6 1346.4 2189.1 1346.4 2189.1 1336.4 2189.35 1336.15 2188.35 1335.15 2188.85 1334.65 2189.35 1335.15 2190.1 1334.4 2189.6 1333.9 2190.1 1333.4 2191.1 1334.4 2196.6 1328.9 2202.1 1334.4 2205.35 1331.4 2202.85 1328.9 2203.35 1328.4 2204.1 1329.15 2205.6 1327.65 2202.6 1324.65 2201.1 1326.15 2201.85 1326.9 2201.35 1327.4 2198.35 1324.4 2201.85 1320.9 2201.1 1320.15 2208.1 1313.15 M2186.1 1396.65 L2185.85 1396.4 2185.35 1396.9 2186.1 1397.9 2185.6 1398.4 2185.1 1398.4 2185.1 1408.65 2196.85 1408.65 2196.85 1410.65 2197.6 1410.65 2197.6 1408.9 2200.35 1408.9 2200.35 1410.65 2201.1 1410.65 2201.1 1408.65 2208.35 1408.65 2208.35 1409.15 2217.35 1409.15 2217.35 1407.9 2246.35 1407.9 2246.35 1401.4 2254.6 1401.4 2256.1 1402.15 2256.6 1401.15 2254.85 1400.4 2254.85 1392.65 2253.85 1392.65 2253.85 1388.4 2254.6 1388.4 2254.6 1387.65 2253.85 1387.65 2253.85 1385.4 2254.6 1385.4 2254.6 1384.65 2253.85 1384.65 2253.85 1383.9 2244.85 1383.9 2244.85 1381.9 2243.6 1381.9 2243.6 1382.65 2244.35 1382.65 2244.35 1384.65 2243.6 1384.65 2243.6 1385.4 2244.35 1385.4 2244.35 1392.9 2236.6 1393.4 2236.6 1390.4 2235.85 1390.4 2235.85 1391.15 2230.6 1391.15 2230.6 1390.4 2229.85 1390.4 2229.85 1392.9 2220.1 1392.9 2220.1 1402.4 2204.6 1402.4 2204.6 1391.9 2194.85 1391.9 2194.85 1392.4 2194.6 1392.4 2186.1 1396.65" fill="#8d8d8d" fill-rule="evenodd" stroke="none"/>
    </g>
    <g id="shape13" transform="matrix(1.0, 0.0, 0.0, 1.0, -110.85, -185.65)">
      <path d="M2322.6 1319.65 L2322.6 1322.4 2323.35 1322.4 2323.35 1328.9 2322.6 1328.9 2322.6 1339.65 2315.1 1339.65 2315.1 1340.15 2322.6 1340.15 2322.6 1384.4 2315.1 1384.4 2315.1 1378.15 2314.6 1378.15 2314.6 1384.4 2261.85 1384.4 2261.85 1380.65 2261.35 1380.65 2261.35 1384.4 2259.85 1384.4 2259.85 1384.65 2259.1 1384.65 2259.1 1385.4 2259.85 1385.4 2259.85 1387.65 2259.1 1387.65 2259.1 1388.4 2264.6 1388.4 2264.6 1393.4 2261.1 1403.15 2260.1 1402.65 2259.6 1403.65 2269.6 1408.4 3685.85 1408.4 3685.85 185.9 1898.35 185.75 110.85 185.65 110.85 1408.9 2099.6 1408.9 2099.6 1385.9 2123.35 1385.9 2123.35 1387.4 2148.35 1387.4 2148.35 1378.65 2123.35 1378.65 2123.35 1380.4 2110.1 1380.4 2110.1 1360.4 2107.1 1360.4 2107.1 1350.4 2102.35 1350.4 2102.35 1341.65 2094.6 1341.65 2094.6 1340.15 2093.6 1340.15 2093.6 1334.15 2094.6 1334.15 2094.6 1331.15 2104.6 1331.15 2104.6 1321.15 2103.6 1321.15 2103.6 1311.15 2101.1 1311.15 2101.1 1306.15 2101.6 1306.15 2101.6 1296.4 2092.1 1296.4 2092.1 1286.4 2097.35 1283.4 2106.6 1285.9 2106.6 1305.65 2120.85 1305.65 2120.85 1306.65 2130.85 1306.65 2130.85 1305.9 2131.6 1305.9 2131.6 1295.9 2130.85 1295.9 2130.85 1285.9 2125.85 1285.9 2125.85 1279.15 2129.1 1279.15 2129.1 1282.15 2138.1 1282.15 2138.1 1283.4 2139.1 1283.4 2139.1 1282.15 2156.6 1282.15 2156.6 1280.15 2165.85 1280.15 2165.85 1282.4 2166.85 1282.4 2166.85 1280.9 2173.6 1280.9 2173.6 1281.65 2181.1 1281.65 2181.1 1283.65 2182.1 1283.65 2182.1 1282.65 2192.35 1282.65 2201.35 1287.65 2203.85 1291.4 2203.35 1291.65 2204.35 1293.65 2205.35 1293.15 2204.35 1291.15 2209.1 1287.65 2209.6 1288.4 2210.6 1287.9 2213.35 1293.4 2212.35 1293.9 2212.6 1294.4 2208.1 1298.15 2207.6 1298.15 2206.85 1296.4 2205.85 1296.9 2206.6 1298.65 2206.1 1298.9 2206.85 1300.9 2206.1 1301.65 2208.1 1303.65 2206.1 1305.4 2206.85 1306.15 2209.35 1303.9 2213.35 1307.9 2214.1 1307.15 2216.35 1309.4 2215.85 1309.9 2221.6 1315.65 2220.35 1316.9 2220.85 1317.4 2222.1 1316.15 2222.85 1316.9 2223.6 1316.15 2230.6 1323.15 2233.35 1320.4 2240.35 1327.4 2239.85 1327.9 2241.85 1329.9 2240.35 1331.4 2240.85 1331.9 2241.6 1331.15 2242.35 1331.9 2241.6 1332.65 2242.1 1333.15 2243.6 1331.65 2247.1 1335.15 2265.85 1335.15 2265.85 1331.65 2267.1 1331.65 2267.1 1319.65 2322.6 1319.65" fill="#8d8d8d" fill-rule="evenodd" stroke="none"/>
    </g>
    <g id="shape14" transform="matrix(1.0, 0.0, 0.0, 1.0, -2112.1, -1287.4)">
      <path d="M2215.85 1426.9 L2215.85 1427.4 2216.6 1427.4 2216.6 1426.9 2215.85 1426.9 M2212.85 1426.9 L2212.85 1427.4 2213.6 1427.4 2213.6 1426.9 2212.85 1426.9 M2205.85 1426.9 L2205.85 1427.4 2206.6 1427.4 2206.6 1426.9 2205.85 1426.9 M2202.85 1426.9 L2202.85 1427.4 2203.6 1427.4 2203.6 1426.9 2202.85 1426.9 M2183.6 1426.9 L2183.6 1427.4 2182.85 1427.4 2182.85 1426.9 2183.6 1426.9 M2186.6 1426.9 L2186.6 1427.4 2185.85 1427.4 2185.85 1426.9 2186.6 1426.9 M2193.6 1426.9 L2193.6 1427.4 2192.85 1427.4 2192.85 1426.9 2193.6 1426.9 M2144.6 1428.9 L2144.6 1432.9 2153.6 1432.9 2153.6 1432.4 2154.1 1432.4 2154.1 1433.4 2144.1 1433.4 2144.1 1428.9 2144.6 1428.9 M2150.1 1426.65 L2154.1 1426.65 2154.1 1431.15 2153.6 1431.15 2153.6 1427.15 2150.1 1427.15 2150.1 1426.65 M2144.6 1427.9 L2144.1 1427.9 2144.1 1426.65 2148.85 1426.65 2148.85 1427.15 2144.6 1427.15 2144.6 1427.9 M2139.6 1426.65 L2139.6 1430.65 2138.1 1430.65 2138.1 1430.15 2139.1 1430.15 2139.1 1426.65 2139.6 1426.65 M2138.1 1427.15 L2132.35 1427.15 2132.35 1430.15 2136.6 1430.15 2136.6 1430.65 2131.85 1430.65 2131.85 1426.65 2138.1 1426.65 2138.1 1427.15 M2116.6 1436.4 L2116.6 1436.9 2112.6 1436.9 2112.6 1446.4 2118.35 1446.4 2118.35 1436.9 2117.6 1436.9 2117.6 1436.4 2118.85 1436.4 2118.85 1446.9 2112.1 1446.9 2112.1 1436.4 2116.6 1436.4 M2179.6 1289.15 L2179.6 1299.15 2180.85 1299.15 2180.85 1304.15 2187.85 1311.15 2188.1 1310.9 2194.85 1317.65 2204.1 1308.65 2203.35 1307.9 2202.1 1309.15 2198.1 1300.9 2198.85 1300.4 2194.6 1291.4 2193.85 1291.65 2189.35 1289.15 2182.1 1289.15 2182.1 1287.4 2181.1 1287.4 2181.1 1289.15 2179.6 1289.15 M2177.6 1321.15 L2181.85 1316.9 2181.85 1315.4 2181.35 1315.4 2181.35 1314.9 2179.6 1314.9 2179.6 1313.9 2181.35 1313.9 2181.35 1313.15 2183.35 1313.15 2187.85 1316.15 2194.85 1323.4 2187.6 1330.9 2188.1 1331.4 2187.6 1331.9 2187.1 1331.4 2186.35 1332.15 2186.85 1332.65 2186.35 1333.15 2184.85 1331.65 2177.6 1331.65 2177.6 1321.15 M2165.6 1350.9 L2159.85 1359.4 2159.85 1371.65 2154.6 1371.65 2154.6 1380.15 2148.35 1380.15 2148.35 1385.9 2174.6 1385.9 2180.1 1393.4 2181.35 1392.4 2182.6 1393.9 2183.1 1393.4 2182.85 1393.15 2191.85 1386.9 2191.85 1385.4 2192.6 1385.4 2192.6 1384.65 2191.85 1384.65 2191.85 1382.65 2192.6 1382.65 2192.6 1381.9 2191.35 1381.9 2191.35 1372.15 2190.85 1372.15 2190.85 1362.15 2200.85 1362.15 2200.85 1352.4 2191.6 1352.4 2191.6 1350.9 2165.6 1350.9" fill="#8d8d8d" fill-rule="evenodd" stroke="none"/>
    </g>
    <g id="shape15" transform="matrix(1.0, 0.0, 0.0, 1.0, -2148.1, -1299.5)">
      <path d="M2148.1 1299.5 L2148.1 1303.5 2161.1 1303.5 2161.1 1299.5 2148.1 1299.5" fill="#343434" fill-rule="evenodd" stroke="none"/>
    </g>
    <g id="shape16" transform="matrix(1.0, 0.0, 0.0, 1.0, -2097.6, -1280.4)">
      <path d="M2110.85 1323.15 L2111.85 1323.15 2111.85 1324.65 2110.85 1324.65 2110.85 1323.15 M2114.85 1330.65 L2112.6 1330.65 2112.6 1331.65 2114.85 1331.65 2114.85 1330.65 M2119.85 1331.65 L2117.85 1331.65 2117.85 1330.65 2119.85 1330.65 2119.85 1331.65 M2159.35 1365.9 L2159.35 1367.4 2160.35 1367.4 2160.35 1365.9 2159.35 1365.9 M2159.35 1360.9 L2159.35 1362.65 2160.35 1362.65 2160.35 1360.9 2159.35 1360.9 M2162.35 1356.4 L2161.35 1357.9 2160.6 1357.4 2161.6 1355.9 2162.35 1356.4 M2164.1 1352.15 L2163.1 1353.4 2163.85 1354.15 2164.85 1352.65 2164.1 1352.15 M2173.85 1350.4 L2173.85 1351.4 2172.1 1351.4 2172.1 1350.4 2173.85 1350.4 M2188.6 1350.9 L2188.6 1353.65 2187.6 1353.65 2187.6 1354.15 2186.6 1354.15 2186.6 1353.65 2184.6 1353.65 2184.6 1350.9 2188.6 1350.9 M2193.35 1345.9 L2193.35 1346.9 2195.1 1346.9 2195.1 1345.9 2193.35 1345.9 M2214.1 1318.65 L2213.6 1319.15 2212.35 1317.9 2212.85 1317.4 2214.1 1318.65 M2189.1 1317.15 L2190.35 1318.4 2189.85 1318.9 2188.6 1317.65 2189.1 1317.15 M2189.35 1329.4 L2188.85 1328.9 2190.1 1327.65 2190.6 1328.15 2189.35 1329.4 M2193.85 1324.9 L2192.6 1326.15 2192.1 1325.65 2193.35 1324.4 2193.85 1324.9 M2201.85 1318.4 L2202.6 1319.15 2203.85 1317.9 2203.1 1317.15 2201.85 1318.4 M2199.35 1314.15 L2198.35 1315.15 2197.6 1314.4 2198.6 1313.4 2199.35 1314.15 M2201.35 1306.15 L2202.1 1307.65 2201.1 1308.15 2200.35 1306.65 2201.35 1306.15 M2211.0 1296.35 L2211.05 1296.35 2209.8 1297.4 2209.1 1296.65 2210.35 1295.65 2211.0 1296.35 M2199.35 1301.9 L2200.1 1303.4 2199.1 1303.9 2198.35 1302.4 2199.35 1301.9 M2197.6 1297.15 L2197.55 1297.15 2198.3 1298.9 2197.85 1299.15 2197.05 1297.4 2197.6 1297.15 M2195.85 1292.65 L2195.9 1292.65 2194.95 1293.1 2195.65 1294.65 2196.6 1294.15 2195.85 1292.65 M2199.85 1286.4 L2199.35 1287.15 2198.1 1286.4 2198.6 1285.65 2199.85 1286.4 M2191.35 1282.15 L2191.35 1283.15 2189.6 1283.15 2189.6 1282.15 2191.35 1282.15 M2181.1 1317.15 L2181.6 1317.65 2180.6 1318.65 2180.1 1318.15 2181.1 1317.15 M2179.1 1292.9 L2179.1 1295.4 2180.1 1295.4 2180.1 1292.9 2179.1 1292.9 M2177.6 1282.15 L2179.6 1282.15 2179.6 1281.15 2177.6 1281.15 2177.6 1282.15 M2171.1 1280.4 L2171.1 1281.4 2169.35 1281.4 2169.35 1280.4 2171.1 1280.4 M2153.1 1282.65 L2155.1 1282.65 2155.1 1281.65 2153.1 1281.65 2153.1 1282.65 M2148.35 1281.65 L2148.35 1282.65 2150.1 1282.65 2150.1 1281.65 2148.35 1281.65 M2143.1 1281.65 L2143.1 1282.65 2141.35 1282.65 2141.35 1281.65 2143.1 1281.65 M2131.35 1287.65 L2131.35 1289.4 2130.35 1289.4 2130.35 1287.65 2131.35 1287.65 M2131.35 1294.15 L2130.35 1294.15 2130.35 1292.4 2131.35 1292.4 2131.35 1294.15 M2132.1 1297.4 L2132.1 1299.15 2131.1 1299.15 2131.1 1297.4 2132.1 1297.4 M2127.35 1307.15 L2129.1 1307.15 2129.1 1306.15 2127.35 1306.15 2127.35 1307.15 M2124.35 1307.15 L2124.35 1306.15 2122.6 1306.15 2122.6 1307.15 2124.35 1307.15 M2192.6 1333.4 L2193.85 1332.15 2193.35 1331.65 2192.1 1332.9 2192.6 1333.4 M2199.85 1331.65 L2201.1 1332.9 2200.6 1333.4 2199.35 1332.15 2199.85 1331.65 M2201.1 1327.65 L2202.6 1329.15 2203.35 1328.4 2201.85 1326.9 2201.1 1327.65 M2292.85 1360.4 L2292.85 1361.4 2291.35 1361.4 2291.35 1360.4 2292.85 1360.4 M2283.1 1360.4 L2283.1 1361.4 2281.6 1361.4 2281.6 1360.4 2283.1 1360.4 M2291.35 1349.4 L2293.1 1349.4 2293.1 1348.4 2291.35 1348.4 2291.35 1349.4 M2281.6 1349.4 L2283.1 1349.4 2283.1 1348.4 2281.6 1348.4 2281.6 1349.4 M2162.85 1445.9 L2162.85 1446.9 2163.85 1446.9 2163.85 1445.9 2162.85 1445.9 M2292.85 1378.65 L2292.85 1377.65 2294.6 1377.65 2294.6 1378.65 2292.85 1378.65 M2315.6 1334.65 L2315.6 1336.15 2314.6 1336.15 2314.6 1334.65 2315.6 1334.65 M2290.1 1331.15 L2290.1 1332.15 2291.85 1332.15 2291.85 1331.15 2290.1 1331.15 M2260.6 1355.9 L2261.6 1355.9 2261.6 1353.9 2260.6 1353.9 2260.6 1355.9 M2225.85 1367.4 L2225.35 1367.4 2225.35 1368.65 2225.85 1368.65 2225.85 1373.9 2228.85 1373.9 2228.85 1374.4 2232.85 1374.4 2232.85 1373.9 2235.35 1373.9 2235.35 1362.4 2225.85 1362.4 2225.85 1367.4 M2215.35 1365.9 L2215.35 1369.9 2216.35 1369.9 2216.35 1365.9 2215.35 1365.9 M2226.6 1328.15 L2228.1 1329.65 2227.1 1330.65 2225.6 1329.15 2226.6 1328.15 M2217.35 1312.4 L2220.35 1315.4 2222.85 1312.9 2221.85 1311.9 2222.1 1311.65 2221.1 1310.65 2220.85 1310.9 2219.85 1309.9 2217.35 1312.4 M2190.1 1313.9 L2191.6 1315.4 2192.35 1314.65 2190.85 1313.15 2190.1 1313.9 M2110.6 1364.9 L2110.6 1366.4 2109.6 1366.4 2109.6 1364.9 2110.6 1364.9 M2133.1 1282.65 L2133.1 1281.15 2135.1 1281.15 2135.1 1282.65 2133.1 1282.65 M2097.6 1331.65 L2101.85 1331.65 2101.85 1330.65 2097.6 1330.65 2097.6 1331.65 M2131.6 1315.4 L2131.6 1317.15 2130.6 1317.15 2130.6 1315.4 2131.6 1315.4 M2108.6 1315.65 L2108.6 1317.15 2109.6 1317.15 2109.6 1315.65 2108.6 1315.65 M2115.1 1303.15 L2114.1 1303.15 2114.1 1306.15 2118.1 1306.15 2118.1 1303.15 2116.85 1303.15 2116.85 1302.65 2115.1 1302.65 2115.1 1303.15 M2217.35 1321.9 L2220.1 1324.65 2218.1 1326.65 2215.35 1323.9 2217.35 1321.9 M2143.6 1378.4 L2143.6 1387.65 2147.35 1387.65 2147.35 1378.4 2143.6 1378.4 M2132.1 1378.4 L2132.1 1387.65 2139.6 1387.65 2139.6 1378.4 2132.1 1378.4 M2124.6 1378.4 L2124.6 1387.65 2128.1 1387.65 2128.1 1378.4 2124.6 1378.4" fill="#d9d9d9" fill-rule="evenodd" stroke="none"/>
    </g>
    <g id="shape17" transform="matrix(1.0, 0.0, 0.0, 1.0, -2148.6, -1300.0)">
      <path d="M2157.95 1325.4 L2155.95 1325.4 2154.2 1327.15 2154.2 1329.2 2155.95 1330.95 2157.95 1330.95 2159.7 1329.2 2159.7 1327.15 2157.95 1325.4 M2148.6 1300.0 L2148.6 1303.0 2160.6 1303.0 2160.6 1300.0 2148.6 1300.0" fill="#0f0f0f" fill-rule="evenodd" stroke="none"/>
    </g>
    <g id="shape18" transform="matrix(1.0, 0.0, 0.0, 1.0, -2096.6, -1272.65)">
      <path d="M2160.35 1364.65 L2160.35 1368.65 2162.85 1368.65 2162.85 1364.65 2160.35 1364.65 M2160.35 1359.9 L2162.35 1359.9 2162.35 1363.9 2160.35 1363.9 2160.35 1359.9 M2162.85 1355.65 L2160.85 1358.65 2163.1 1360.15 2165.1 1357.15 2162.85 1355.65 M2165.6 1351.65 L2167.35 1352.9 2164.85 1356.4 2163.1 1355.15 2165.6 1351.65 M2175.1 1351.4 L2175.1 1354.15 2170.85 1354.15 2170.85 1351.4 2175.1 1351.4 M2213.6 1352.65 L2213.6 1355.4 2209.6 1355.4 2209.6 1352.65 2213.6 1352.65 M2196.35 1343.65 L2196.35 1345.9 2192.1 1345.9 2192.1 1343.65 2196.35 1343.65 M2189.6 1354.15 L2189.6 1360.15 2183.6 1360.15 2183.6 1354.15 2189.6 1354.15 M2120.85 1330.65 L2116.6 1330.65 2116.6 1328.4 2120.85 1328.4 2120.85 1330.65 M2116.1 1330.65 L2116.1 1328.15 2111.85 1328.15 2111.85 1330.65 2116.1 1330.65 M2111.85 1321.9 L2111.85 1325.9 2114.6 1325.9 2114.6 1321.9 2111.85 1321.9 M2125.6 1306.15 L2125.6 1303.4 2121.35 1303.4 2121.35 1306.15 2125.6 1306.15 M2130.35 1303.4 L2130.35 1306.15 2126.1 1306.15 2126.1 1303.4 2130.35 1303.4 M2128.35 1296.4 L2128.35 1300.4 2131.1 1300.4 2131.1 1296.4 2128.35 1296.4 M2130.35 1291.15 L2130.35 1295.4 2127.6 1295.4 2127.6 1291.15 2130.35 1291.15 M2130.35 1286.4 L2130.35 1290.65 2127.6 1290.65 2127.6 1286.4 2130.35 1286.4 M2144.35 1279.15 L2144.35 1281.65 2140.1 1281.65 2140.1 1279.15 2144.35 1279.15 M2151.35 1279.15 L2151.35 1281.65 2147.1 1281.65 2147.1 1279.15 2151.35 1279.15 M2156.1 1279.15 L2156.1 1281.65 2151.85 1281.65 2151.85 1279.15 2156.1 1279.15 M2172.35 1277.65 L2172.35 1280.4 2168.1 1280.4 2168.1 1277.65 2172.35 1277.65 M2180.6 1278.4 L2180.6 1281.15 2176.35 1281.15 2176.35 1278.4 2180.6 1278.4 M2180.1 1292.15 L2180.1 1296.15 2182.85 1296.15 2182.85 1292.15 2180.1 1292.15 M2192.35 1279.9 L2192.35 1282.15 2188.35 1282.15 2188.35 1279.9 2192.35 1279.9 M2197.35 1284.9 L2201.1 1287.15 2202.35 1285.15 2198.6 1282.9 2197.35 1284.9 M2208.6 1298.4 L2210.35 1300.15 2213.6 1297.15 2212.1 1295.4 2208.6 1298.4 M2196.1 1295.65 L2193.85 1296.65 2192.1 1292.9 2194.35 1291.9 2196.1 1295.65 M2196.6 1296.4 L2198.35 1300.15 2196.1 1301.15 2194.35 1297.4 2196.6 1296.4 M2199.6 1304.9 L2197.35 1305.9 2195.6 1302.4 2197.85 1301.4 2199.6 1304.9 M2201.6 1309.15 L2199.35 1310.15 2197.6 1306.65 2199.85 1305.65 2201.6 1309.15 M2199.6 1312.4 L2196.6 1315.4 2194.85 1313.65 2197.85 1310.65 2199.6 1312.4 M2217.35 1321.9 L2220.1 1324.65 2218.1 1326.65 2215.35 1323.9 2217.35 1321.9 M2211.6 1317.15 L2214.6 1320.15 2212.6 1322.15 2209.6 1319.15 2211.6 1317.15 M2182.6 1316.65 L2184.6 1318.65 2181.6 1321.65 2179.6 1319.65 2182.6 1316.65 M2187.85 1316.9 L2190.6 1319.65 2188.35 1321.9 2185.6 1319.15 2187.85 1316.9 M2201.85 1319.9 L2203.85 1321.9 2206.6 1319.15 2204.6 1317.15 2201.85 1319.9 M2192.1 1321.65 L2189.35 1324.4 2191.35 1326.4 2194.1 1323.65 2192.1 1321.65 M2188.85 1324.9 L2190.85 1326.9 2187.85 1329.9 2185.85 1327.9 2188.85 1324.9 M2194.6 1331.4 L2196.35 1333.15 2193.6 1335.9 2191.85 1334.15 2194.6 1331.4 M2198.6 1331.4 L2201.35 1334.15 2199.1 1336.4 2196.35 1333.65 2198.6 1331.4 M2202.6 1324.65 L2205.6 1327.65 2204.1 1329.15 2201.1 1326.15 2202.6 1324.65 M2228.85 1362.4 L2228.85 1359.4 2232.85 1359.4 2232.85 1362.4 2228.85 1362.4 M2228.85 1374.4 L2232.85 1374.4 2235.35 1374.4 2235.35 1380.4 2226.1 1380.4 2226.1 1374.4 2228.85 1374.4 M2190.85 1313.15 L2192.35 1314.65 2193.1 1315.4 2194.6 1313.9 2191.6 1310.9 2190.1 1312.4 2190.85 1313.15 M2097.6 1330.65 L2101.85 1330.65 2102.85 1330.65 2102.85 1324.65 2096.6 1324.65 2096.6 1330.65 2097.6 1330.65 M2131.1 1272.65 L2131.1 1278.65 2133.1 1278.65 2133.1 1279.15 2132.1 1279.15 2132.1 1281.15 2136.1 1281.15 2136.1 1279.15 2135.1 1279.15 2135.1 1278.65 2137.1 1278.65 2137.1 1272.65 2131.1 1272.65 M2221.1 1310.65 L2222.1 1311.65 2223.1 1312.65 2225.1 1310.65 2222.1 1307.65 2220.1 1309.65 2221.1 1310.65 M2115.1 1302.65 L2116.85 1302.65 2119.1 1302.65 2119.1 1296.65 2112.85 1296.65 2112.85 1302.65 2115.1 1302.65 M2109.6 1364.9 L2109.6 1366.4 2109.6 1368.15 2107.85 1368.15 2107.85 1368.65 2109.6 1368.65 2109.6 1370.4 2101.6 1370.4 2101.6 1368.65 2106.35 1368.65 2106.35 1368.15 2101.6 1368.15 2101.6 1362.9 2109.6 1362.9 2109.6 1364.9 M2225.35 1367.4 L2225.35 1368.65 2225.35 1372.65 2216.35 1372.65 2216.35 1363.4 2225.35 1363.4 2225.35 1367.4 M2315.1 1355.15 L2314.6 1336.15 2314.6 1334.65 2315.1 1331.65 2291.85 1332.15 2290.1 1332.15 2265.85 1331.65 2265.85 1348.4 2262.1 1348.4 2262.1 1352.4 2261.1 1352.4 2261.6 1353.9 2261.6 1355.9 2261.1 1357.4 2262.1 1357.4 2262.1 1361.4 2265.85 1361.4 2265.85 1378.15 2292.85 1377.65 2294.6 1377.65 2315.1 1378.15 2315.1 1355.15 2299.6 1355.15 2299.6 1360.9 2292.85 1361.4 2281.6 1361.4 2274.85 1360.9 2274.85 1348.9 2281.6 1348.4 2293.1 1348.4 2299.6 1348.9 2299.6 1355.15 2315.1 1355.15 M2119.35 1452.9 L2131.85 1452.9 2134.1 1453.4 2138.1 1453.4 2139.35 1452.9 2154.6 1452.9 2154.6 1446.4 2162.85 1446.9 2163.85 1446.9 2166.6 1446.4 2166.6 1461.4 2165.1 1461.4 2165.1 1508.4 2159.1 1508.4 2159.1 1520.65 2144.1 1520.65 2143.85 1535.15 2144.1 1535.4 2130.1 1535.4 2130.1 1520.9 2113.35 1520.9 2113.35 1516.15 2106.35 1516.15 2106.35 1483.4 2112.6 1483.4 2112.6 1474.9 2106.6 1474.9 2106.6 1461.9 2119.35 1461.9 2119.35 1452.9 M2227.1 1330.65 L2225.6 1329.15 2224.1 1327.65 2218.35 1333.4 2222.35 1337.4 2226.6 1333.15 2226.85 1333.4 2222.6 1337.65 2223.85 1338.9 2229.6 1333.15 2227.1 1330.65 M2122.6 1313.4 L2130.6 1313.4 2130.6 1318.65 2128.6 1318.65 2128.6 1319.15 2130.6 1319.15 2130.6 1320.9 2122.6 1320.9 2122.6 1319.15 2127.1 1319.15 2127.1 1318.65 2122.6 1318.65 2122.6 1313.4 M2117.6 1311.65 L2117.6 1313.4 2112.85 1313.4 2112.85 1313.9 2117.6 1313.9 2117.6 1319.15 2109.6 1319.15 2109.6 1313.9 2111.35 1313.9 2111.35 1313.4 2109.6 1313.4 2109.6 1311.65 2117.6 1311.65" fill="#c0c0c0" fill-rule="evenodd" stroke="none"/>
    </g>
    <g id="shape19" transform="matrix(1.0, 0.0, 0.0, 1.0, -2155.65, -1326.9)">
      <path d="M2157.2 1326.9 L2156.75 1326.9 2156.3 1327.05 2155.95 1327.35 2155.75 1327.75 2155.65 1328.2 2155.75 1328.65 2155.95 1329.05 2156.3 1329.35 2156.75 1329.5 2157.2 1329.5 2157.6 1329.35 2157.95 1329.05 2158.15 1328.65 2158.2 1328.2 2158.15 1327.75 2157.95 1327.35 2157.6 1327.05 2157.2 1326.9" fill="#343434" fill-rule="evenodd" stroke="none"/>
    </g>
    <g id="shape20" transform="matrix(1.0, 0.0, 0.0, 1.0, -2107.35, -1446.4)">
      <path d="M2139.6 1446.4 L2154.6 1446.4 2154.6 1452.9 2139.6 1452.9 2139.6 1446.4 M2107.35 1446.4 L2107.35 1460.9 2119.1 1460.9 2119.1 1452.9 2131.6 1452.9 2131.6 1446.4 2107.35 1446.4 M2131.85 1466.4 L2132.6 1466.4 2132.6 1465.9 2138.85 1465.9 2138.85 1466.4 2139.6 1466.4 2139.6 1465.15 2131.85 1465.15 2131.85 1466.4 M2142.1 1468.9 L2129.1 1468.9 2129.1 1471.4 2142.1 1471.4 2142.1 1468.9 M2133.1 1475.15 L2133.1 1479.9 2138.1 1479.9 2138.1 1475.15 2133.1 1475.15" fill="#929292" fill-rule="evenodd" stroke="none"/>
    </g>
    <g id="shape21" transform="matrix(1.0, 0.0, 0.0, 1.0, -2129.85, -1284.95)">
      <path d="M2129.85 1284.95 L2139.15 1292.65 2129.85 1284.95 M2141.3 1301.6 L2138.6 1302.9 2139.45 1304.7 2142.15 1303.4 2143.95 1302.55 2143.1 1300.75 2141.3 1301.6" fill="#424c4b" fill-rule="evenodd" stroke="none"/>
    </g>
    <g id="shape22" transform="matrix(1.0, 0.0, 0.0, 1.0, -2124.35, -1376.9)">
      <path d="M2146.85 1474.9 L2146.85 1475.4 2141.35 1475.4 2141.35 1477.65 2146.85 1477.65 2146.85 1478.15 2140.85 1478.15 2140.85 1474.9 2146.85 1474.9 M2124.35 1474.9 L2130.35 1474.9 2130.35 1478.15 2124.35 1478.15 2124.35 1477.65 2129.85 1477.65 2129.85 1475.4 2124.35 1475.4 2124.35 1474.9 M2138.1 1491.15 L2138.1 1491.65 2145.35 1491.65 2145.35 1492.15 2140.6 1492.15 2140.6 1492.65 2145.85 1492.65 2145.85 1491.15 2138.1 1491.15 M2227.1 1380.4 L2227.6 1380.4 2227.6 1377.4 2232.85 1377.4 2232.85 1376.9 2227.1 1376.9 2227.1 1380.4" fill="#8d8d8d" fill-rule="evenodd" stroke="none"/>
    </g>
    <g id="shape23" transform="matrix(1.0, 0.0, 0.0, 1.0, -2112.85, -1311.65)">
      <path d="M2124.35 1475.4 L2129.85 1475.4 2129.85 1477.65 2124.35 1477.65 2124.35 1475.4 M2141.35 1475.4 L2141.35 1477.65 2146.85 1477.65 2146.85 1475.4 2141.35 1475.4 M2133.6 1531.9 L2133.6 1526.4 2130.6 1526.4 2130.6 1531.9 2140.1 1531.9 2140.1 1534.9 2133.6 1534.9 2133.6 1531.9 M2140.6 1488.4 L2145.85 1488.4 2145.85 1491.15 2140.6 1491.15 2140.6 1488.4 M2270.1 1341.65 L2270.1 1337.15 2273.35 1337.15 2273.35 1341.65 2270.1 1341.65 M2306.85 1355.15 L2306.85 1358.4 2311.35 1358.4 2311.35 1355.15 2306.85 1355.15 M2270.1 1372.65 L2270.1 1368.15 2273.35 1368.15 2273.35 1372.65 2270.1 1372.65 M2127.1 1319.15 L2122.6 1319.15 2122.6 1320.9 2127.1 1320.9 2127.1 1319.15 M2112.85 1311.65 L2112.85 1313.4 2117.6 1313.4 2117.6 1311.65 2112.85 1311.65 M2226.85 1333.4 L2222.6 1337.65 2223.85 1338.9 2228.1 1334.65 2226.85 1333.4 M2306.85 1354.65 L2311.35 1354.65 2311.35 1351.65 2306.85 1351.65 2306.85 1354.65 M2266.35 1368.15 L2266.35 1372.65 2269.6 1372.65 2269.6 1368.15 2266.35 1368.15 M2266.35 1341.65 L2266.35 1337.15 2269.6 1337.15 2269.6 1341.65 2266.35 1341.65" fill="#f0f0f0" fill-rule="evenodd" stroke="none"/>
    </g>
    <g id="shape24" transform="matrix(1.0, 0.0, 0.0, 1.0, -2101.6, -1368.65)">
      <path d="M2106.35 1368.65 L2106.35 1370.4 2101.6 1370.4 2101.6 1368.65 2106.35 1368.65 M2227.6 1377.4 L2227.6 1380.4 2232.85 1380.4 2232.85 1377.4 2227.6 1377.4 M2165.1 1450.4 L2165.1 1456.65 2162.1 1456.65 2162.1 1450.4 2165.1 1450.4 M2140.6 1492.65 L2140.6 1495.65 2145.85 1495.65 2145.85 1492.65 2140.6 1492.65 M2140.6 1527.9 L2134.6 1527.9 2134.6 1530.9 2140.6 1530.9 2140.6 1527.9" fill="#f0f0f0" fill-rule="evenodd" stroke="none"/>
    </g>
    <g id="shape25" transform="matrix(1.0, 0.0, 0.0, 1.0, -2118.1, -1446.4)">
      <path d="M2139.1 1452.9 L2138.1 1452.9 2138.1 1453.4 2147.6 1453.4 2147.6 1463.65 2148.1 1463.65 2148.1 1459.9 2154.6 1459.9 2154.6 1466.15 2148.1 1466.15 2148.1 1464.65 2147.6 1464.65 2147.6 1466.65 2154.6 1466.65 2154.6 1473.9 2159.35 1473.9 2159.35 1473.4 2155.1 1473.4 2155.1 1461.9 2164.6 1461.9 2164.6 1473.4 2160.35 1473.4 2160.35 1473.9 2164.6 1473.9 2164.6 1487.65 2160.35 1487.65 2160.35 1488.15 2164.6 1488.15 2164.6 1507.9 2165.35 1507.9 2165.35 1461.65 2166.85 1461.65 2166.85 1446.4 2163.85 1446.4 2163.85 1446.9 2165.1 1446.9 2165.1 1456.65 2162.1 1456.65 2162.1 1446.9 2162.85 1446.9 2162.85 1446.4 2154.6 1446.4 2154.6 1452.9 2139.6 1452.9 2139.6 1446.4 2139.1 1446.4 2139.1 1452.9 M2118.1 1515.9 L2118.1 1516.4 2129.35 1516.4 2129.35 1515.9 2123.1 1515.9 2123.1 1509.4 2131.85 1509.4 2131.85 1508.9 2123.1 1508.9 2123.1 1495.65 2122.6 1495.65 2122.6 1515.9 2118.1 1515.9" fill="#8d8d8d" fill-rule="evenodd" stroke="none"/>
    </g>
    <g id="shape26" transform="matrix(1.0, 0.0, 0.0, 1.0, -2113.35, -1483.15)">
      <path d="M2115.6 1483.15 L2119.6 1483.15 2119.6 1487.9 2123.1 1487.9 2123.1 1493.65 2122.6 1493.65 2122.6 1488.4 2119.1 1488.4 2119.1 1483.65 2115.6 1483.65 2115.6 1483.15 M2157.85 1508.4 L2158.6 1508.4 2158.6 1515.9 2152.6 1515.9 2152.6 1516.4 2158.6 1516.4 2158.6 1520.15 2143.6 1520.15 2143.6 1535.15 2144.1 1535.15 2144.1 1520.65 2159.35 1520.65 2159.35 1535.65 2144.1 1535.65 2144.1 1534.9 2140.6 1534.9 2140.6 1534.4 2140.1 1534.4 2140.1 1534.9 2130.6 1534.9 2130.6 1526.4 2133.6 1526.4 2133.6 1531.9 2140.1 1531.9 2140.1 1533.15 2140.6 1533.15 2140.6 1530.9 2134.6 1530.9 2134.6 1527.9 2140.6 1527.9 2140.6 1520.4 2113.35 1520.4 2113.35 1520.9 2130.1 1520.9 2130.1 1535.4 2143.6 1535.4 2143.6 1536.15 2159.85 1536.15 2159.85 1520.15 2159.1 1520.15 2159.1 1508.4 2165.1 1508.4 2165.1 1507.9 2157.85 1507.9 2157.85 1508.4" fill="#8d8d8d" fill-rule="evenodd" stroke="none"/>
    </g>
    <g id="shape27" transform="matrix(1.0, 0.0, 0.0, 1.0, -2106.1, -1446.4)">
      <path d="M2132.85 1496.15 L2129.1 1496.15 2129.1 1503.4 2136.1 1503.4 2136.1 1503.9 2128.6 1503.9 2128.6 1494.9 2129.1 1494.9 2129.1 1495.65 2132.85 1495.65 2132.85 1496.15 M2154.1 1498.65 L2154.1 1487.65 2159.1 1487.65 2159.1 1488.15 2154.6 1488.15 2154.6 1498.65 2154.1 1498.65 M2156.85 1507.9 L2154.6 1507.9 2154.6 1499.9 2154.1 1499.9 2154.1 1508.9 2146.6 1508.9 2146.6 1516.4 2151.6 1516.4 2151.6 1515.9 2147.1 1515.9 2147.1 1509.4 2154.6 1509.4 2154.6 1508.4 2156.85 1508.4 2156.85 1507.9 M2131.6 1446.4 L2131.6 1452.9 2119.1 1452.9 2119.1 1460.9 2106.35 1460.9 2106.35 1475.15 2112.35 1475.15 2112.35 1483.15 2106.1 1483.15 2106.1 1516.4 2113.1 1516.4 2113.1 1520.9 2113.6 1520.9 2113.6 1516.4 2116.1 1516.4 2116.1 1515.9 2106.6 1515.9 2106.6 1483.65 2113.35 1483.65 2113.35 1483.15 2112.85 1483.15 2112.85 1475.15 2113.6 1475.15 2113.6 1474.65 2106.85 1474.65 2106.85 1462.15 2119.1 1462.15 2119.1 1472.9 2119.6 1472.9 2119.6 1453.4 2134.1 1453.4 2134.1 1452.9 2132.1 1452.9 2132.1 1446.4 2131.6 1446.4 M2132.85 1508.9 L2138.6 1508.9 2138.6 1516.4 2130.6 1516.4 2130.6 1515.9 2138.1 1515.9 2138.1 1509.4 2132.85 1509.4 2132.85 1508.9" fill="#8d8d8d" fill-rule="evenodd" stroke="none"/>
    </g>
    <g id="shape28" transform="matrix(1.0, 0.0, 0.0, 1.0, -2114.6, -1348.4)">
      <path d="M2283.1 1360.9 L2291.35 1360.9 2291.35 1361.4 2283.1 1361.4 2283.1 1360.9 M2293.1 1348.4 L2300.1 1348.4 2300.1 1361.4 2292.85 1361.4 2292.85 1360.9 2299.6 1360.9 2299.6 1348.9 2293.1 1348.9 2293.1 1348.4 M2283.1 1348.4 L2291.35 1348.4 2291.35 1348.9 2283.1 1348.9 2283.1 1348.4 M2274.35 1348.4 L2281.6 1348.4 2281.6 1348.9 2274.85 1348.9 2274.85 1360.9 2281.6 1360.9 2281.6 1361.4 2274.35 1361.4 2274.35 1348.4 M2299.35 1365.4 L2299.35 1365.9 2304.1 1365.9 2304.1 1373.15 2304.6 1373.15 2304.6 1362.9 2304.1 1362.9 2304.1 1365.4 2299.35 1365.4 M2278.85 1365.4 L2297.85 1365.4 2297.85 1365.9 2289.1 1365.9 2289.1 1370.4 2288.6 1370.4 2288.6 1365.9 2278.85 1365.9 2278.85 1365.4 M2269.6 1360.9 L2269.6 1361.4 2270.6 1361.4 2270.6 1356.15 2270.1 1356.15 2270.1 1360.9 2269.6 1360.9 M2270.1 1353.65 L2270.1 1348.9 2269.6 1348.9 2269.6 1348.4 2270.6 1348.4 2270.6 1353.65 2270.1 1353.65 M2147.6 1483.15 L2147.6 1483.9 2146.85 1483.9 2146.85 1483.15 2147.6 1483.15 M2124.35 1483.9 L2123.6 1483.9 2123.6 1483.15 2124.35 1483.15 2124.35 1483.9 M2146.6 1469.9 L2147.6 1469.9 2147.6 1470.9 2146.6 1470.9 2146.6 1469.9 M2123.35 1469.9 L2123.35 1470.9 2124.35 1470.9 2124.35 1469.9 2123.35 1469.9 M2144.1 1456.15 L2144.85 1456.15 2144.85 1456.9 2144.1 1456.9 2144.1 1456.15 M2126.6 1456.15 L2126.6 1456.9 2127.35 1456.9 2127.35 1456.15 2126.6 1456.15 M2114.6 1474.65 L2119.1 1474.65 2119.1 1473.9 2119.6 1473.9 2119.6 1475.15 2114.6 1475.15 2114.6 1474.65 M2129.1 1467.65 L2129.1 1469.15 2142.1 1469.15 2142.1 1467.65 2141.35 1467.65 2141.35 1468.65 2129.85 1468.65 2129.85 1467.65 2129.1 1467.65 M2148.6 1496.15 L2134.85 1496.15 2134.85 1495.65 2137.6 1495.65 2137.6 1490.9 2138.1 1490.9 2138.1 1495.65 2148.6 1495.65 2148.6 1488.4 2138.1 1488.4 2138.1 1489.65 2137.6 1489.65 2137.6 1488.4 2129.1 1488.4 2129.1 1493.9 2128.6 1493.9 2128.6 1487.9 2149.35 1487.9 2149.35 1503.9 2137.35 1503.9 2137.35 1503.4 2148.6 1503.4 2148.6 1496.15" fill="#8d8d8d" fill-rule="evenodd" stroke="none"/>
    </g>
    <g id="shape29" transform="matrix(1.0, 0.0, 0.0, 1.0, -2261.1, -1331.65)">
      <path d="M2267.1 1361.4 L2267.1 1360.9 2262.6 1360.9 2262.6 1356.9 2261.6 1356.9 2261.6 1355.9 2261.1 1355.9 2261.1 1357.4 2262.1 1357.4 2262.1 1361.4 2265.85 1361.4 2265.85 1378.15 2292.85 1378.15 2292.85 1377.65 2289.1 1377.65 2289.1 1372.9 2288.6 1372.9 2288.6 1377.65 2273.85 1377.65 2273.85 1365.9 2277.35 1365.9 2277.35 1365.4 2273.35 1365.4 2273.35 1377.65 2266.35 1377.65 2266.35 1368.15 2269.6 1368.15 2269.6 1372.65 2270.1 1372.65 2270.1 1365.15 2266.35 1365.15 2266.35 1361.4 2267.1 1361.4 M2291.85 1332.15 L2304.1 1332.15 2304.1 1344.15 2299.35 1344.15 2299.35 1344.65 2304.1 1344.65 2304.1 1346.65 2304.6 1346.65 2304.6 1332.15 2314.6 1332.15 2314.6 1334.65 2315.1 1334.65 2315.1 1331.65 2291.85 1331.65 2291.85 1332.15 M2278.85 1344.15 L2288.6 1344.15 2288.6 1343.15 2289.1 1343.15 2289.1 1344.15 2297.85 1344.15 2297.85 1344.65 2278.85 1344.65 2278.85 1344.15 M2314.6 1336.15 L2315.1 1336.15 2315.1 1378.15 2294.6 1378.15 2294.6 1377.65 2304.1 1377.65 2304.1 1376.15 2304.6 1376.15 2304.6 1377.65 2314.6 1377.65 2314.6 1370.4 2308.35 1370.4 2308.35 1369.9 2314.6 1369.9 2314.6 1358.9 2304.6 1358.9 2304.6 1361.4 2304.1 1361.4 2304.1 1358.4 2314.6 1358.4 2314.6 1351.65 2306.85 1351.65 2306.85 1354.65 2311.35 1354.65 2311.35 1355.15 2304.1 1355.15 2304.1 1348.4 2304.6 1348.4 2304.6 1351.15 2314.6 1351.15 2314.6 1336.15 M2290.1 1331.65 L2265.85 1331.65 2265.85 1348.4 2262.1 1348.4 2262.1 1352.4 2261.1 1352.4 2261.1 1353.9 2261.6 1353.9 2261.6 1352.9 2262.6 1352.9 2262.6 1348.9 2267.1 1348.9 2267.1 1348.4 2266.35 1348.4 2266.35 1344.65 2270.1 1344.65 2270.1 1337.15 2269.6 1337.15 2269.6 1341.65 2266.35 1341.65 2266.35 1332.15 2273.35 1332.15 2273.35 1344.65 2277.35 1344.65 2277.35 1344.15 2273.85 1344.15 2273.85 1332.15 2288.6 1332.15 2288.6 1333.9 2289.1 1333.9 2289.1 1332.15 2290.1 1332.15 2290.1 1331.65" fill="#8d8d8d" fill-rule="evenodd" stroke="none"/>
    </g>
    <g id="shape30" transform="matrix(1.0, 0.0, 0.0, 1.0, -2153.95, -1325.2)">
      <path d="M2158.15 1325.2 L2155.8 1325.2 2156.15 1325.65 2157.8 1325.65 2159.55 1327.3 2159.55 1329.1 2157.8 1330.8 2156.15 1330.8 2154.4 1329.1 2154.4 1327.3 2156.15 1325.65 2155.8 1325.2 2153.95 1327.05 2153.95 1329.4 2155.8 1331.25 2158.15 1331.25 2160.0 1329.4 2160.0 1327.05 2158.15 1325.2" fill="#666666" fill-rule="evenodd" stroke="none"/>
    </g>
  </defs>
</svg>
