<?xml version="1.0" encoding="UTF-8" standalone="no"?>
<svg xmlns:xlink="http://www.w3.org/1999/xlink" height="569.65px" width="655.0px" xmlns="http://www.w3.org/2000/svg">
  <g transform="matrix(1.0, 0.0, 0.0, 1.0, -65.25, -15.5)">
    <use height="569.55" transform="matrix(1.0, 0.0, 0.0, 1.0, 65.85, 15.55)" width="654.25" xlink:href="#shape0"/>
    <use height="363.85" transform="matrix(1.0, 0.0, 0.0, 1.0, 65.25, 221.3)" width="323.55" xlink:href="#shape1"/>
    <use height="442.7" transform="matrix(1.0, 0.0, 0.0, 1.0, 157.9, 15.5)" width="562.35" xlink:href="#shape2"/>
    <use height="87.2" transform="matrix(1.0, 0.0, 0.0, 1.0, 351.15, 238.65)" width="38.95" xlink:href="#shape3"/>
    <use height="165.8" transform="matrix(1.0, 0.0, 0.0, 1.0, 344.35, 231.8)" width="128.1" xlink:href="#shape4"/>
    <use height="3.7" transform="matrix(1.0, 0.0, 0.0, 1.0, 383.65, 302.45)" width="5.2" xlink:href="#shape5"/>
    <use height="79.55" transform="matrix(1.0, 0.0, 0.0, 1.0, 344.3, 227.35)" width="96.15" xlink:href="#shape6"/>
    <use height="95.55" transform="matrix(1.0, 0.0, 0.0, 1.0, 318.8, 310.35)" width="130.0" xlink:href="#shape7"/>
    <use height="53.2" transform="matrix(1.0, 0.0, 0.0, 1.0, 334.0, 280.9)" width="104.7" xlink:href="#shape8"/>
    <use height="69.65" transform="matrix(1.0, 0.0, 0.0, 1.0, 343.6, 231.05)" width="76.55" xlink:href="#shape9"/>
    <use height="390.35" transform="matrix(1.0, 0.0, 0.0, 1.0, 196.9, 15.55)" width="509.2" xlink:href="#shape10"/>
    <use height="327.3" transform="matrix(1.0, 0.0, 0.0, 1.0, 326.2, 15.55)" width="146.4" xlink:href="#shape11"/>
    <use height="36.6" transform="matrix(1.0, 0.0, 0.0, 1.0, 431.45, 299.65)" width="22.45" xlink:href="#shape12"/>
    <use height="24.55" transform="matrix(1.0, 0.0, 0.0, 1.0, 429.0, 308.15)" width="24.35" xlink:href="#shape13"/>
    <use height="11.15" transform="matrix(1.0, 0.0, 0.0, 1.0, 424.2, 317.85)" width="12.55" xlink:href="#shape14"/>
    <use height="161.7" transform="matrix(1.0, 0.0, 0.0, 1.0, 319.2, 244.15)" width="129.25" xlink:href="#shape15"/>
    <use height="137.7" transform="matrix(1.0, 0.0, 0.0, 1.0, 322.7, 267.85)" width="122.1" xlink:href="#shape16"/>
    <use height="98.15" transform="matrix(1.0, 0.0, 0.0, 1.0, 346.95, 242.0)" width="62.4" xlink:href="#shape17"/>
    <use height="108.65" transform="matrix(1.0, 0.0, 0.0, 1.0, 318.85, 271.2)" width="129.9" xlink:href="#shape18"/>
    <use height="114.7" transform="matrix(1.0, 0.0, 0.0, 1.0, 342.35, 269.95)" width="83.45" xlink:href="#shape19"/>
    <use height="47.9" transform="matrix(1.0, 0.0, 0.0, 1.0, 365.0, 358.0)" width="37.8" xlink:href="#shape20"/>
    <use height="46.7" transform="matrix(1.0, 0.0, 0.0, 1.0, 345.7, 359.2)" width="40.3" xlink:href="#shape21"/>
    <use height="20.7" transform="matrix(1.0, 0.0, 0.0, 1.0, 340.75, 350.55)" width="22.25" xlink:href="#shape22"/>
    <use height="36.9" transform="matrix(1.0, 0.0, 0.0, 1.0, 322.35, 339.25)" width="104.25" xlink:href="#shape23"/>
    <use height="28.65" transform="matrix(1.0, 0.0, 0.0, 1.0, 330.85, 339.25)" width="114.35" xlink:href="#shape24"/>
    <use height="55.95" transform="matrix(1.0, 0.0, 0.0, 1.0, 334.0, 302.6)" width="103.1" xlink:href="#shape25"/>
    <use height="20.85" transform="matrix(1.0, 0.0, 0.0, 1.0, 344.1, 311.3)" width="17.9" xlink:href="#shape26"/>
    <use height="22.45" transform="matrix(1.0, 0.0, 0.0, 1.0, 357.2, 313.25)" width="60.25" xlink:href="#shape27"/>
    <use height="52.8" transform="matrix(1.0, 0.0, 0.0, 1.0, 408.3, 291.9)" width="25.45" xlink:href="#shape28"/>
    <use height="41.0" transform="matrix(1.0, 0.0, 0.0, 1.0, 334.05, 284.1)" width="85.2" xlink:href="#shape29"/>
    <use height="58.05" transform="matrix(1.0, 0.0, 0.0, 1.0, 343.7, 251.0)" width="24.75" xlink:href="#shape30"/>
    <use height="97.0" transform="matrix(1.0, 0.0, 0.0, 1.0, 343.95, 229.55)" width="79.45" xlink:href="#shape31"/>
    <use height="112.95" transform="matrix(1.0, 0.0, 0.0, 1.0, 362.4, 289.05)" width="81.1" xlink:href="#shape32"/>
    <use height="238.0" transform="matrix(1.0, 0.0, 0.0, 1.0, 363.4, 164.0)" width="171.55" xlink:href="#shape33"/>
  </g>
  <defs>
    <g id="shape0" transform="matrix(1.0, 0.0, 0.0, 1.0, -65.85, -15.55)">
      <path d="M65.85 15.75 L65.85 15.7 65.85 584.9 720.1 585.1 720.1 15.55 65.85 15.75" fill="#d2d2d2" fill-rule="evenodd" stroke="none"/>
    </g>
    <g id="shape1" transform="matrix(1.0, 0.0, 0.0, 1.0, -65.25, -221.3)">
      <path d="M383.55 281.45 L383.5 281.4 383.5 286.35 382.8 287.05 382.8 288.45 383.5 289.15 383.5 299.4 385.25 301.15 385.25 306.8 379.4 312.65 379.4 325.75 379.6 325.95 388.1 325.95 388.8 325.25 388.8 312.85 386.7 310.75 386.7 303.7 387.95 302.45 387.95 301.75 384.95 298.75 384.95 289.9 386.0 288.85 386.0 283.2 388.65 280.55 387.05 278.95 381.05 278.95 383.55 281.45 M345.0 221.35 L345.05 221.3 346.45 233.3 350.85 247.6 357.55 240.9 361.1 240.9 367.1 245.15 363.55 251.85 354.35 255.05 355.95 271.5 333.5 293.95 324.65 296.45 316.5 303.85 311.9 357.25 366.0 410.3 383.5 413.3 384.2 461.4 384.2 585.15 65.8 584.95 65.25 406.95 206.3 405.55 221.7 390.55 238.85 391.1 264.15 366.15 264.35 333.1 277.1 318.6 276.05 299.15 307.0 267.85 320.1 267.85 328.4 259.9 328.75 221.35 345.0 221.35" fill="#1a1a1a" fill-rule="evenodd" stroke="none"/>
    </g>
    <g id="shape2" transform="matrix(1.0, 0.0, 0.0, 1.0, -157.9, -15.5)">
      <path d="M403.35 458.2 L402.7 457.8 420.05 442.6 430.65 442.6 460.35 411.5 460.15 392.95 475.0 377.75 475.0 350.55 480.3 344.2 480.3 314.85 478.2 313.1 478.2 308.5 469.9 300.2 466.0 300.2 463.15 297.35 443.0 297.35 438.05 292.4 435.55 292.4 434.85 293.1 440.5 298.75 440.5 306.9 439.1 305.5 439.1 301.25 431.15 293.3 428.3 293.3 415.05 298.05 411.5 301.6 411.5 324.95 420.5 333.95 426.5 333.95 431.8 336.45 447.2 324.6 445.8 308.35 446.0 303.95 447.75 303.95 451.3 307.5 451.3 328.35 444.25 335.4 444.25 341.05 405.35 379.95 362.9 379.95 325.95 343.35 325.95 322.85 321.55 318.1 321.55 305.0 328.8 297.75 334.1 297.75 362.55 269.65 344.15 251.25 350.85 231.1 348.35 215.2 435.7 218.75 450.2 230.75 444.55 236.4 436.4 236.4 432.35 240.45 404.05 240.45 398.75 235.15 394.85 235.15 389.35 229.65 385.45 229.65 376.45 238.65 376.45 239.35 377.0 239.9 377.7 239.9 385.5 232.1 389.05 232.1 394.35 237.4 396.85 237.4 405.35 245.9 412.05 245.9 429.55 263.4 429.55 271.55 432.75 274.75 432.75 278.65 438.4 284.3 447.6 284.3 453.6 290.3 467.75 290.3 466.15 288.7 458.0 288.7 453.75 284.1 452.35 284.1 448.3 280.05 445.45 280.05 441.9 276.85 441.9 267.65 439.8 265.55 439.8 257.4 451.65 245.55 462.1 245.35 474.3 233.15 492.0 233.15 532.85 192.3 550.55 192.3 591.2 151.65 661.9 151.65 720.25 93.3 720.25 15.5 157.9 15.7 157.9 29.85 214.65 86.6 214.65 121.6 267.5 174.45 267.5 196.7 304.8 234.0 332.0 234.0 336.6 238.6 341.2 238.6 343.85 241.25 343.85 251.15 350.55 257.5 350.55 268.45 332.7 286.3 322.1 286.3 304.4 304.35 304.2 329.65 298.0 336.55 297.8 367.15 311.05 380.4 311.4 398.8 341.8 428.15 342.35 437.5 364.45 457.85 403.35 458.2" fill="#404040" fill-rule="evenodd" stroke="none"/>
    </g>
    <g id="shape3" transform="matrix(1.0, 0.0, 0.0, 1.0, -351.15, -238.65)">
      <path d="M363.75 238.65 L363.7 238.65 356.65 238.65 351.5 243.8 351.85 246.65 357.5 241.0 361.05 241.0 364.95 244.9 364.95 248.45 361.05 252.35 357.5 252.35 353.6 248.45 353.6 244.9 351.85 246.65 351.5 248.75 351.15 249.1 357.7 255.65 360.55 255.65 369.05 247.15 371.9 250.0 372.25 249.65 369.4 246.8 369.4 244.3 363.75 238.65 M383.35 282.3 L383.4 282.2 383.4 285.4 382.5 286.3 382.5 288.4 383.4 289.3 383.4 299.55 385.15 301.3 385.15 306.25 379.15 312.25 379.15 316.5 377.9 317.75 377.9 324.1 379.65 325.85 379.65 318.45 380.7 317.4 380.7 311.75 385.65 306.8 385.65 301.15 383.7 299.2 383.7 290.7 384.6 290.9 384.6 298.7 387.45 301.55 387.45 302.6 386.4 303.65 386.4 311.05 388.35 313.0 388.35 325.75 390.1 324.0 390.1 312.7 386.9 309.5 386.9 303.85 388.15 302.6 388.15 301.55 385.15 298.55 385.15 290.05 386.2 289.0 386.2 284.4 389.4 281.2 388.15 279.95 385.65 282.45 385.65 288.8 384.6 289.85 384.6 290.2 383.7 290.4 383.7 289.0 383.0 288.3 383.0 287.25 383.7 286.55 383.7 281.25 381.4 278.95 380.7 278.95 380.35 279.3 383.35 282.3" fill="#404040" fill-rule="evenodd" stroke="none"/>
    </g>
    <g id="shape4" transform="matrix(1.0, 0.0, 0.0, 1.0, -344.35, -231.8)">
      <path d="M349.05 239.2 L349.15 239.25 350.55 240.65 355.15 236.05 350.9 231.8 344.35 238.35 344.35 251.1 346.45 253.2 346.45 239.05 350.15 235.35 351.55 236.75 349.05 239.2 M424.2 326.0 L424.1 326.15 432.25 318.0 436.65 322.4 435.95 323.1 438.45 325.55 441.3 322.7 438.85 320.2 438.15 320.9 433.75 316.5 436.05 314.2 436.05 312.45 431.45 307.85 431.45 303.25 435.0 299.7 433.4 298.1 429.35 302.15 429.35 308.85 433.75 313.25 422.6 324.4 424.2 326.0 M385.5 291.15 L382.65 291.15 382.65 290.1 385.5 290.1 385.5 291.15 M460.1 303.9 L460.05 303.9 463.6 303.9 472.45 312.75 472.45 337.5 463.6 346.35 463.6 364.05 440.6 387.0 437.05 387.0 426.45 397.6 419.4 397.6 419.4 394.05 453.0 360.5 453.0 342.8 456.55 342.8 459.75 320.15 460.1 303.9" fill="#d9d9d9" fill-rule="evenodd" stroke="none"/>
    </g>
    <g id="shape5" transform="matrix(1.0, 0.0, 0.0, 1.0, -383.65, -302.45)">
      <path d="M383.7 304.95 L383.65 305.25 388.4 306.15 388.45 305.85 383.7 304.95 M384.1 302.45 L384.05 302.5 388.85 303.4 388.8 303.75 384.05 302.85 384.1 302.45" fill="#8d8d8d" fill-rule="evenodd" stroke="none"/>
    </g>
    <g id="shape6" transform="matrix(1.0, 0.0, 0.0, 1.0, -344.3, -227.35)">
      <path d="M405.45 235.85 L405.45 240.45 424.9 240.45 424.9 235.85 405.45 235.85 M389.35 229.65 L394.3 234.6 396.6 232.3 391.65 227.35 389.35 229.65 M383.0 227.5 L383.05 227.45 374.2 236.3 376.5 238.6 385.5 229.6 383.0 227.5 M383.9 233.7 L386.0 235.8 379.8 242.0 377.7 239.9 383.9 233.7 M396.8 237.4 L405.3 245.9 400.7 250.5 392.2 242.0 396.8 237.4 M434.8 293.1 L440.45 298.75 440.45 306.9 439.05 305.5 439.05 301.25 432.85 295.05 434.8 293.1 M346.4 246.1 L346.4 250.0 344.3 250.0 344.3 246.1 346.4 246.1 M346.4 239.0 L346.4 243.6 344.3 243.6 344.3 239.0 346.4 239.0 M348.7 233.9 L348.75 233.9 350.15 235.3 347.65 237.8 346.25 236.4 348.7 233.9 M351.55 236.7 L351.6 236.65 353.0 238.05 350.5 240.55 349.1 239.15 351.55 236.7 M388.85 303.7 L388.5 305.8 383.75 304.9 384.1 302.8 388.85 303.7" fill="#f0f0f0" fill-rule="evenodd" stroke="none"/>
    </g>
    <g id="shape7" transform="matrix(1.0, 0.0, 0.0, 1.0, -318.8, -310.35)">
      <path d="M344.1 344.2 L344.1 344.15 354.55 333.7 358.45 337.6 355.25 340.8 372.4 357.95 380.9 357.95 380.9 349.45 370.3 349.45 354.55 333.7 367.8 320.45 360.9 313.55 364.1 310.35 379.65 325.9 388.15 325.9 396.8 317.25 410.25 330.7 417.15 323.8 420.15 326.8 397.5 349.45 386.9 349.45 386.9 357.95 395.4 357.95 412.55 340.8 409.35 337.6 413.25 333.7 423.7 344.15 428.65 339.2 448.8 359.35 439.95 368.2 416.45 344.7 410.25 350.9 430.25 370.9 421.4 379.75 401.4 359.75 397.5 363.65 386.9 363.65 386.9 384.85 388.65 384.85 392.0 388.2 392.0 402.35 388.45 405.9 386.35 405.9 386.35 396.0 381.4 396.0 381.4 405.9 379.3 405.9 375.75 402.35 375.75 388.2 379.1 384.85 380.85 384.85 380.85 363.65 370.25 363.65 366.35 359.75 346.2 379.9 337.2 370.9 357.35 350.75 351.35 344.75 327.65 368.45 318.8 359.6 339.15 339.25 344.1 344.2" fill="#8d8d8d" fill-rule="evenodd" stroke="none"/>
    </g>
    <g id="shape8" transform="matrix(1.0, 0.0, 0.0, 1.0, -334.0, -280.9)">
      <path d="M334.05 297.7 L334.0 297.7 338.25 301.95 338.25 309.0 334.0 313.25 354.85 334.1 357.85 331.1 350.8 324.05 364.25 310.6 364.25 300.35 355.95 292.05 358.6 289.4 368.15 298.95 368.15 300.7 368.7 300.5 368.7 298.75 359.0 289.05 350.85 280.9 334.05 297.7 M419.95 283.9 L419.95 283.95 422.95 286.95 423.3 287.3 427.9 291.9 428.25 292.25 438.7 302.7 438.35 303.05 433.4 298.1 429.35 302.15 429.35 308.85 433.75 313.25 422.6 324.4 427.2 329.0 426.85 329.35 422.25 324.75 419.95 327.05 406.7 313.8 399.8 320.7 396.6 317.5 403.5 310.6 403.5 300.35 419.95 283.9" fill="#8d8d8d" fill-rule="evenodd" stroke="none"/>
    </g>
    <g id="shape9" transform="matrix(1.0, 0.0, 0.0, 1.0, -343.6, -231.05)">
      <path d="M386.0 235.85 L385.8 235.8 365.65 255.95 363.55 253.85 360.0 257.4 352.6 250.0 352.6 241.5 350.1 241.5 355.6 236.0 350.65 231.05 343.6 238.1 343.6 251.2 346.25 253.85 346.25 253.15 344.15 251.05 344.15 238.3 350.7 231.75 354.95 236.0 350.35 240.6 348.95 239.2 351.45 236.75 350.05 235.35 346.35 239.05 346.35 253.9 362.1 269.65 350.6 281.15 350.95 281.5 362.45 270.0 376.05 283.6 380.65 279.0 387.0 279.0 391.6 283.6 402.4 272.8 413.7 284.1 399.05 298.75 399.05 300.5 399.6 300.7 399.6 298.95 414.1 284.45 416.95 287.3 420.15 284.1 397.35 261.3 404.4 254.25 386.0 235.85" fill="#8d8d8d" fill-rule="evenodd" stroke="none"/>
    </g>
    <g id="shape10" transform="matrix(1.0, 0.0, 0.0, 1.0, -196.9, -15.55)">
      <path d="M381.75 405.9 L381.75 396.35 386.0 396.35 386.0 405.9 381.75 405.9 M706.0 15.55 L706.1 15.65 610.65 111.1 568.2 111.1 531.1 148.2 531.1 169.4 481.6 218.9 468.5 218.9 455.75 231.65 443.0 231.65 440.15 228.8 432.0 228.8 424.95 235.85 405.5 235.85 401.95 232.3 396.65 232.3 390.8 226.45 384.1 226.45 374.2 236.35 366.05 236.35 359.35 229.65 352.65 229.65 344.0 238.3 343.8 238.1 343.8 217.25 339.2 212.65 320.45 212.65 301.2 193.4 301.2 183.85 285.1 167.75 285.1 153.6 252.4 120.9 252.4 71.05 196.9 15.55 706.0 15.55 M375.25 295.75 L374.35 296.65 374.35 298.05 377.35 301.05 378.75 301.05 379.65 300.15 379.65 298.75 376.65 295.75 375.25 295.75 M391.85 291.85 L390.8 292.9 390.8 295.4 391.85 296.45 395.05 296.45 396.1 295.4 396.1 292.9 395.05 291.85 391.85 291.85" fill="#8d8d8d" fill-rule="evenodd" stroke="none"/>
    </g>
    <g id="shape11" transform="matrix(1.0, 0.0, 0.0, 1.0, -326.2, -15.55)">
      <path d="M460.1 303.9 L460.15 304.0 467.2 311.05 467.2 332.25 456.6 342.85 453.05 342.85 449.5 339.3 449.5 335.75 456.55 328.7 456.55 325.15 453.0 321.6 453.0 307.45 456.55 303.9 460.1 303.9 M449.5 307.4 L449.5 325.05 437.15 337.4 427.95 337.4 426.55 336.0 426.55 333.9 428.3 332.15 433.95 332.15 443.5 322.6 443.5 304.9 444.55 303.85 445.95 303.85 449.5 307.4 M472.45 16.1 L472.4 16.1 472.6 50.95 444.3 79.25 444.3 118.15 403.65 158.8 389.15 158.8 358.2 189.75 341.25 189.75 335.95 195.05 335.95 205.3 337.35 206.7 337.35 214.15 335.75 215.75 335.75 218.6 342.1 224.95 342.1 228.85 341.55 229.4 341.55 239.65 340.15 239.65 340.15 226.55 337.5 223.9 337.5 230.95 338.75 232.2 338.75 239.65 334.85 239.3 334.85 222.0 333.3 223.55 333.3 239.45 328.65 238.4 328.65 229.9 329.9 228.65 329.9 219.8 332.4 217.3 332.4 211.3 329.4 208.3 329.4 203.0 326.2 199.8 326.2 190.25 336.45 180.0 349.2 180.0 366.35 162.85 366.55 153.5 384.25 135.8 384.25 68.6 331.2 15.55 472.45 16.1" fill="#1a1a1a" fill-rule="evenodd" stroke="none"/>
    </g>
    <g id="shape12" transform="matrix(1.0, 0.0, 0.0, 1.0, -431.45, -299.65)">
      <path d="M449.1 310.95 L449.05 310.95 449.05 312.35 453.3 312.35 453.3 310.6 451.9 310.6 452.25 310.25 453.3 310.25 453.3 309.9 451.9 309.9 450.85 310.95 449.1 310.95 M449.1 319.45 L449.1 320.85 453.35 320.85 453.35 319.45 449.1 319.45 M447.9 326.35 L445.95 328.3 450.0 332.35 450.0 336.25 450.7 335.55 450.7 333.45 450.9 333.25 451.95 334.3 453.9 332.35 447.9 326.35 M438.15 320.85 L438.2 320.85 438.9 320.15 439.45 320.7 440.5 319.65 440.5 306.9 436.95 303.35 436.95 301.6 435.0 299.65 431.45 303.2 431.45 307.8 436.05 312.4 436.05 314.15 433.75 316.45 438.15 320.85" fill="#1a1a1a" fill-rule="evenodd" stroke="none"/>
    </g>
    <g id="shape13" transform="matrix(1.0, 0.0, 0.0, 1.0, -429.0, -308.15)">
      <path d="M449.1 318.4 L449.1 319.1 453.35 319.1 453.35 316.65 451.6 318.4 449.1 318.4 M435.5 331.3 L435.55 331.3 434.85 332.0 433.1 330.25 432.75 330.6 432.75 332.7 429.9 332.7 429.9 329.15 429.35 329.7 429.35 332.55 429.0 332.55 429.0 329.35 430.05 328.3 430.05 326.9 431.8 326.9 431.8 327.6 435.5 331.3 M443.3 323.5 L443.35 323.55 442.8 324.1 441.9 323.2 441.2 323.2 440.85 323.55 442.1 324.8 440.5 326.4 439.25 325.15 438.2 326.2 438.2 326.9 438.9 327.6 438.55 327.95 437.65 327.05 437.65 324.6 438.55 325.5 441.4 322.65 440.15 321.4 441.2 321.4 443.3 323.5 M440.1 310.45 L440.1 313.65 444.0 317.55 444.0 314.35 442.6 312.95 442.6 311.9 442.95 311.55 444.0 311.55 444.0 309.05 442.6 310.45 441.9 310.45 444.0 308.35 443.8 308.15 441.5 310.45 440.1 310.45" fill="#1a1a1a" fill-rule="evenodd" stroke="none"/>
    </g>
    <g id="shape14" transform="matrix(1.0, 0.0, 0.0, 1.0, -424.2, -317.85)">
      <path d="M432.35 317.85 L424.2 326.0 427.2 329.0 429.15 327.05 433.05 327.05 436.6 323.5 436.05 322.95 436.75 322.25 432.35 317.85" fill="#1a1a1a" fill-rule="evenodd" stroke="none"/>
    </g>
    <g id="shape15" transform="matrix(1.0, 0.0, 0.0, 1.0, -319.2, -244.15)">
      <path d="M345.9 244.15 L345.9 245.9 346.95 245.55 346.95 244.5 345.9 244.15 M426.3 284.25 L430.9 288.85 427.55 292.2 422.95 287.6 426.3 284.25 M358.45 273.65 L358.5 273.55 362.55 269.5 346.45 253.4 346.45 248.45 366.95 268.95 364.45 271.45 365.0 272.0 362.9 274.5 362.0 275.4 360.75 276.3 360.2 275.4 358.45 273.65 M388.5 385.05 L388.5 385.1 379.3 385.1 376.1 388.3 376.1 402.45 379.3 405.65 381.25 405.85 381.25 395.95 386.55 395.95 386.35 399.65 386.0 399.65 386.0 401.75 386.35 401.75 386.55 405.8 388.5 405.6 391.7 402.4 391.7 388.25 388.5 385.05 M444.9 355.85 L448.45 359.4 439.95 367.9 436.4 364.35 439.95 360.45 441.0 359.4 444.9 355.85 M426.3 367.35 L429.85 370.9 421.35 379.4 417.8 375.85 421.35 371.95 422.4 370.9 426.3 367.35 M322.75 356.05 L326.65 359.6 327.7 360.65 331.25 364.55 327.7 368.1 319.2 359.6 322.75 356.05 M341.1 367.35 L345.0 370.9 346.05 371.95 349.75 376.0 346.2 379.55 337.55 370.9 341.1 367.35" fill="#d9d9d9" fill-rule="evenodd" stroke="none"/>
    </g>
    <g id="shape16" transform="matrix(1.0, 0.0, 0.0, 1.0, -322.7, -267.85)">
      <path d="M382.1 396.7 L382.1 405.55 385.65 405.55 385.65 401.65 386.0 401.65 386.0 399.55 385.65 399.55 385.65 396.7 382.1 396.7 M334.4 313.25 L334.2 313.35 338.45 309.1 338.45 302.05 334.2 297.8 358.25 273.75 360.0 275.5 360.55 276.4 361.8 275.5 362.7 274.6 364.8 272.1 364.25 271.55 367.95 267.85 374.85 275.1 370.1 279.85 373.8 283.55 369.75 287.6 375.95 293.8 379.5 290.25 382.5 293.25 374.0 301.75 379.65 307.4 374.35 312.7 369.4 307.75 365.15 312.0 363.75 310.6 350.3 324.05 357.35 331.1 368.15 320.3 371.7 323.85 354.75 340.8 372.25 358.3 381.1 358.3 381.1 333.55 386.4 333.55 386.4 358.3 395.25 358.3 412.75 340.8 395.95 324.0 399.5 320.45 410.1 331.05 417.15 324.0 398.6 305.45 414.15 289.9 397.2 272.95 400.05 270.1 410.15 280.2 410.85 279.5 413.15 281.8 412.45 282.5 420.05 290.1 422.7 287.45 427.65 292.4 417.2 302.85 419.15 304.8 411.55 312.4 413.3 314.15 416.5 310.95 424.1 318.55 420.75 321.9 422.7 323.85 412.8 333.75 423.6 344.55 428.55 339.6 444.8 355.85 440.9 359.4 439.85 360.45 436.3 364.35 416.3 344.35 409.75 350.9 426.2 367.35 422.3 370.9 421.25 371.95 417.7 375.85 401.25 359.4 397.2 363.45 386.6 363.45 386.6 388.55 384.85 388.2 382.75 388.2 381.0 388.55 381.0 363.45 370.4 363.45 366.35 359.4 349.75 376.0 346.05 371.95 345.0 370.9 341.1 367.35 357.7 350.75 351.35 344.4 331.2 364.55 327.65 360.65 326.6 359.6 322.7 356.05 339.15 339.6 344.1 344.55 354.9 333.75 334.4 313.25" fill="#c0c0c0" fill-rule="evenodd" stroke="none"/>
    </g>
    <g id="shape17" transform="matrix(1.0, 0.0, 0.0, 1.0, -346.95, -242.0)">
      <path d="M352.25 242.0 L346.95 242.0 346.95 247.65 352.25 247.65 352.25 242.0 M403.85 310.6 L403.8 310.65 399.55 314.9 398.85 314.2 396.35 316.7 397.05 317.4 388.05 326.4 379.55 326.4 370.55 317.4 371.25 316.7 368.75 314.2 368.05 314.9 363.8 310.65 361.15 313.3 371.75 323.9 358.3 337.35 360.95 340.0 367.15 333.8 368.05 334.7 370.55 332.2 369.65 331.3 374.25 326.7 377.95 330.4 381.85 330.4 382.05 331.3 385.6 331.3 385.8 330.4 389.7 330.4 393.25 326.85 397.85 331.45 396.95 332.35 399.4 334.85 400.3 333.95 406.5 340.15 409.35 337.3 396.1 324.05 406.7 313.45 403.85 310.6" fill="#c0c0c0" fill-rule="evenodd" stroke="none"/>
    </g>
    <g id="shape18" transform="matrix(1.0, 0.0, 0.0, 1.0, -318.85, -271.2)">
      <path d="M368.7 271.2 L366.4 273.5 366.75 273.85 368.7 271.9 370.8 274.0 370.6 274.2 368.5 272.1 368.15 272.45 370.65 274.95 371.55 274.05 368.7 271.2 M422.95 291.15 L417.1 297.0 416.75 296.65 422.6 290.8 422.95 291.15 M342.35 304.95 L342.35 305.0 342.35 306.05 346.25 306.05 346.25 302.85 345.9 302.85 345.9 304.95 342.35 304.95 M426.5 367.15 L430.2 370.85 421.35 379.7 417.65 376.0 418.0 375.65 421.35 379.0 429.5 370.85 426.15 367.5 426.5 367.15 M445.05 355.7 L448.75 359.4 439.9 368.25 436.2 364.55 436.55 364.2 439.9 367.55 448.05 359.4 444.7 356.05 445.05 355.7 M322.55 355.85 L318.85 359.55 327.7 368.4 331.4 364.7 331.05 364.35 327.7 367.7 319.55 359.55 322.9 356.2 322.55 355.85 M340.95 367.15 L337.25 370.85 346.25 379.85 349.95 376.15 349.6 375.8 346.25 379.15 337.95 370.85 341.3 367.5 340.95 367.15" fill="#8d8d8d" fill-rule="evenodd" stroke="none"/>
    </g>
    <g id="shape19" transform="matrix(1.0, 0.0, 0.0, 1.0, -342.35, -269.95)">
      <path d="M425.8 294.0 L419.95 299.85 417.1 297.0 422.95 291.15 425.8 294.0 M342.35 303.2 L345.9 303.2 345.9 304.95 342.35 304.95 342.35 303.2 M388.85 303.7 L388.5 305.8 383.75 304.9 384.1 302.8 388.85 303.7 M421.2 289.4 L422.6 290.8 421.55 291.85 420.15 290.45 421.2 289.4 M369.95 269.95 L372.8 272.8 371.55 274.05 368.7 271.2 369.95 269.95 M358.6 273.85 L360.2 275.45 356.15 279.5 354.55 277.9 358.6 273.85 M400.15 270.5 L405.8 276.15 403.3 278.65 397.65 273.0 400.15 270.5 M346.25 306.0 L346.25 308.1 342.35 308.1 342.35 306.0 346.25 306.0 M414.65 305.85 L416.25 307.45 411.85 311.85 410.25 310.25 414.65 305.85 M354.7 316.25 L356.3 317.85 352.05 322.1 350.45 320.5 354.7 316.25 M404.55 325.8 L410.2 331.45 407.0 334.65 401.35 329.0 404.55 325.8 M363.2 325.8 L366.4 329.0 360.75 334.65 357.55 331.45 363.2 325.8 M386.35 333.75 L386.35 357.8 381.4 357.8 381.4 333.75 386.35 333.75 M381.4 363.8 L381.4 384.65 386.35 384.65 386.35 363.8 381.4 363.8" fill="#f0f0f0" fill-rule="evenodd" stroke="none"/>
    </g>
    <g id="shape20" transform="matrix(1.0, 0.0, 0.0, 1.0, -365.0, -358.0)">
      <path d="M365.0 358.35 L370.3 363.65 380.9 363.65 380.9 379.9 379.5 379.9 379.5 384.85 379.15 384.85 375.8 388.2 375.8 402.35 379.35 405.9 381.45 405.9 381.45 401.65 381.1 401.65 381.1 405.2 380.9 405.4 379.5 405.4 376.3 402.2 376.3 388.4 379.3 385.4 379.3 388.95 382.85 388.95 382.85 388.25 381.45 388.25 381.45 363.15 370.5 363.15 365.35 358.0 365.0 358.35 M402.8 358.35 L397.5 363.65 386.9 363.65 386.9 379.9 388.3 379.9 388.3 384.85 388.65 384.85 392.0 388.2 392.0 402.35 388.45 405.9 386.35 405.9 386.35 401.65 386.7 401.65 386.7 405.2 386.9 405.4 388.3 405.4 391.5 402.2 391.5 388.4 388.5 385.4 388.5 388.95 384.95 388.95 384.95 388.25 386.35 388.25 386.35 363.15 397.3 363.15 402.45 358.0 402.8 358.35" fill="#8d8d8d" fill-rule="evenodd" stroke="none"/>
    </g>
    <g id="shape21" transform="matrix(1.0, 0.0, 0.0, 1.0, -345.7, -359.2)">
      <path d="M349.75 364.7 L352.6 367.55 352.25 367.9 349.4 365.05 349.75 364.7 M381.75 401.65 L382.1 401.65 382.1 405.55 385.65 405.55 385.65 401.65 386.0 401.65 386.0 405.9 381.75 405.9 381.75 401.65 M366.2 359.2 L366.55 359.55 349.75 376.35 345.7 372.3 346.05 371.95 349.75 375.65 354.9 370.5 353.65 369.25 354.0 368.9 355.25 370.15 360.9 364.5 360.35 363.95 360.7 363.6 361.25 364.15 366.2 359.2" fill="#8d8d8d" fill-rule="evenodd" stroke="none"/>
    </g>
    <g id="shape22" transform="matrix(1.0, 0.0, 0.0, 1.0, -340.75, -350.55)">
      <path d="M360.55 357.8 L362.65 355.7 363.0 356.05 360.9 358.15 360.55 357.8 M344.65 371.25 L340.75 367.35 357.55 350.55 357.9 350.9 352.95 355.85 354.7 357.6 356.65 355.65 357.0 356.0 355.05 357.95 357.7 360.6 359.65 358.65 360.0 359.0 358.05 360.95 358.6 361.5 358.25 361.85 352.6 356.2 346.95 361.85 348.35 363.25 348.0 363.6 346.6 362.2 341.45 367.35 345.0 370.9 344.65 371.25" fill="#8d8d8d" fill-rule="evenodd" stroke="none"/>
    </g>
    <g id="shape23" transform="matrix(1.0, 0.0, 0.0, 1.0, -322.35, -339.25)">
      <path d="M403.5 356.9 L403.4 356.85 416.3 343.95 416.5 344.5 410.15 350.85 426.6 367.3 422.7 371.2 422.35 370.85 425.9 367.3 420.95 362.35 419.7 363.6 419.35 363.25 420.6 362.0 414.95 356.35 409.45 361.85 409.1 361.5 409.65 360.95 407.9 359.2 408.25 358.85 410.0 360.6 412.65 357.95 410.7 356.0 411.05 355.65 413.0 357.6 414.6 356.0 409.85 351.25 405.25 355.85 407.35 357.95 407.0 358.3 404.9 356.2 403.85 357.25 403.5 356.9 M401.55 359.2 L406.5 364.15 407.05 363.6 407.4 363.95 406.85 364.5 412.5 370.15 413.75 368.9 414.1 369.25 412.85 370.5 417.8 375.45 421.35 371.9 421.7 372.25 417.8 376.15 401.2 359.55 401.55 359.2 M326.25 359.95 L322.35 356.05 339.15 339.25 345.7 345.8 345.35 346.15 344.1 344.9 342.15 346.85 341.8 346.5 343.75 344.55 339.15 339.95 334.55 344.55 336.15 346.15 338.1 344.2 338.45 344.55 336.5 346.5 339.15 349.15 340.9 347.4 341.25 347.75 339.5 349.5 340.05 350.05 339.7 350.4 334.2 344.9 328.55 350.55 329.8 351.8 329.45 352.15 328.2 350.9 323.05 356.05 326.6 359.6 326.25 359.95 M364.25 356.9 L351.35 344.0 347.65 347.7 346.6 346.65 346.25 347.0 347.3 348.05 342.7 352.65 342.15 352.1 341.8 352.45 342.35 353.0 336.7 358.65 335.65 357.6 335.3 357.95 336.35 359.0 331.2 364.15 327.65 360.6 327.3 360.95 331.2 364.85 351.35 344.7 363.9 357.25 364.25 356.9" fill="#8d8d8d" fill-rule="evenodd" stroke="none"/>
    </g>
    <g id="shape24" transform="matrix(1.0, 0.0, 0.0, 1.0, -330.85, -339.25)">
      <path d="M416.4 344.0 L416.4 343.95 416.2 344.5 436.35 364.65 440.25 360.75 439.9 360.4 436.35 363.95 431.4 359.0 432.45 357.95 432.1 357.6 431.05 358.65 425.4 353.0 425.95 352.45 425.6 352.1 425.05 352.65 420.45 348.05 421.7 346.8 421.35 346.45 420.1 347.7 416.4 344.0 M422.25 345.6 L428.6 339.25 445.2 355.85 441.3 359.75 440.95 359.4 444.5 355.85 439.55 350.9 438.5 351.95 438.15 351.6 439.2 350.55 433.55 344.9 428.05 350.4 427.7 350.05 428.25 349.5 426.5 347.75 426.85 347.4 428.6 349.15 431.25 346.5 429.3 344.55 429.65 344.2 431.6 346.15 433.2 344.55 428.6 339.95 424.0 344.55 425.95 346.5 425.6 346.85 423.65 344.9 422.6 345.95 422.25 345.6 M330.85 353.55 L333.85 356.55 334.2 356.2 331.2 353.2 330.85 353.55 M418.0 364.7 L418.35 365.05 415.5 367.9 415.15 367.55 418.0 364.7" fill="#8d8d8d" fill-rule="evenodd" stroke="none"/>
    </g>
    <g id="shape25" transform="matrix(1.0, 0.0, 0.0, 1.0, -334.0, -302.6)">
      <path d="M343.95 344.35 L343.9 344.3 354.5 333.7 334.0 313.2 338.25 308.95 338.25 302.6 347.1 302.6 347.3 303.15 338.8 303.15 338.8 308.1 350.1 308.1 350.1 304.9 350.45 304.9 350.45 305.25 355.6 310.4 357.0 309.0 359.5 311.5 359.15 311.85 357.05 309.75 355.65 311.15 353.0 308.5 348.4 308.5 347.7 309.2 348.4 309.9 348.05 310.25 347.35 309.55 341.5 315.4 341.15 315.05 342.75 313.45 338.7 309.4 334.8 313.3 338.85 317.35 340.25 315.95 340.6 316.3 339.2 317.7 347.85 326.35 348.55 325.65 348.9 326.0 348.2 326.7 354.9 333.4 355.6 332.7 355.95 333.05 344.3 344.7 343.95 344.35 M385.5 330.05 L385.65 330.1 389.9 330.1 393.45 326.55 398.4 331.5 397.5 332.4 399.6 334.5 400.5 333.6 406.7 339.8 409.2 337.3 408.5 336.6 408.85 336.25 413.45 340.85 395.75 358.55 386.55 358.55 386.55 333.8 381.6 333.8 381.6 358.55 372.4 358.55 354.7 340.85 359.3 336.25 359.65 336.6 358.95 337.3 361.25 339.6 367.45 333.4 368.35 334.3 370.45 332.2 369.55 331.3 374.5 326.35 378.2 330.05 382.45 330.05 382.45 331.1 385.65 331.1 386.2 331.65 381.95 331.65 381.95 330.6 378.05 330.6 374.5 327.05 370.25 331.3 371.15 332.2 368.3 335.05 367.4 334.15 361.2 340.35 358.55 337.7 355.35 340.9 372.5 358.05 381.0 358.05 381.0 333.3 387.0 333.3 387.0 358.05 395.5 358.05 412.65 340.9 409.45 337.7 406.6 340.55 400.4 334.35 399.5 335.25 396.65 332.4 397.55 331.5 393.3 327.25 389.95 330.6 386.05 330.6 386.05 331.65 385.5 331.1 385.5 330.05 M437.1 353.4 L433.9 356.6 433.55 356.25 436.75 353.05 437.1 353.4" fill="#8d8d8d" fill-rule="evenodd" stroke="none"/>
    </g>
    <g id="shape26" transform="matrix(1.0, 0.0, 0.0, 1.0, -344.1, -311.3)">
      <path d="M344.45 316.95 L346.4 318.9 349.4 315.9 349.75 316.25 346.75 319.25 347.3 319.8 346.95 320.15 344.1 317.3 344.45 316.95 M349.75 311.3 L352.75 314.3 352.4 314.65 349.4 311.65 349.75 311.3 M357.9 331.1 L356.85 332.15 356.5 331.8 357.2 331.1 350.5 324.4 349.8 325.1 349.45 324.75 351.75 322.45 349.8 320.5 354.05 316.25 353.7 315.9 354.05 315.55 354.75 316.25 350.5 320.5 352.1 322.1 360.75 313.45 360.05 312.75 360.4 312.4 361.1 313.1 361.65 312.55 362.0 312.9 350.85 324.05 357.9 331.1" fill="#8d8d8d" fill-rule="evenodd" stroke="none"/>
    </g>
    <g id="shape27" transform="matrix(1.0, 0.0, 0.0, 1.0, -357.2, -313.25)">
      <path d="M406.85 313.6 L399.95 320.5 410.2 330.75 417.1 323.85 417.45 324.2 410.55 331.1 411.25 331.8 410.9 332.15 404.55 325.8 401.35 329.0 407.7 335.35 407.35 335.7 395.7 324.05 406.5 313.25 406.85 313.6 M361.25 313.25 L372.05 324.05 360.4 335.7 360.05 335.35 366.4 329.0 363.2 325.8 357.9 331.1 357.2 331.1 367.8 320.5 360.9 313.6 361.25 313.25" fill="#8d8d8d" fill-rule="evenodd" stroke="none"/>
    </g>
    <g id="shape28" transform="matrix(1.0, 0.0, 0.0, 1.0, -408.3, -291.9)">
      <path d="M419.25 325.65 L419.95 326.35 422.45 323.85 419.8 321.2 420.15 320.85 420.85 321.55 423.85 318.55 416.6 311.3 413.6 314.3 414.3 315.0 413.95 315.35 409.55 310.95 408.65 311.85 408.3 311.5 415.2 304.6 415.55 304.95 410.25 310.25 411.85 311.85 418.9 304.8 417.3 303.2 416.4 304.1 416.05 303.75 417.65 302.15 416.95 301.45 417.3 301.1 418.0 301.8 427.9 291.9 433.75 297.75 429.35 302.15 429.35 308.85 433.75 313.25 413.25 333.75 423.85 344.35 423.5 344.7 411.85 333.05 412.2 332.7 412.9 333.4 419.6 326.7 418.9 326.0 419.25 325.65" fill="#8d8d8d" fill-rule="evenodd" stroke="none"/>
    </g>
    <g id="shape29" transform="matrix(1.0, 0.0, 0.0, 1.0, -334.05, -284.1)">
      <path d="M338.3 301.95 L338.3 301.9 338.3 302.95 338.85 302.75 338.85 301.7 338.5 301.35 339.9 299.95 339.55 299.6 338.15 301.0 334.8 297.65 338.85 293.6 342.2 296.95 340.45 298.7 340.8 299.05 344.5 295.35 344.15 295.0 342.55 296.6 339.2 293.25 343.25 289.2 346.6 292.55 345.0 294.15 345.35 294.5 347.3 292.55 343.6 288.85 348.0 284.45 347.65 284.1 334.05 297.7 338.3 301.95 M418.35 324.75 L407.05 313.45 407.75 312.75 407.4 312.4 406.7 313.1 406.15 312.55 405.8 312.9 418.0 325.1 418.35 324.75 M415.2 315.9 L419.25 319.95 418.9 320.3 414.85 316.25 415.2 315.9" fill="#8d8d8d" fill-rule="evenodd" stroke="none"/>
    </g>
    <g id="shape30" transform="matrix(1.0, 0.0, 0.0, 1.0, -343.7, -251.0)">
      <path d="M361.6 295.6 L361.6 295.5 361.95 295.85 360.0 297.8 360.9 298.7 362.3 297.3 362.65 297.65 361.25 299.05 362.15 299.95 363.55 298.55 363.9 298.9 362.5 300.3 363.4 301.2 364.8 299.8 365.15 300.15 363.75 301.55 364.65 302.45 366.05 301.05 366.4 301.4 365.0 302.8 365.9 303.7 367.3 302.3 367.65 302.65 367.1 303.2 367.65 303.75 367.3 304.1 366.75 303.55 365.85 304.45 364.25 302.85 360.35 306.75 362.3 308.7 361.95 309.05 356.8 303.9 357.15 303.55 360.0 306.4 363.9 302.5 359.65 298.25 357.0 300.9 356.65 300.55 360.2 297.0 359.5 296.3 359.85 295.95 360.55 296.65 361.6 295.6 M348.55 302.65 L348.55 302.6 349.95 302.6 349.95 301.55 357.35 294.15 347.45 284.25 362.1 269.6 343.7 251.2 344.25 251.0 362.8 269.55 354.5 277.85 356.1 279.45 360.15 275.4 360.7 275.95 361.6 275.05 361.95 275.4 361.05 276.3 368.45 283.7 364.9 287.25 364.2 286.55 362.25 288.5 362.95 289.2 359.95 292.2 359.6 291.85 362.25 289.2 361.2 288.15 362.6 286.75 360.5 284.65 359.1 286.05 358.55 285.5 359.95 284.1 357.85 282.0 356.45 283.4 355.9 282.85 357.3 281.45 355.2 279.35 353.8 280.75 352.75 279.7 348.15 284.3 357.7 293.85 358.75 292.8 359.1 293.15 358.05 294.2 358.95 295.1 358.6 295.45 357.7 294.55 350.45 301.8 350.45 303.9 350.1 303.9 350.1 303.2 348.35 303.2 348.55 302.65" fill="#8d8d8d" fill-rule="evenodd" stroke="none"/>
    </g>
    <g id="shape31" transform="matrix(1.0, 0.0, 0.0, 1.0, -343.95, -229.55)">
      <path d="M368.5 304.6 L368.35 304.65 369.05 305.35 369.6 304.8 369.95 305.15 368.55 306.55 369.45 307.45 370.85 306.05 371.2 306.4 369.8 307.8 370.7 308.7 372.1 307.3 372.45 307.65 371.05 309.05 371.95 309.95 373.35 308.55 373.7 308.9 372.3 310.3 373.2 311.2 374.6 309.8 374.95 310.15 373.55 311.55 374.45 312.45 379.4 307.5 378.5 306.6 377.1 308.0 376.75 307.65 378.15 306.25 377.25 305.35 375.85 306.75 375.5 306.4 376.9 305.0 376.0 304.1 374.6 305.5 374.25 305.15 375.65 303.75 374.75 302.85 373.35 304.25 373.0 303.9 374.4 302.5 373.5 301.6 372.1 303.0 371.75 302.65 372.65 301.75 371.95 301.05 372.3 300.7 373.0 301.4 373.55 300.85 374.1 301.4 378.7 296.8 377.45 295.55 377.8 295.2 379.05 296.45 382.25 293.25 379.6 290.6 376.4 293.8 376.95 294.35 376.6 294.7 369.9 288.0 369.35 288.55 369.0 288.2 373.6 283.6 369.9 279.9 371.15 278.65 370.25 277.75 370.6 277.4 371.5 278.3 374.85 274.95 368.15 268.25 364.8 271.6 369.75 276.55 369.4 276.9 368.5 276.0 367.25 277.25 363.7 273.7 362.8 274.6 362.45 274.25 364.55 272.15 364.0 271.6 365.95 269.65 364.2 267.9 364.75 267.35 362.8 265.4 362.25 265.95 360.5 264.2 361.05 263.65 359.1 261.7 358.55 262.25 356.8 260.5 357.35 259.95 355.4 258.0 354.85 258.55 353.1 256.8 353.65 256.25 351.7 254.3 351.15 254.85 349.4 253.1 349.95 252.55 348.0 250.6 347.45 251.15 346.4 250.1 346.4 245.85 346.95 245.65 346.95 247.75 352.25 247.75 352.25 242.1 346.95 242.1 346.95 244.6 346.4 244.4 346.4 239.1 343.95 239.1 343.95 238.4 350.85 231.5 352.45 229.55 359.5 229.55 368.7 230.95 374.2 236.45 365.0 244.95 361.1 241.05 357.55 241.05 353.65 244.95 353.65 248.5 357.55 252.4 361.1 252.4 365.0 248.5 365.0 244.95 374.2 236.45 379.85 242.1 386.05 235.9 404.45 254.3 397.4 261.35 423.4 287.35 420.2 290.55 417.2 287.55 416.3 288.45 415.95 288.1 416.85 287.2 412.25 282.6 412.95 281.9 411.0 279.95 410.3 280.65 400.2 270.55 397.7 273.05 414.3 289.65 415.0 288.95 415.35 289.3 410.4 294.25 411.3 295.15 410.95 295.5 410.05 294.6 399.1 305.55 404.75 311.2 404.4 311.55 403.85 311.0 399.6 315.25 398.9 314.55 396.8 316.65 397.5 317.35 388.3 326.55 379.45 326.55 370.25 317.35 370.95 316.65 368.85 314.55 368.15 315.25 363.9 311.0 363.35 311.55 363.0 311.2 363.55 310.65 362.85 309.95 363.2 309.6 364.6 311.0 368.5 307.1 367.95 306.55 368.85 305.65 368.15 304.95 368.5 304.6" fill="#8d8d8d" fill-rule="evenodd" stroke="none"/>
    </g>
    <g id="shape32" transform="matrix(1.0, 0.0, 0.0, 1.0, -362.4, -289.05)">
      <path d="M381.05 402.0 L381.05 395.65 386.7 395.65 386.7 399.55 386.35 399.55 386.35 396.0 381.4 396.0 381.4 402.0 381.05 402.0 M425.1 332.15 L425.15 332.05 419.85 326.75 433.45 313.15 429.05 308.75 429.05 302.05 433.45 297.65 439.1 302.95 439.1 305.45 440.5 306.85 440.5 301.2 443.5 304.2 443.5 322.6 433.95 332.15 425.1 332.15 M412.15 295.95 L415.15 298.95 414.8 299.3 411.8 296.3 412.15 295.95 M368.15 289.05 L368.05 289.05 362.4 294.7 362.75 295.05 364.85 292.95 365.75 293.85 364.35 295.25 364.7 295.6 366.1 294.2 367.0 295.1 365.6 296.5 365.95 296.85 367.35 295.45 368.25 296.35 366.85 297.75 367.2 298.1 368.6 296.7 369.5 297.6 368.1 299.0 368.45 299.35 369.85 297.95 370.75 298.85 369.35 300.25 369.7 300.6 370.6 299.7 371.15 300.25 371.5 299.9 370.95 299.35 374.15 296.15 372.55 294.55 372.2 294.9 373.45 296.15 371.15 298.45 365.3 292.6 367.6 290.3 368.85 291.55 369.2 291.2 367.95 289.95 368.5 289.4 368.15 289.05" fill="#8d8d8d" fill-rule="evenodd" stroke="none"/>
    </g>
    <g id="shape33" transform="matrix(1.0, 0.0, 0.0, 1.0, -363.4, -164.0)">
      <path d="M442.25 164.0 L534.95 243.15 509.95 268.15 496.5 268.15 481.65 283.0 474.95 283.0 467.7 290.25 453.55 290.25 447.55 284.25 438.35 284.25 432.7 278.6 432.7 274.7 429.5 271.5 429.5 263.35 412.0 245.85 405.3 245.85 396.8 237.35 392.2 241.95 389.2 243.9 381.05 244.25 376.65 241.95 373.3 238.6 368.15 243.75 363.4 239.0 366.4 236.0 370.8 203.3 424.0 193.6 442.25 164.0 M381.75 402.0 L382.1 402.0 382.1 396.7 385.65 396.7 385.65 399.55 386.0 399.55 386.0 396.35 381.75 396.35 381.75 402.0" fill="#8d8d8d" fill-rule="evenodd" stroke="none"/>
    </g>
  </defs>
</svg>
