<?xml version="1.0" encoding="UTF-8" standalone="no"?>
<svg xmlns:xlink="http://www.w3.org/1999/xlink" height="935.05px" width="950.05px" xmlns="http://www.w3.org/2000/svg">
  <g transform="matrix(1.0, 0.0, 0.0, 1.0, -50.0, -30.0)">
    <use height="935.0" transform="matrix(1.0, 0.0, 0.0, 1.0, 50.0, 30.0)" width="675.0" xlink:href="#shape0"/>
    <use height="935.0" transform="matrix(1.0, 0.0, 0.0, 1.0, 370.0, 30.0)" width="630.0" xlink:href="#shape1"/>
    <use height="17.5" transform="matrix(1.0, 0.0, 0.0, 1.0, 462.5, 597.5)" width="15.0" xlink:href="#shape2"/>
    <use height="935.05" transform="matrix(1.0, 0.0, 0.0, 1.0, 374.4, 30.0)" width="625.65" xlink:href="#shape3"/>
    <use height="15.0" transform="matrix(1.0, 0.0, 0.0, 1.0, 428.5, 525.75)" width="110.05" xlink:href="#shape4"/>
    <use height="225.05" transform="matrix(1.0, 0.0, 0.0, 1.0, 457.75, 355.95)" width="135.75" xlink:href="#shape5"/>
    <use height="22.75" transform="matrix(1.0, 0.0, 0.0, 1.0, 443.5, 359.0)" width="17.25" xlink:href="#shape6"/>
    <use height="41.55" transform="matrix(1.0, 0.0, 0.0, 1.0, 426.4, 363.95)" width="72.35" xlink:href="#shape7"/>
    <use height="49.25" transform="matrix(1.0, 0.0, 0.0, 1.0, 451.75, 398.75)" width="61.65" xlink:href="#shape8"/>
    <use height="182.0" transform="matrix(1.0, 0.0, 0.0, 1.0, 378.0, 350.75)" width="159.25" xlink:href="#shape9"/>
    <use height="69.8" transform="matrix(1.0, 0.0, 0.0, 1.0, 428.45, 508.75)" width="110.65" xlink:href="#shape10"/>
    <use height="21.7" transform="matrix(1.0, 0.0, 0.0, 1.0, 431.45, 546.0)" width="91.3" xlink:href="#shape11"/>
    <use height="11.75" transform="matrix(1.0, 0.0, 0.0, 1.0, 465.5, 557.0)" width="72.25" xlink:href="#shape12"/>
    <use height="178.5" transform="matrix(1.0, 0.0, 0.0, 1.0, 422.75, 427.25)" width="187.4" xlink:href="#shape13"/>
    <use height="247.2" transform="matrix(1.0, 0.0, 0.0, 1.0, 421.3, 359.0)" width="191.95" xlink:href="#shape14"/>
    <use height="82.15" transform="matrix(1.0, 0.0, 0.0, 1.0, 443.65, 361.3)" width="106.1" xlink:href="#shape15"/>
    <use height="23.25" transform="matrix(1.0, 0.0, 0.0, 1.0, 536.25, 428.25)" width="49.25" xlink:href="#shape16"/>
    <use height="44.05" transform="matrix(1.0, 0.0, 0.0, 1.0, 518.75, 448.45)" width="83.5" xlink:href="#shape17"/>
    <use height="75.0" transform="matrix(1.0, 0.0, 0.0, 1.0, 435.75, 490.75)" width="173.7" xlink:href="#shape18"/>
    <use height="239.05" transform="matrix(1.0, 0.0, 0.0, 1.0, 379.0, 398.5)" width="170.0" xlink:href="#shape19"/>
    <use height="934.9" transform="matrix(1.0, 0.0, 0.0, 1.0, 462.75, 30.0)" width="537.3" xlink:href="#shape20"/>
    <use height="82.15" transform="matrix(1.0, 0.0, 0.0, 1.0, 443.65, 361.3)" width="106.1" xlink:href="#shape21"/>
    <use height="23.25" transform="matrix(1.0, 0.0, 0.0, 1.0, 536.25, 428.25)" width="49.25" xlink:href="#shape22"/>
    <use height="44.05" transform="matrix(1.0, 0.0, 0.0, 1.0, 518.75, 448.45)" width="83.5" xlink:href="#shape23"/>
    <use height="75.0" transform="matrix(1.0, 0.0, 0.0, 1.0, 435.75, 490.75)" width="173.7" xlink:href="#shape24"/>
    <use height="82.85" transform="matrix(1.0, 0.0, 0.0, 1.0, 379.0, 554.7)" width="170.0" xlink:href="#shape25"/>
    <use height="47.5" transform="matrix(1.0, 0.0, 0.0, 1.0, 424.9, 362.0)" width="28.0" xlink:href="#shape26"/>
    <use height="595.25" transform="matrix(1.0, 0.0, 0.0, 1.0, 374.6, 369.75)" width="375.5" xlink:href="#shape27"/>
    <use height="66.0" transform="matrix(1.0, 0.0, 0.0, 1.0, 379.05, 581.0)" width="77.15" xlink:href="#shape28"/>
    <use height="609.25" transform="matrix(1.0, 0.0, 0.0, 1.0, 387.5, 30.0)" width="162.5" xlink:href="#shape29"/>
    <use height="144.0" transform="matrix(1.0, 0.0, 0.0, 1.0, 505.5, 422.75)" width="102.35" xlink:href="#shape30"/>
    <use height="238.25" transform="matrix(1.0, 0.0, 0.0, 1.0, 379.0, 390.5)" width="245.4" xlink:href="#shape31"/>
    <use height="142.75" transform="matrix(1.0, 0.0, 0.0, 1.0, 505.5, 422.25)" width="95.4" xlink:href="#shape32"/>
    <use height="96.15" transform="matrix(1.0, 0.0, 0.0, 1.0, 379.0, 532.55)" width="143.75" xlink:href="#shape33"/>
    <use height="24.25" transform="matrix(1.0, 0.0, 0.0, 1.0, 389.3, 598.0)" width="23.55" xlink:href="#shape34"/>
    <use height="7.8" transform="matrix(1.0, 0.0, 0.0, 1.0, 391.5, 609.65)" width="9.65" xlink:href="#shape35"/>
    <use height="117.4" transform="matrix(1.0, 0.0, 0.0, 1.0, 456.95, 394.15)" width="116.05" xlink:href="#shape36"/>
    <use height="235.45" transform="matrix(1.0, 0.0, 0.0, 1.0, 383.75, 392.75)" width="236.8" xlink:href="#shape37"/>
    <use height="172.8" transform="matrix(1.0, 0.0, 0.0, 1.0, 453.25, 390.5)" width="152.6" xlink:href="#shape38"/>
    <use height="15.9" transform="matrix(1.0, 0.0, 0.0, 1.0, 603.1, 496.55)" width="6.3" xlink:href="#shape39"/>
    <use height="79.1" transform="matrix(1.0, 0.0, 0.0, 1.0, 570.5, 500.5)" width="59.6" xlink:href="#shape40"/>
    <use height="59.65" transform="matrix(1.0, 0.0, 0.0, 1.0, 518.75, 457.75)" width="82.7" xlink:href="#shape41"/>
    <use height="106.0" transform="matrix(1.0, 0.0, 0.0, 1.0, 520.5, 459.25)" width="48.0" xlink:href="#shape42"/>
    <use height="132.5" transform="matrix(1.0, 0.0, 0.0, 1.0, 431.75, 448.5)" width="170.5" xlink:href="#shape43"/>
    <use height="200.15" transform="matrix(1.0, 0.0, 0.0, 1.0, 391.85, 416.75)" width="220.65" xlink:href="#shape44"/>
    <use height="1.5" transform="matrix(1.0, 0.0, 0.0, 1.0, 518.5, 422.0)" width="1.5" xlink:href="#shape45"/>
  </g>
  <defs>
    <g id="shape0" transform="matrix(1.0, 0.0, 0.0, 1.0, -50.0, -30.0)">
      <path d="M725.0 30.0 L725.0 965.0 50.0 965.0 50.0 30.0 725.0 30.0" fill="#1a1a1a" fill-rule="evenodd" stroke="none"/>
    </g>
    <g id="shape1" transform="matrix(1.0, 0.0, 0.0, 1.0, -370.0, -30.0)">
      <path d="M1000.0 30.0 L1000.0 965.0 687.5 965.0 687.5 780.0 635.0 727.5 627.5 727.5 615.0 715.0 610.0 715.0 582.5 687.5 575.0 680.0 575.0 670.5 562.5 658.0 562.5 652.5 552.5 642.5 552.5 627.5 550.0 625.0 550.0 612.5 535.0 597.5 535.0 590.0 527.5 582.5 510.0 582.5 507.5 585.0 497.5 585.0 490.0 592.5 469.25 592.5 465.75 589.0 465.75 575.0 458.5 575.0 458.5 586.5 452.5 592.5 442.0 592.5 437.25 597.25 437.25 615.25 432.5 620.0 432.5 625.0 427.5 630.0 427.5 642.5 425.0 645.0 420.0 645.0 407.5 657.5 400.0 657.5 395.0 652.5 390.0 652.5 376.0 638.5 376.0 623.5 370.0 617.5 370.0 610.0 375.0 605.0 375.0 597.5 385.0 587.5 390.0 587.5 397.5 580.0 407.5 580.0 410.0 582.5 413.25 582.5 423.5 592.75 427.25 592.75 427.25 587.75 420.5 581.0 416.0 581.0 410.0 575.0 410.0 557.5 415.0 552.5 415.0 537.5 410.0 532.5 410.0 520.0 415.0 515.0 415.0 512.5 424.0 501.0 440.0 487.0 439.25 485.25 438.25 484.75 443.0 480.0 452.5 480.0 458.0 478.5 468.5 478.5 479.5 469.75 475.25 450.0 470.25 447.75 467.25 437.75 474.25 430.75 453.5 410.0 450.0 410.0 442.5 402.5 440.0 402.5 425.0 387.5 425.0 382.5 422.5 380.0 422.5 365.0 427.5 360.0 437.5 360.0 446.0 368.5 452.0 368.5 456.5 364.0 456.5 356.75 459.5 353.75 459.5 349.0 455.0 344.5 455.0 317.5 465.0 307.5 465.0 105.0 502.5 67.5 502.5 30.0 1000.0 30.0" fill="#404040" fill-rule="evenodd" stroke="none"/>
    </g>
    <g id="shape2" transform="matrix(1.0, 0.0, 0.0, 1.0, -462.5, -597.5)">
      <path d="M467.5 597.5 L470.0 597.5 477.5 605.0 477.5 610.0 475.0 610.0 470.0 615.0 465.0 615.0 465.0 605.0 462.5 602.5 467.5 597.5" fill="#404040" fill-rule="evenodd" stroke="none"/>
    </g>
    <g id="shape3" transform="matrix(1.0, 0.0, 0.0, 1.0, -374.4, -30.0)">
      <path d="M1000.0 30.0 L1000.05 30.05 1000.05 965.05 725.05 965.05 725.05 775.05 682.55 732.55 662.55 732.55 640.05 710.05 627.55 710.05 580.55 663.05 574.05 659.8 566.05 644.8 556.3 619.3 558.35 607.75 549.25 597.75 544.0 587.75 544.45 571.95 539.85 574.05 520.85 575.55 512.1 572.05 486.1 568.8 486.1 581.05 476.6 581.05 476.6 583.8 468.35 583.8 468.35 580.3 456.85 580.3 456.85 583.05 450.85 589.05 440.1 589.05 436.6 592.55 433.6 597.55 433.6 611.55 422.25 627.95 417.95 638.25 415.1 642.55 410.05 648.15 407.1 650.3 404.25 650.7 386.75 644.2 383.85 640.05 382.4 635.65 381.6 632.55 381.6 631.8 381.5 631.2 381.05 630.3 380.65 629.3 380.4 628.3 380.4 627.3 380.65 626.3 380.9 625.3 380.9 622.8 383.35 619.75 379.2 611.05 394.0 593.45 402.5 591.45 406.1 594.3 409.55 590.3 423.35 601.05 431.85 591.55 431.85 586.55 429.35 584.05 421.85 576.55 419.85 578.55 418.35 578.55 414.6 574.8 414.6 572.05 418.35 568.3 418.35 566.55 416.1 564.3 416.1 555.8 418.35 553.55 418.35 536.8 416.85 535.3 416.85 516.8 413.25 515.05 411.3 509.7 409.35 508.85 404.85 519.1 401.85 517.85 407.85 504.6 374.4 489.05 378.6 480.35 407.1 493.6 408.5 493.85 410.15 493.8 411.75 493.45 413.25 492.75 414.55 491.8 415.65 490.65 416.5 489.25 417.1 487.7 417.35 486.05 417.3 484.45 415.95 483.0 411.85 472.9 415.15 469.85 424.85 474.85 430.8 481.35 439.3 485.35 452.55 480.1 458.05 478.6 461.05 477.1 463.3 475.6 465.8 473.6 467.8 471.6 469.55 469.35 470.8 466.85 471.55 464.6 472.05 461.6 472.05 459.35 471.8 457.1 470.8 450.35 470.3 447.85 465.55 447.85 455.8 438.1 447.55 446.35 445.55 444.35 453.8 436.1 439.05 421.35 430.55 429.85 428.3 427.6 442.55 413.35 467.3 437.85 474.3 430.85 453.55 410.1 453.05 409.6 450.8 407.35 450.8 405.1 451.8 404.1 445.3 397.85 436.55 390.6 434.55 388.35 432.05 385.1 426.9 375.35 426.85 374.9 429.3 369.25 429.65 368.75 434.7 364.6 435.15 364.5 441.65 368.35 441.85 367.95 443.5 366.3 446.0 366.3 446.0 365.55 449.0 365.55 450.8 365.3 452.0 364.8 453.2 363.5 453.85 362.25 454.1 360.9 454.5 355.8 454.7 354.85 455.1 354.1 457.6 350.85 458.15 350.55 458.75 350.5 463.25 350.5 463.75 351.0 476.75 318.5 497.5 280.0 497.5 255.0 530.0 222.5 530.0 192.5 562.5 160.0 562.5 87.5 602.5 47.5 602.5 30.0 1000.0 30.0" fill="#d9d9d9" fill-rule="evenodd" stroke="none"/>
    </g>
    <g id="shape4" transform="matrix(1.0, 0.0, 0.0, 1.0, -428.5, -525.75)">
      <path d="M537.15 532.6 L536.15 532.8 535.55 529.4 536.55 529.2 537.25 529.2 537.85 529.45 538.3 529.95 538.55 530.55 538.55 531.25 538.25 531.85 537.75 532.35 537.15 532.6 M434.5 525.75 L434.5 540.75 428.5 540.75 428.5 525.75 434.5 525.75" fill="#c0c0c0" fill-rule="evenodd" stroke="none"/>
    </g>
    <g id="shape5" transform="matrix(1.0, 0.0, 0.0, 1.0, -457.75, -355.95)">
      <path d="M458.25 357.0 L458.25 362.75 457.75 362.75 457.75 356.75 458.25 357.0 M508.25 400.25 L508.2 400.25 507.7 400.75 501.45 394.5 498.2 397.75 497.7 397.25 500.95 394.0 493.2 385.25 482.8 377.2 479.05 366.75 475.85 363.25 472.6 359.8 469.45 356.65 463.25 363.0 462.75 363.0 462.75 362.75 469.45 355.95 473.0 359.25 476.25 362.75 479.5 366.5 483.25 376.8 493.6 384.85 501.5 393.75 508.25 400.25 M591.0 553.5 L588.25 560.0 587.75 559.75 590.75 552.75 593.5 554.0 593.25 554.5 591.0 553.5 M588.75 541.75 L588.7 541.8 587.2 544.8 577.95 540.8 581.95 532.05 584.35 533.15 587.25 526.45 588.65 523.5 590.5 519.5 589.75 514.0 589.25 510.0 588.5 505.25 589.0 505.25 589.75 510.0 590.25 514.0 591.0 519.5 584.75 533.75 582.25 532.75 578.75 540.5 587.0 544.0 588.25 541.5 588.75 541.75 M494.75 473.0 L494.75 478.75 494.25 478.75 494.25 473.5 492.25 473.5 492.25 473.0 494.75 473.0 M502.3 420.8 L502.3 420.7 501.7 420.85 501.05 420.75 500.5 420.4 500.15 419.85 500.05 419.25 500.15 418.65 500.5 418.15 501.05 417.8 501.65 417.7 502.25 417.8 502.8 418.15 503.15 418.7 503.25 419.3 503.15 419.9 502.8 420.45 502.3 420.8 M472.5 580.5 L472.5 581.0 469.75 581.0 469.75 580.5 472.5 580.5 M549.5 549.5 L549.0 558.75 548.25 558.75 548.75 549.5 549.0 541.5 548.5 532.0 549.25 532.0 549.75 541.5 549.5 549.5 M547.75 518.75 L548.75 527.5 548.0 527.5 547.0 518.75 546.0 511.5 545.0 504.75 533.5 503.5 533.0 503.5 533.0 495.75 533.5 495.75 533.5 502.75 545.5 504.0 546.75 511.5 547.75 518.75 M533.5 492.5 L533.5 494.0 533.0 494.0 533.0 491.0 533.75 491.0 533.75 492.5 533.5 492.5" fill="#929292" fill-rule="evenodd" stroke="none"/>
    </g>
    <g id="shape6" transform="matrix(1.0, 0.0, 0.0, 1.0, -443.5, -359.0)">
      <path d="M459.5 368.0 L445.75 381.75 443.5 379.5 451.0 372.0 446.5 370.0 446.65 369.5 447.25 369.75 452.5 372.0 454.75 372.0 458.95 367.8 460.25 362.75 460.25 359.0 460.75 359.0 460.75 362.75 459.5 368.0" fill="#929292" fill-rule="evenodd" stroke="none"/>
    </g>
    <g id="shape7" transform="matrix(1.0, 0.0, 0.0, 1.0, -426.4, -363.95)">
      <path d="M498.75 394.0 L496.5 396.25 496.0 395.75 497.75 394.0 490.0 386.25 490.5 385.75 498.75 394.0 M453.55 405.15 L453.6 405.15 453.25 405.5 451.8 404.0 445.3 397.75 436.55 390.5 434.55 388.25 432.05 385.0 426.45 375.35 426.4 374.8 428.9 368.85 429.35 368.3 434.45 364.1 435.15 363.95 441.8 367.9 444.35 368.75 444.2 369.25 441.55 368.3 435.05 364.45 434.6 364.55 429.55 368.7 429.2 369.2 426.75 374.85 426.8 375.3 432.45 384.8 434.95 388.05 441.65 381.35 443.85 383.5 437.0 390.3 445.65 397.35 453.55 405.15" fill="#929292" fill-rule="evenodd" stroke="none"/>
    </g>
    <g id="shape8" transform="matrix(1.0, 0.0, 0.0, 1.0, -451.75, -398.75)">
      <path d="M480.5 447.5 L478.0 448.0 478.0 447.5 480.5 447.0 486.75 447.0 486.75 447.5 480.5 447.5 M480.0 444.5 L477.5 445.0 468.75 436.25 474.25 430.75 472.0 428.5 472.25 428.25 474.75 430.75 469.25 436.25 477.5 444.5 479.9 444.0 480.0 444.5 M494.5 435.75 L489.0 441.25 471.75 423.75 472.25 423.25 489.0 440.25 493.5 435.75 491.0 433.25 491.5 432.75 494.5 435.75 M513.3 435.1 L513.4 435.2 513.0 435.2 512.95 428.4 512.85 426.7 512.75 425.55 512.6 424.65 512.35 423.75 511.85 422.65 511.55 422.1 508.55 422.85 506.3 424.35 504.05 426.35 498.55 431.85 495.55 428.85 496.05 428.35 498.55 430.85 503.55 425.85 505.8 423.85 508.3 422.35 511.3 421.6 508.85 417.25 509.2 417.0 511.6 421.35 512.25 422.6 512.7 423.7 512.95 424.55 513.1 425.5 513.2 426.55 513.25 428.25 513.3 435.1 M454.5 401.0 L454.0 401.5 451.75 399.25 452.25 398.75 454.5 401.0" fill="#929292" fill-rule="evenodd" stroke="none"/>
    </g>
    <g id="shape9" transform="matrix(1.0, 0.0, 0.0, 1.0, -378.0, -350.75)">
      <path d="M523.0 532.0 L523.05 532.0 519.05 532.75 518.3 528.75 517.55 527.25 515.55 526.5 515.05 526.5 515.05 508.75 508.05 508.75 508.05 508.25 515.55 508.25 515.55 526.0 517.8 526.75 518.8 528.75 519.4 532.1 522.9 531.5 523.0 532.0 M518.25 505.5 L518.25 510.0 517.75 510.0 517.75 505.5 518.25 505.5 M521.75 505.5 L521.75 510.0 521.25 510.0 521.25 505.5 521.75 505.5 M482.25 501.25 L482.25 501.75 471.5 501.75 471.5 501.25 482.25 501.25 M537.25 492.5 L537.25 496.25 535.5 496.25 535.5 495.75 536.75 495.75 536.75 492.5 537.25 492.5 M482.25 494.75 L482.25 499.25 478.5 499.25 478.5 498.75 481.75 498.75 481.75 493.0 469.25 493.0 469.25 492.5 482.25 492.5 482.25 494.25 497.75 494.25 497.75 494.75 482.25 494.75 M434.75 507.75 L434.75 507.7 434.75 511.45 434.25 511.45 434.25 507.7 432.4 504.8 431.7 501.4 432.4 497.95 434.4 495.0 437.35 493.05 440.9 492.35 444.25 492.95 447.5 495.2 447.15 495.45 444.2 493.4 440.9 492.75 437.55 493.45 434.75 495.3 432.85 498.1 432.15 501.4 432.8 504.6 434.75 507.75 M513.5 484.5 L513.5 489.25 513.0 489.25 513.0 484.0 523.0 484.0 523.0 484.5 513.5 484.5 M420.0 502.75 L419.75 503.25 379.35 484.4 378.5 486.25 378.0 486.0 379.0 483.75 420.0 502.75 M429.0 484.75 L428.5 485.25 426.75 483.25 419.8 483.95 419.75 483.5 427.0 482.75 429.0 484.75 M494.75 468.0 L494.75 468.5 491.25 468.5 491.25 456.0 490.25 453.5 486.75 452.5 486.75 452.0 490.75 453.25 491.75 456.0 491.75 468.0 494.75 468.0 M465.5 440.5 L465.0 441.0 442.0 417.75 440.75 419.0 440.25 418.5 442.0 416.75 465.5 440.5 M458.25 357.0 L458.25 362.75 457.75 362.75 457.75 356.75 463.75 350.75 464.0 351.25 458.25 357.0" fill="#8d8d8d" fill-rule="evenodd" stroke="none"/>
    </g>
    <g id="shape10" transform="matrix(1.0, 0.0, 0.0, 1.0, -428.45, -508.75)">
      <path d="M451.75 551.5 L451.35 551.9 449.25 549.65 447.75 547.5 446.75 545.4 446.0 543.0 442.25 543.0 442.25 545.0 441.75 545.0 441.75 542.5 446.5 542.5 446.5 543.0 447.25 545.25 448.25 547.25 449.65 549.35 451.75 551.5 M454.75 576.25 L454.75 576.3 454.75 578.55 454.25 578.55 454.25 576.8 451.75 576.8 449.4 576.7 446.95 576.4 444.9 575.95 442.45 575.0 440.65 574.0 438.5 572.35 436.65 570.7 434.85 568.95 433.25 567.2 432.0 565.35 430.8 562.85 429.7 560.15 429.05 557.85 428.7 555.6 428.55 552.95 428.45 550.7 428.45 540.7 428.95 540.7 428.95 542.45 438.95 542.45 438.95 544.95 438.45 544.95 438.45 542.95 428.95 542.95 428.95 550.7 429.0 552.9 429.15 555.3 429.4 557.3 429.95 559.4 430.85 561.95 431.7 563.95 433.05 566.25 434.35 567.85 436.25 569.85 438.95 572.2 441.1 573.8 443.15 574.85 445.1 575.6 447.1 576.05 449.5 576.25 454.75 576.25 M520.25 537.75 L520.25 548.0 515.0 548.0 515.0 547.5 519.75 547.5 519.75 537.25 523.75 536.5 523.85 537.1 520.25 537.75 M468.0 552.25 L468.0 552.75 464.75 552.75 462.0 552.5 459.0 551.75 456.5 550.25 454.25 548.5 452.5 546.25 451.0 544.0 450.0 541.25 449.5 538.5 449.5 537.0 446.75 537.0 446.75 535.0 447.25 535.0 447.25 536.5 450.0 536.5 450.0 538.5 450.5 541.25 451.5 543.75 453.0 546.0 454.5 548.0 456.75 549.75 459.25 551.25 462.0 552.0 464.75 552.25 468.0 552.25 M531.55 544.6 L531.55 544.65 531.0 544.8 526.5 519.8 526.95 519.7 528.95 529.95 535.45 528.8 535.55 529.4 535.55 529.4 535.45 528.8 536.45 528.65 537.35 528.7 538.15 529.05 538.75 529.7 539.1 530.55 539.1 531.45 538.75 532.3 538.1 532.9 537.3 533.25 536.3 533.4 536.2 532.8 537.2 532.6 537.8 532.35 538.3 531.85 538.6 531.25 538.6 530.55 538.35 529.95 537.9 529.45 537.3 529.2 536.6 529.2 535.6 529.4 536.2 532.8 536.2 532.8 536.3 533.4 529.8 534.45 531.55 544.6 M429.0 518.5 L429.0 525.75 428.5 525.75 428.5 518.0 433.5 518.0 433.5 518.5 429.0 518.5 M442.75 530.75 L442.75 531.25 440.75 531.25 440.75 521.5 436.25 521.5 436.25 508.75 436.75 508.75 436.75 521.0 441.25 521.0 441.25 530.75 442.75 530.75 M515.0 526.25 L515.5 526.25 515.5 526.0 515.0 526.0 515.0 526.25" fill="#8d8d8d" fill-rule="evenodd" stroke="none"/>
    </g>
    <g id="shape11" transform="matrix(1.0, 0.0, 0.0, 1.0, -431.45, -546.0)">
      <path d="M465.5 557.0 L465.5 557.5 463.4 557.35 463.45 556.85 465.5 557.0 M522.75 553.5 L522.75 554.0 515.5 554.0 515.5 553.5 522.75 553.5 M459.75 556.0 L459.55 556.5 456.5 555.25 453.45 553.45 453.75 553.0 456.75 554.75 459.75 556.0 M520.75 551.25 L520.75 551.75 517.25 551.75 517.25 548.0 517.75 548.0 517.75 551.25 520.75 551.25 M515.5 559.0 L515.5 565.75 500.75 565.75 500.75 562.5 501.25 562.5 501.25 565.25 515.0 565.25 515.0 548.0 515.5 548.0 515.5 559.0 M439.5 565.5 L439.45 565.45 437.2 567.7 435.4 565.5 434.4 563.9 433.4 562.0 432.75 560.4 432.05 558.0 431.65 555.6 431.45 553.5 431.45 546.0 434.45 546.0 434.45 546.5 431.95 546.5 431.95 553.5 432.1 555.6 432.5 558.0 433.15 560.25 433.8 561.9 434.75 563.7 435.75 565.3 437.25 567.25 439.25 565.25 439.5 565.5" fill="#8d8d8d" fill-rule="evenodd" stroke="none"/>
    </g>
    <g id="shape12" transform="matrix(1.0, 0.0, 0.0, 1.0, -465.5, -557.0)">
      <path d="M531.25 566.25 L531.25 568.75 484.5 568.75 484.5 568.25 530.75 568.25 530.75 561.75 537.25 561.75 537.25 560.0 537.75 560.0 537.75 562.25 531.25 562.25 531.25 566.25 M522.75 559.0 L522.75 559.5 515.5 559.5 515.5 559.0 522.75 559.0 M466.0 557.5 L466.0 568.75 465.5 568.75 465.5 557.0 468.0 557.0 468.0 557.5 466.0 557.5" fill="#8d8d8d" fill-rule="evenodd" stroke="none"/>
    </g>
    <g id="shape13" transform="matrix(1.0, 0.0, 0.0, 1.0, -422.75, -427.25)">
      <path d="M610.15 514.3 L610.15 514.35 606.85 514.75 606.8 514.25 609.65 513.85 609.15 510.35 609.6 510.3 610.15 514.3 M606.3 494.8 L606.35 494.8 601.05 495.45 600.95 495.0 606.25 494.35 606.3 494.8 M534.75 453.25 L534.75 459.75 530.25 459.75 530.25 459.25 534.25 459.25 534.25 453.25 534.75 453.25 M552.6 455.35 L552.65 455.35 552.3 455.5 551.45 453.8 556.45 451.25 556.6 451.6 551.95 454.0 552.6 455.35 M541.75 428.25 L541.75 428.75 538.25 428.75 538.25 427.5 538.75 427.25 538.75 428.25 541.75 428.25 M434.4 495.0 L434.35 495.0 433.95 495.55 432.95 493.75 436.05 490.9 440.3 487.35 441.0 487.0 446.5 484.7 451.45 482.6 452.7 482.4 463.75 480.25 477.0 480.25 477.0 485.25 486.25 485.25 486.25 478.75 508.75 478.75 508.75 481.0 519.5 481.0 519.5 481.5 508.25 481.5 508.25 479.25 486.75 479.25 486.75 485.75 476.5 485.75 476.5 480.75 463.75 480.75 452.75 483.0 451.5 483.25 443.25 486.5 446.0 493.75 445.5 493.75 442.75 486.75 440.5 487.75 433.75 493.75 434.4 495.0 M519.5 476.75 L519.5 478.5 511.0 478.5 511.0 478.0 519.0 478.0 519.0 476.75 519.5 476.75 M425.5 566.75 L426.0 566.75 425.5 566.75 425.5 566.0 424.5 563.25 424.5 561.5 425.0 561.5 425.0 563.25 426.0 566.0 426.0 566.75 425.5 566.75 M425.25 605.5 L424.75 605.75 422.75 601.25 423.25 601.0 425.25 605.5 M477.0 581.0 L477.0 584.25 467.75 584.25 467.75 580.75 464.25 580.75 464.25 580.25 468.25 580.25 468.25 583.75 476.5 583.75 476.5 581.0 477.0 581.0 M439.5 583.25 L436.25 584.75 431.25 582.75 429.5 581.25 424.5 577.25 423.5 575.25 424.0 575.0 425.0 577.0 429.75 580.75 431.5 582.25 436.25 584.25 439.25 582.75 445.0 582.0 452.0 580.25 464.25 580.25 464.25 580.75 452.0 580.75 445.0 582.5 439.5 583.25 M540.25 568.0 L540.25 570.25 536.25 570.25 536.25 569.75 539.75 569.75 539.75 568.0 540.25 568.0 M457.35 574.05 L457.25 574.1 455.35 574.1 453.6 574.1 451.45 574.05 449.4 573.85 447.1 573.45 444.9 572.8 443.3 572.15 441.15 570.95 439.45 569.75 441.7 567.5 441.95 567.75 440.05 569.65 441.35 570.6 443.55 571.85 445.3 572.55 447.3 573.05 449.55 573.45 451.5 573.6 453.6 573.65 455.4 573.65 457.3 573.6 459.0 573.45 460.5 573.2 460.5 570.7 461.0 570.7 461.0 573.7 459.05 573.95 457.35 574.05 M536.5 566.25 L536.5 566.75 531.25 566.75 531.25 566.25 536.5 566.25 M539.75 564.0 L539.75 564.5 533.25 564.5 533.25 564.0 539.75 564.0" fill="#8d8d8d" fill-rule="evenodd" stroke="none"/>
    </g>
    <g id="shape14" transform="matrix(1.0, 0.0, 0.0, 1.0, -421.3, -359.0)">
      <path d="M424.75 605.75 L424.75 605.7 421.6 606.2 421.3 603.05 422.75 601.25 424.75 605.75 M486.75 485.75 L486.75 489.25 482.75 489.25 482.75 485.75 486.75 485.75 M517.5 481.5 L517.5 484.0 513.0 484.0 513.0 481.5 517.5 481.5 M519.5 478.5 L519.5 481.0 511.0 481.0 511.0 478.5 519.5 478.5 M609.6 510.3 L609.6 510.35 608.3 510.5 608.05 508.85 609.4 508.65 609.6 510.3 M606.55 496.7 L606.55 496.65 604.0 497.0 603.75 495.1 606.3 494.8 606.55 496.7 M593.25 465.0 L592.0 469.5 589.0 469.5 590.75 464.0 593.25 465.0 M536.5 453.25 L536.5 459.75 534.75 459.75 534.75 453.25 536.5 453.25 M556.4 451.25 L556.45 451.25 554.35 452.3 553.3 449.85 555.5 449.25 556.4 451.25 M578.0 448.0 L573.75 451.75 571.8 449.45 575.25 446.75 578.0 448.0 M541.75 428.75 L541.75 431.0 538.25 431.0 538.25 428.75 541.75 428.75 M581.25 428.5 L576.5 432.5 575.0 431.5 580.25 427.25 581.25 428.5 M567.5 422.75 L567.5 429.25 565.25 428.75 565.25 423.0 567.5 422.75 M494.75 468.5 L494.75 473.0 492.25 473.0 492.25 468.5 494.75 468.5 M486.75 447.5 L486.75 452.5 478.0 452.5 478.0 448.0 480.5 447.5 486.75 447.5 M480.5 447.0 L478.0 447.5 477.5 445.0 480.0 444.5 480.5 447.0 M476.75 428.75 L474.75 430.75 472.25 428.25 474.25 426.25 476.75 428.75 M472.5 581.0 L472.5 583.75 469.75 583.75 469.75 581.0 472.5 581.0 M454.75 578.5 L454.75 580.25 452.0 580.25 452.0 578.5 454.75 578.5 M468.25 577.5 L468.25 580.25 465.25 580.25 465.25 577.5 468.25 577.5 M464.0 570.75 L464.0 573.75 461.0 573.75 461.0 570.75 464.0 570.75 M489.5 565.75 L489.5 568.25 486.0 568.25 486.0 565.75 489.5 565.75 M441.75 567.5 L439.5 569.75 437.25 567.75 439.5 565.5 441.75 567.5 M536.5 564.5 L536.5 566.25 533.25 566.25 533.25 564.5 536.5 564.5 M500.75 562.5 L500.75 565.75 498.5 565.75 498.5 562.5 500.75 562.5 M536.5 562.25 L536.5 564.0 533.25 564.0 533.25 562.25 536.5 562.25 M522.75 554.0 L522.75 559.0 515.5 559.0 515.5 554.0 522.75 554.0 M467.75 552.75 L467.75 557.0 465.5 557.0 465.5 552.75 467.75 552.75 M520.75 551.75 L520.75 553.5 517.25 553.5 517.25 551.75 515.5 551.75 515.5 549.0 517.25 549.0 517.25 551.75 520.75 551.75 M434.5 543.0 L434.5 546.0 431.5 546.0 431.5 543.0 434.5 543.0 M441.75 542.5 L441.75 545.0 439.0 545.0 439.0 542.5 441.75 542.5 M523.75 536.5 L519.75 537.25 519.0 532.75 523.0 532.0 523.75 536.5 M446.75 535.0 L446.75 537.0 440.75 537.0 440.75 531.25 442.75 531.25 442.75 535.0 446.75 535.0 M436.25 508.75 L436.25 511.5 434.75 511.5 434.75 508.75 436.25 508.75 M511.5 505.5 L511.5 508.25 508.0 508.25 508.0 505.5 511.5 505.5 M521.25 505.5 L521.25 510.0 518.25 510.0 518.25 505.5 521.25 505.5 M482.25 499.25 L482.25 501.25 478.5 501.25 478.5 499.25 482.25 499.25 M535.5 495.75 L535.5 498.25 533.5 498.25 533.5 495.75 535.5 495.75 M596.5 547.25 L593.5 554.0 590.75 552.75 592.75 548.25 592.75 547.5 592.25 547.0 587.25 544.75 588.75 541.75 595.5 544.75 596.75 545.75 596.5 547.25 M583.75 543.25 L577.75 555.25 575.0 554.0 572.75 554.0 579.0 541.25 583.75 543.25 M613.25 522.5 L613.25 522.55 610.5 528.45 606.85 527.65 608.35 521.65 613.25 522.5 M595.5 515.75 L590.5 516.5 590.25 514.0 594.5 513.5 595.5 515.75 M594.0 509.5 L589.75 510.0 589.25 506.5 593.5 506.0 594.0 509.5 M498.5 431.75 L494.5 435.75 491.5 432.75 495.5 428.75 498.5 431.75 M455.75 399.75 L454.5 401.0 452.25 398.75 453.5 397.5 455.75 399.75 M495.75 392.0 L494.0 393.75 489.25 389.0 491.0 387.25 495.75 392.0 M445.75 381.75 L443.85 383.45 441.65 381.3 443.5 379.5 445.75 381.75 M462.75 359.0 L462.75 362.75 460.75 362.75 460.75 359.0 462.75 359.0 M460.25 359.0 L460.25 362.75 458.25 362.75 458.25 359.0 460.25 359.0" fill="#f0f0f0" fill-rule="evenodd" stroke="none"/>
    </g>
    <g id="shape15" transform="matrix(1.0, 0.0, 0.0, 1.0, -443.65, -361.3)">
      <path d="M532.25 436.75 L532.2 436.7 532.2 443.45 525.2 443.45 522.7 443.2 520.95 442.95 518.2 442.7 518.95 435.7 518.45 428.95 518.45 416.7 529.7 416.7 537.7 415.2 544.95 415.95 547.1 418.35 547.8 419.2 549.75 421.45 547.75 423.25 546.85 424.1 544.75 426.0 538.5 427.5 532.75 428.25 532.25 436.75 M491.05 421.75 L491.0 421.8 484.65 428.15 476.0 419.5 471.75 423.75 456.9 408.9 458.85 406.95 453.7 401.8 455.65 399.85 453.15 397.35 460.05 390.45 462.55 392.95 464.5 391.0 469.65 396.15 471.6 394.2 486.45 409.05 482.4 413.1 491.05 421.75 M450.2 391.55 L447.0 394.75 443.65 391.4 446.85 388.2 450.2 391.55 M502.55 402.15 L495.3 409.4 480.1 394.2 487.35 386.95 502.55 402.15 M475.7 367.5 L472.15 371.05 465.95 364.85 469.5 361.3 475.7 367.5" fill="#8d8d8d" fill-rule="evenodd" stroke="none"/>
    </g>
    <g id="shape16" transform="matrix(1.0, 0.0, 0.0, 1.0, -536.25, -428.25)">
      <path d="M585.5 446.25 L581.0 451.5 575.75 447.0 568.25 443.25 565.25 441.5 563.0 445.25 555.5 449.25 549.75 450.75 549.75 450.5 542.75 445.75 536.25 444.75 537.25 438.0 537.25 431.0 544.25 431.0 550.0 429.75 558.5 429.0 564.25 428.25 572.0 430.0 575.0 431.5 580.75 434.25 585.0 440.25 585.5 446.25" fill="#8d8d8d" fill-rule="evenodd" stroke="none"/>
    </g>
    <g id="shape17" transform="matrix(1.0, 0.0, 0.0, 1.0, -518.75, -448.45)">
      <path d="M547.0 485.75 L547.0 492.5 533.75 492.5 533.75 491.0 524.0 491.0 524.0 490.75 523.0 490.75 523.0 480.25 524.0 480.25 524.0 476.75 524.25 476.75 524.25 480.25 535.0 480.25 535.0 476.75 537.75 476.75 537.75 473.5 530.75 473.5 530.75 476.75 518.75 476.75 518.75 470.75 519.75 470.75 519.75 462.5 520.5 462.5 520.5 450.5 536.5 450.5 536.5 451.0 532.25 451.0 532.25 456.5 531.75 456.5 531.75 459.25 530.25 459.25 530.25 462.25 537.75 462.25 537.75 468.0 539.75 468.0 539.75 457.75 536.5 457.75 536.5 450.5 539.5 450.5 543.25 454.25 543.25 457.75 546.25 457.75 546.25 461.5 547.0 461.5 550.75 468.0 550.75 480.75 546.25 480.75 546.25 485.75 547.0 485.75 M580.0 486.0 L580.0 485.95 563.0 490.45 561.0 489.45 560.5 487.45 560.0 485.7 559.25 482.7 558.75 475.2 557.75 469.45 555.0 461.45 554.5 460.45 554.0 459.45 552.25 455.45 556.25 453.45 557.25 452.95 558.25 452.45 565.0 449.2 571.0 448.45 577.25 455.45 580.75 460.2 575.25 464.2 570.9 468.0 571.05 468.2 571.75 469.25 573.75 472.25 581.25 468.5 590.0 469.5 595.75 469.5 602.25 472.0 599.75 478.5 593.75 483.0 588.25 484.5 580.0 486.0" fill="#8d8d8d" fill-rule="evenodd" stroke="none"/>
    </g>
    <g id="shape18" transform="matrix(1.0, 0.0, 0.0, 1.0, -435.75, -490.75)">
      <path d="M568.25 554.0 L568.25 565.25 562.5 565.25 562.5 561.0 562.0 561.0 562.0 554.0 568.25 554.0 M572.05 528.5 L572.1 528.5 571.4 528.6 570.65 528.5 570.0 528.2 569.5 527.65 569.15 527.0 569.05 526.25 569.15 525.5 569.5 524.85 570.0 524.35 570.65 524.05 571.4 523.95 572.1 524.05 572.75 524.4 573.25 524.9 573.6 525.55 573.7 526.3 573.6 527.0 573.25 527.65 572.7 528.15 572.05 528.5 M569.65 510.4 L569.7 510.4 568.7 510.55 567.7 510.4 566.8 509.9 566.1 509.15 565.7 508.25 565.55 507.25 565.7 506.25 566.15 505.35 566.9 504.65 567.8 504.2 568.8 504.05 569.8 504.2 570.7 504.7 571.4 505.45 571.85 506.35 571.95 507.35 571.8 508.35 571.3 509.25 570.55 509.95 569.65 510.4 M471.25 514.5 L471.25 521.5 458.25 521.5 458.25 517.0 438.75 517.0 438.75 506.0 437.25 505.0 436.25 503.5 435.75 501.5 436.1 499.45 437.25 497.75 438.75 496.75 440.5 496.5 442.5 496.75 444.25 497.75 445.25 499.25 458.25 499.25 458.25 495.25 469.75 495.25 469.75 501.25 471.5 501.25 471.5 514.5 477.25 514.5 477.25 521.5 477.5 521.5 477.5 514.5 477.25 514.5 477.25 512.0 505.5 512.0 508.25 513.0 509.25 515.5 509.25 547.0 512.25 547.0 512.25 560.5 498.5 560.5 498.5 565.75 484.5 565.75 484.5 547.25 465.0 547.25 465.0 545.25 461.5 544.5 458.5 542.25 457.0 538.75 457.0 535.25 458.5 531.75 461.25 529.5 465.0 528.75 465.0 527.0 477.25 527.0 477.25 521.5 471.5 521.5 471.5 514.5 471.25 514.5 M608.4 521.9 L608.45 521.85 606.95 527.6 597.1 527.4 595.55 515.75 594.8 515.85 593.35 504.75 592.85 504.8 591.6 495.4 601.0 494.15 601.4 497.35 607.85 496.5 609.45 508.65 606.25 509.05 606.95 514.5 607.45 514.45 607.65 515.95 607.05 516.0 607.8 521.75 608.4 521.9 M524.0 491.0 L524.0 505.5 497.75 505.5 497.75 490.75 523.0 490.75 523.0 491.0 524.0 491.0" fill="#8d8d8d" fill-rule="evenodd" stroke="none"/>
    </g>
    <g id="shape19" transform="matrix(1.0, 0.0, 0.0, 1.0, -379.0, -398.5)">
      <path d="M482.75 401.25 L480.75 403.25 480.25 402.75 482.25 400.75 482.75 401.25 M485.0 399.0 L484.5 399.5 484.0 399.0 484.5 398.5 485.0 399.0 M404.65 635.75 L404.6 635.75 398.2 637.55 380.6 622.75 383.15 619.7 379.0 611.0 393.8 593.4 402.3 591.4 415.7 602.65 417.8 600.15 421.25 603.05 421.55 606.2 417.7 610.8 418.5 613.75 404.2 630.8 403.35 631.05 404.65 635.75 M486.0 568.75 L486.0 581.0 472.5 581.0 472.5 577.5 464.0 577.5 464.0 568.75 486.0 568.75 M445.6 562.05 L445.55 562.05 445.25 562.15 444.95 562.1 444.65 562.0 444.4 561.8 444.25 561.55 444.2 561.25 444.2 560.95 444.3 560.65 444.5 560.4 444.75 560.25 445.05 560.15 445.35 560.2 445.65 560.3 445.9 560.5 446.05 560.75 446.15 561.05 446.15 561.35 446.05 561.65 445.85 561.9 445.6 562.05 M549.0 558.75 L549.0 568.0 539.75 568.0 539.75 558.75 549.0 558.75 M476.45 561.35 L476.45 561.3 475.4 561.45 474.35 561.3 473.4 560.8 472.65 560.05 472.15 559.15 471.95 558.1 472.15 557.05 472.65 556.1 473.4 555.4 474.35 554.9 475.4 554.7 476.45 554.9 477.4 555.4 478.15 556.1 478.65 557.05 478.8 558.1 478.65 559.15 478.15 560.1 477.4 560.85 476.45 561.35" fill="#8d8d8d" fill-rule="evenodd" stroke="none"/>
    </g>
    <g id="shape20" transform="matrix(1.0, 0.0, 0.0, 1.0, -462.75, -30.0)">
      <path d="M1000.0 30.0 L1000.05 964.9 700.05 964.9 700.05 749.9 682.55 732.4 662.55 732.4 640.05 709.9 627.55 709.9 580.55 662.9 581.8 661.65 588.3 661.65 597.55 652.4 597.55 647.4 585.3 631.9 585.3 627.9 574.55 607.9 574.55 591.65 570.05 587.15 570.05 569.15 562.05 565.4 559.3 565.4 559.3 560.15 562.3 560.15 562.3 560.65 563.05 560.65 563.05 564.65 567.8 564.65 567.8 553.9 575.05 553.9 587.8 559.65 600.05 565.4 606.4 551.65 610.3 543.4 612.55 538.4 607.05 535.9 609.05 531.4 610.55 528.3 613.3 522.4 615.05 516.9 616.05 509.15 615.95 500.9 621.0 494.8 610.05 486.5 603.45 484.1 605.95 477.3 608.25 470.65 597.25 466.4 584.75 462.65 590.5 449.15 591.25 443.9 589.75 439.65 580.4 428.15 578.75 420.65 572.0 421.15 566.25 423.15 557.9 421.05 546.45 413.6 541.45 411.5 525.2 413.3 519.15 412.15 518.5 411.4 512.3 404.9 507.75 400.75 501.25 394.0 493.75 385.25 483.0 377.0 479.25 366.5 469.5 356.25 462.75 363.0 462.75 359.0 465.25 356.5 465.25 352.5 463.75 351.0 463.75 333.25 466.5 330.5 466.5 316.0 474.5 308.0 474.5 296.0 487.5 280.0 487.5 252.5 500.0 240.0 500.0 187.5 527.5 160.0 527.5 110.0 550.0 87.5 550.0 30.0 1000.0 30.0" fill="#8d8d8d" fill-rule="evenodd" stroke="none"/>
    </g>
    <g id="shape21" transform="matrix(1.0, 0.0, 0.0, 1.0, -443.65, -361.3)">
      <path d="M532.25 436.75 L532.2 436.7 532.2 443.45 525.2 443.45 522.7 443.2 520.95 442.95 518.2 442.7 518.95 435.7 518.45 428.95 518.45 416.7 529.7 416.7 537.7 415.2 544.95 415.95 547.1 418.35 547.8 419.2 549.75 421.45 547.75 423.25 546.85 424.1 544.75 426.0 538.5 427.5 532.75 428.25 532.25 436.75 M491.05 421.75 L491.0 421.8 484.65 428.15 476.0 419.5 471.75 423.75 456.9 408.9 458.85 406.95 453.7 401.8 455.65 399.85 453.15 397.35 460.05 390.45 462.55 392.95 464.5 391.0 469.65 396.15 471.6 394.2 486.45 409.05 482.4 413.1 491.05 421.75 M450.2 391.55 L447.0 394.75 443.65 391.4 446.85 388.2 450.2 391.55 M502.55 402.15 L495.3 409.4 480.1 394.2 487.35 386.95 502.55 402.15 M475.7 367.5 L472.15 371.05 465.95 364.85 469.5 361.3 475.7 367.5" fill="#8d8d8d" fill-rule="evenodd" stroke="none"/>
    </g>
    <g id="shape22" transform="matrix(1.0, 0.0, 0.0, 1.0, -536.25, -428.25)">
      <path d="M585.5 446.25 L581.0 451.5 575.75 447.0 568.25 443.25 565.25 441.5 563.0 445.25 555.5 449.25 549.75 450.75 549.75 450.5 542.75 445.75 536.25 444.75 537.25 438.0 537.25 431.0 544.25 431.0 550.0 429.75 558.5 429.0 564.25 428.25 572.0 430.0 575.0 431.5 580.75 434.25 585.0 440.25 585.5 446.25" fill="#8d8d8d" fill-rule="evenodd" stroke="none"/>
    </g>
    <g id="shape23" transform="matrix(1.0, 0.0, 0.0, 1.0, -518.75, -448.45)">
      <path d="M547.0 485.75 L547.0 492.5 533.75 492.5 533.75 491.0 524.0 491.0 524.0 490.75 523.0 490.75 523.0 480.25 524.0 480.25 524.0 476.75 524.25 476.75 524.25 480.25 535.0 480.25 535.0 476.75 537.75 476.75 537.75 473.5 530.75 473.5 530.75 476.75 518.75 476.75 518.75 470.75 519.75 470.75 519.75 462.5 520.5 462.5 520.5 450.5 536.5 450.5 536.5 451.0 532.25 451.0 532.25 456.5 531.75 456.5 531.75 459.25 530.25 459.25 530.25 462.25 537.75 462.25 537.75 468.0 539.75 468.0 539.75 457.75 536.5 457.75 536.5 450.5 539.5 450.5 543.25 454.25 543.25 457.75 546.25 457.75 546.25 461.5 547.0 461.5 550.75 468.0 550.75 480.75 546.25 480.75 546.25 485.75 547.0 485.75 M580.0 486.0 L580.0 485.95 563.0 490.45 561.0 489.45 560.5 487.45 560.0 485.7 559.25 482.7 558.75 475.2 557.75 469.45 555.0 461.45 554.5 460.45 554.0 459.45 552.25 455.45 556.25 453.45 557.25 452.95 558.25 452.45 565.0 449.2 571.0 448.45 577.25 455.45 580.75 460.2 575.25 464.2 570.9 468.0 571.05 468.2 571.75 469.25 573.75 472.25 581.25 468.5 590.0 469.5 595.75 469.5 602.25 472.0 599.75 478.5 593.75 483.0 588.25 484.5 580.0 486.0" fill="#8d8d8d" fill-rule="evenodd" stroke="none"/>
    </g>
    <g id="shape24" transform="matrix(1.0, 0.0, 0.0, 1.0, -435.75, -490.75)">
      <path d="M568.25 554.0 L568.25 565.25 562.5 565.25 562.5 561.0 562.0 561.0 562.0 554.0 568.25 554.0 M572.05 528.5 L572.1 528.5 571.4 528.6 570.65 528.5 570.0 528.2 569.5 527.65 569.15 527.0 569.05 526.25 569.15 525.5 569.5 524.85 570.0 524.35 570.65 524.05 571.4 523.95 572.1 524.05 572.75 524.4 573.25 524.9 573.6 525.55 573.7 526.3 573.6 527.0 573.25 527.65 572.7 528.15 572.05 528.5 M569.65 510.4 L569.7 510.4 568.7 510.55 567.7 510.4 566.8 509.9 566.1 509.15 565.7 508.25 565.55 507.25 565.7 506.25 566.15 505.35 566.9 504.65 567.8 504.2 568.8 504.05 569.8 504.2 570.7 504.7 571.4 505.45 571.85 506.35 571.95 507.35 571.8 508.35 571.3 509.25 570.55 509.95 569.65 510.4 M471.25 514.5 L471.25 521.5 458.25 521.5 458.25 517.0 438.75 517.0 438.75 506.0 437.25 505.0 436.25 503.5 435.75 501.5 436.1 499.45 437.25 497.75 438.75 496.75 440.5 496.5 442.5 496.75 444.25 497.75 445.25 499.25 458.25 499.25 458.25 495.25 469.75 495.25 469.75 501.25 471.5 501.25 471.5 514.5 477.25 514.5 477.25 521.5 477.5 521.5 477.5 514.5 477.25 514.5 477.25 512.0 505.5 512.0 508.25 513.0 509.25 515.5 509.25 547.0 512.25 547.0 512.25 560.5 498.5 560.5 498.5 565.75 484.5 565.75 484.5 547.25 465.0 547.25 465.0 545.25 461.5 544.5 458.5 542.25 457.0 538.75 457.0 535.25 458.5 531.75 461.25 529.5 465.0 528.75 465.0 527.0 477.25 527.0 477.25 521.5 471.5 521.5 471.5 514.5 471.25 514.5 M608.4 521.9 L608.45 521.85 606.95 527.6 597.1 527.4 595.55 515.75 594.8 515.85 593.35 504.75 592.85 504.8 591.6 495.4 601.0 494.15 601.4 497.35 607.85 496.5 609.45 508.65 606.25 509.05 606.95 514.5 607.45 514.45 607.65 515.95 607.05 516.0 607.8 521.75 608.4 521.9 M524.0 491.0 L524.0 505.5 497.75 505.5 497.75 490.75 523.0 490.75 523.0 491.0 524.0 491.0" fill="#8d8d8d" fill-rule="evenodd" stroke="none"/>
    </g>
    <g id="shape25" transform="matrix(1.0, 0.0, 0.0, 1.0, -379.0, -554.7)">
      <path d="M404.65 635.75 L404.6 635.75 398.2 637.55 380.6 622.75 383.15 619.7 379.0 611.0 393.8 593.4 402.3 591.4 415.7 602.65 417.8 600.15 421.25 603.05 421.55 606.2 417.7 610.8 418.5 613.75 404.2 630.8 403.35 631.05 404.65 635.75 M486.0 568.75 L486.0 581.0 472.5 581.0 472.5 577.5 464.0 577.5 464.0 568.75 486.0 568.75 M445.6 562.05 L445.55 562.05 445.25 562.15 444.95 562.1 444.65 562.0 444.4 561.8 444.25 561.55 444.2 561.25 444.2 560.95 444.3 560.65 444.5 560.4 444.75 560.25 445.05 560.15 445.35 560.2 445.65 560.3 445.9 560.5 446.05 560.75 446.15 561.05 446.15 561.35 446.05 561.65 445.85 561.9 445.6 562.05 M549.0 558.75 L549.0 568.0 539.75 568.0 539.75 558.75 549.0 558.75 M476.45 561.35 L476.45 561.3 475.4 561.45 474.35 561.3 473.4 560.8 472.65 560.05 472.15 559.15 471.95 558.1 472.15 557.05 472.65 556.1 473.4 555.4 474.35 554.9 475.4 554.7 476.45 554.9 477.4 555.4 478.15 556.1 478.65 557.05 478.8 558.1 478.65 559.15 478.15 560.1 477.4 560.85 476.45 561.35" fill="#8d8d8d" fill-rule="evenodd" stroke="none"/>
    </g>
    <g id="shape26" transform="matrix(1.0, 0.0, 0.0, 1.0, -424.9, -362.0)">
      <path d="M450.75 407.25 L450.65 407.25 452.9 409.5 451.15 409.5 428.9 387.25 428.9 383.25 424.9 379.25 424.9 369.75 432.65 362.0 437.9 362.0 441.4 365.5 445.9 365.5 447.4 367.0 447.4 369.75 447.15 369.75 447.15 367.5 445.9 366.25 443.4 366.25 441.75 367.9 435.1 363.95 434.4 364.1 429.3 368.3 428.85 368.85 426.35 374.8 426.4 375.35 432.0 385.0 434.5 388.25 436.5 390.5 445.25 397.75 451.75 404.0 450.75 405.0 450.75 407.25" fill="#666666" fill-rule="evenodd" stroke="none"/>
    </g>
    <g id="shape27" transform="matrix(1.0, 0.0, 0.0, 1.0, -374.6, -369.75)">
      <path d="M750.0 765.0 L750.1 765.0 750.1 965.0 695.1 965.0 695.1 770.0 667.6 742.5 662.6 742.5 640.1 720.0 627.6 720.0 615.1 707.5 607.6 707.5 592.6 692.5 592.6 685.0 577.6 670.0 577.6 665.0 567.6 655.0 567.6 650.0 560.1 642.5 560.1 630.0 552.6 622.5 552.6 608.0 539.85 595.25 539.85 583.75 535.1 579.0 497.85 579.0 487.1 589.75 471.6 589.75 465.85 584.0 458.6 584.0 453.1 589.5 442.6 589.5 435.6 596.5 435.6 613.25 431.6 617.25 431.6 623.5 428.6 626.5 425.85 626.5 424.1 628.25 424.1 638.25 409.6 652.75 403.35 652.75 401.35 650.75 390.6 650.75 381.6 641.75 381.6 632.5 384.75 627.65 382.35 625.75 379.6 625.75 377.85 624.0 377.85 618.75 374.6 615.5 374.6 610.75 379.1 606.25 379.1 601.75 395.35 585.5 414.1 585.5 423.1 594.5 427.85 594.5 430.35 592.0 430.35 588.5 421.85 580.0 418.1 580.0 412.6 574.5 412.6 559.5 415.1 557.0 415.1 554.0 416.35 552.5 416.35 537.25 414.35 535.25 414.35 520.25 416.85 517.75 416.85 535.25 418.35 536.75 418.35 553.5 416.1 555.75 416.1 564.25 418.35 566.5 418.35 568.25 414.6 572.0 414.6 574.75 418.35 578.5 419.85 578.5 421.85 576.5 421.85 574.25 423.85 572.25 425.35 572.25 425.35 569.75 423.85 569.75 420.85 566.75 420.85 561.25 419.85 560.25 419.85 552.25 420.85 551.25 420.85 542.75 420.1 542.0 420.1 517.2 423.35 513.95 423.35 512.0 427.5 507.85 427.5 505.2 425.65 503.45 425.0 501.3 422.9 499.2 422.9 497.25 426.6 493.55 429.95 493.55 433.5 490.1 439.0 490.1 440.9 492.4 437.35 493.1 434.4 495.05 432.4 498.0 431.7 501.45 432.4 504.85 434.25 507.75 434.25 509.75 432.25 509.75 426.25 515.75 426.25 521.5 424.25 523.5 424.25 540.0 423.25 541.0 423.25 547.0 422.25 548.0 422.25 559.25 424.5 561.5 424.5 563.25 425.5 566.0 425.5 572.25 423.5 574.25 423.5 575.25 424.5 577.25 429.5 581.25 431.25 582.75 436.25 584.75 439.5 583.25 445.0 582.5 452.0 580.75 467.75 580.75 467.75 584.25 477.0 584.25 477.0 581.0 486.0 581.0 486.0 568.75 520.25 568.75 520.25 569.5 518.5 571.25 520.5 573.25 530.0 573.25 535.45 570.95 535.45 570.25 540.5 570.25 540.5 568.0 545.75 568.0 545.75 569.75 548.5 572.5 548.5 579.75 547.0 581.25 547.0 587.75 550.25 593.0 550.25 595.5 561.0 606.25 561.0 616.75 566.75 622.5 566.75 635.0 575.0 643.25 575.0 657.5 580.5 663.0 627.5 710.0 640.0 710.0 662.5 732.5 682.5 732.5 750.0 765.0 M465.0 492.5 L447.5 495.25 445.0 493.5 449.4 492.85 454.4 492.15 455.5 492.0 460.5 491.3 461.6 491.15 466.6 490.45 467.7 490.3 473.2 489.55 476.5 489.25 505.5 489.25 505.5 490.75 497.75 490.75 497.75 494.25 482.25 494.25 482.25 492.5 465.0 492.5 M523.0 484.5 L523.0 490.75 508.5 490.75 508.5 489.25 513.5 489.25 513.5 484.5 523.0 484.5 M455.5 371.25 L454.75 372.0 452.5 372.0 447.25 369.75 454.0 369.75 455.5 371.25" fill="#666666" fill-rule="evenodd" stroke="none"/>
    </g>
    <g id="shape28" transform="matrix(1.0, 0.0, 0.0, 1.0, -379.05, -581.0)">
      <path d="M397.25 647.0 L397.2 647.0 407.45 647.0 415.95 638.5 418.85 626.9 432.7 609.5 432.7 599.0 436.45 591.5 440.2 587.75 451.2 587.75 456.2 582.75 456.2 581.0 452.45 581.0 452.45 582.25 449.2 585.5 438.2 585.5 434.7 589.0 427.2 599.5 427.2 607.25 425.7 610.75 422.45 614.0 422.45 611.0 425.2 606.75 425.2 605.5 423.2 601.0 409.4 590.25 405.95 594.25 402.35 591.4 393.85 593.4 379.05 611.0 383.2 619.7 380.75 622.75 389.0 629.75 387.25 631.5 392.5 636.25 395.25 637.75 395.15 637.85 395.5 638.0 395.75 638.0 395.25 637.75 396.75 636.25 398.25 637.55 404.65 635.75 406.75 635.0 414.5 627.25 415.25 627.25 415.25 628.5 412.5 631.5 412.5 633.5 405.5 640.5 391.5 640.5 387.5 636.5 387.5 632.15 386.25 631.0 384.75 627.75 384.75 627.5 384.65 627.65 384.75 627.75 383.25 630.0 384.5 631.25 384.5 639.25 390.0 644.75 392.75 644.75 397.25 647.0" fill="#666666" fill-rule="evenodd" stroke="none"/>
    </g>
    <g id="shape29" transform="matrix(1.0, 0.0, 0.0, 1.0, -387.5, -30.0)">
      <path d="M463.75 333.25 L463.75 350.75 460.75 353.75 460.75 348.75 458.0 346.0 458.0 335.25 460.0 333.25 460.0 316.0 468.0 308.0 468.0 293.75 474.5 287.25 474.5 143.0 502.5 120.0 502.5 30.0 550.0 30.0 550.0 87.5 527.5 110.0 527.5 160.0 500.0 187.5 500.0 240.0 487.5 252.5 487.5 280.0 474.5 296.0 474.5 308.0 466.5 316.0 466.5 330.5 463.75 333.25 M475.0 607.5 L470.0 612.5 467.5 609.75 467.5 602.5 470.0 600.0 475.0 605.0 475.0 607.5 M523.75 571.75 L523.0 571.0 523.0 568.75 523.5 568.75 523.5 570.75 527.75 570.75 531.5 570.25 531.5 570.5 527.5 571.75 523.75 571.75 M454.25 576.75 L454.25 576.8 454.25 578.55 441.75 578.55 436.0 575.8 436.0 574.05 429.0 567.05 425.25 556.05 425.25 553.55 426.25 552.55 426.25 544.3 428.0 542.55 428.0 540.8 428.5 540.8 428.5 550.8 428.75 556.55 429.4 559.2 431.15 564.05 434.25 568.4 439.25 573.05 443.85 575.95 449.15 576.8 454.25 576.75 M392.0 639.25 L392.0 639.2 393.75 639.2 395.15 637.8 392.0 636.2 387.75 632.3 387.75 631.95 387.5 631.7 387.5 632.1 387.75 632.35 387.75 635.0 392.0 639.25 M407.0 629.25 L407.0 630.75 404.25 630.75 418.5 613.75 418.5 618.25 407.0 629.25" fill="#666666" fill-rule="evenodd" stroke="none"/>
    </g>
    <g id="shape30" transform="matrix(1.0, 0.0, 0.0, 1.0, -505.5, -422.75)">
      <path d="M571.25 488.5 L571.3 488.45 570.05 489.2 569.85 488.65 569.7 488.0 571.05 487.65 571.2 488.3 571.25 488.5 M560.5 487.5 L560.0 487.75 559.5 486.0 560.0 485.75 560.55 485.6 561.0 487.35 560.5 487.5 M524.25 492.5 L524.25 494.0 523.5 494.0 523.5 492.5 524.25 492.5 M589.0 526.2 L588.6 527.0 587.25 526.4 588.65 523.45 590.0 524.05 589.6 524.85 590.1 525.05 589.5 526.45 589.0 526.2 M607.0 513.5 L606.0 513.65 605.85 512.4 606.85 512.25 607.0 513.5 M592.95 500.45 L591.95 500.6 591.8 499.35 592.8 499.2 592.95 500.45 M603.2 497.85 L601.95 498.0 601.8 497.0 603.05 496.85 603.2 497.85 M542.5 492.0 L542.5 492.75 541.0 492.75 541.0 492.0 542.5 492.0 M547.25 486.75 L547.25 488.0 546.5 488.0 546.5 486.75 547.25 486.75 M546.5 483.75 L546.5 485.0 545.75 485.0 545.75 483.75 546.5 483.75 M537.75 473.5 L537.75 476.75 530.75 476.75 530.75 473.5 535.0 473.5 535.0 473.0 536.25 473.0 536.25 473.5 537.75 473.5 M523.25 470.75 L521.5 471.25 520.25 471.25 519.75 471.0 519.75 462.5 523.25 462.5 523.75 468.75 523.75 470.0 523.25 470.75 M539.75 457.75 L539.75 468.0 537.75 468.0 537.75 467.75 537.25 467.75 537.25 466.75 537.75 466.75 537.75 462.25 532.25 462.25 532.25 462.75 531.25 462.75 531.25 462.25 530.25 462.25 530.25 459.25 531.75 459.25 531.75 456.5 532.25 456.5 532.25 451.0 536.5 451.0 536.5 457.75 539.75 457.75 M607.85 485.3 L607.6 486.0 606.45 485.55 606.7 484.85 607.85 485.3 M605.45 480.2 L605.0 481.35 604.3 481.1 604.75 479.95 605.45 480.2 M562.5 557.0 L562.5 558.5 561.75 558.5 561.75 557.0 562.5 557.0 M566.25 553.75 L566.25 554.5 564.75 554.5 564.75 553.75 566.25 553.75 M518.5 424.75 L518.5 427.75 517.25 427.75 517.25 422.75 518.5 422.75 518.5 423.5 519.0 423.5 519.0 424.75 518.5 424.75 M522.75 554.0 L522.75 559.0 514.25 559.0 513.5 558.0 513.5 555.0 514.25 554.0 514.5 554.0 514.5 549.0 517.25 549.0 517.25 554.0 522.75 554.0 M517.25 546.0 L517.25 549.0 514.5 549.0 514.5 548.0 514.0 548.0 514.0 546.75 514.5 546.75 514.5 546.0 517.25 546.0 M521.25 505.0 L521.25 505.5 518.25 505.5 518.25 505.0 519.25 505.0 519.25 504.5 520.5 504.5 520.5 505.0 521.25 505.0 M507.75 491.0 L507.75 491.5 506.25 491.5 506.25 491.0 505.5 491.0 505.5 490.75 508.5 490.75 508.5 491.0 507.75 491.0 M540.25 565.25 L540.25 566.75 539.75 566.75 539.75 565.25 540.25 565.25" fill="#d9d9d9" fill-rule="evenodd" stroke="none"/>
    </g>
    <g id="shape31" transform="matrix(1.0, 0.0, 0.0, 1.0, -379.0, -390.5)">
      <path d="M611.25 480.4 L611.2 480.4 609.25 485.8 607.85 485.3 606.7 484.85 604.1 483.9 605.05 481.3 605.5 480.15 606.1 478.5 611.25 480.4 M569.8 488.7 L569.75 488.75 562.95 490.55 560.95 489.55 560.45 487.55 560.95 487.4 560.5 485.65 559.95 485.8 559.2 482.8 558.7 475.3 557.7 469.55 554.95 461.55 554.45 460.55 553.95 459.55 552.2 455.55 556.2 453.55 557.2 453.05 558.2 452.55 564.95 449.3 570.95 448.55 577.2 455.55 580.7 460.3 577.7 462.55 576.7 463.3 575.7 464.05 575.2 464.3 570.95 468.05 572.95 470.8 573.45 471.55 573.95 472.3 581.2 468.55 589.95 469.55 595.7 469.55 602.2 472.05 599.7 478.55 593.7 483.05 588.2 484.55 579.95 486.05 571.15 488.35 571.0 487.7 569.65 488.05 569.8 488.7 M541.0 492.0 L541.0 492.5 533.75 492.5 533.75 491.0 523.0 491.0 523.0 480.25 535.0 480.25 535.0 476.75 537.75 476.75 537.75 473.5 536.25 473.5 536.25 473.0 535.0 473.0 535.0 473.5 530.75 473.5 530.75 476.75 518.75 476.75 518.75 470.75 520.25 471.25 521.5 471.25 523.5 470.75 523.75 470.0 523.75 468.75 523.5 462.5 529.75 462.5 531.25 462.75 532.25 462.75 537.75 462.5 537.75 466.75 537.25 466.75 537.25 467.75 537.75 467.75 537.75 468.0 539.75 468.0 539.75 457.75 546.25 457.75 546.25 461.5 547.0 461.5 550.75 468.0 550.75 480.75 546.25 480.75 546.25 483.75 545.75 483.75 545.75 485.0 546.25 485.0 546.25 485.75 547.0 485.75 547.0 486.75 546.5 486.75 546.5 488.0 547.0 488.0 547.0 492.5 542.5 492.5 542.5 492.0 541.0 492.0 M624.4 538.2 L624.3 538.25 619.6 548.45 600.75 546.9 588.95 541.4 585.25 534.3 588.65 527.0 589.0 526.25 589.5 526.5 590.1 525.1 589.6 524.9 590.0 524.1 590.6 523.0 624.4 538.2 M607.35 521.75 L607.35 521.7 595.7 523.25 593.25 504.65 592.75 504.7 592.2 500.5 592.95 500.4 592.8 499.15 592.05 499.25 591.55 495.3 600.95 494.05 601.35 497.25 601.85 497.2 601.95 497.95 603.2 497.8 603.1 497.05 607.8 496.45 609.4 508.6 606.2 509.0 606.6 512.2 605.85 512.3 606.0 513.55 606.75 513.45 606.9 514.45 607.4 514.4 607.6 515.9 606.6 516.05 607.35 521.75 M549.0 558.75 L549.0 568.0 539.75 568.0 539.75 566.75 540.25 566.75 540.25 565.25 539.75 565.25 539.75 558.75 549.0 558.75 M462.25 502.0 L462.25 513.0 459.0 513.0 459.0 502.0 459.75 502.0 459.75 501.5 459.0 501.5 459.0 496.0 469.0 496.0 469.0 501.5 461.25 501.5 461.25 502.0 462.25 502.0 M477.25 576.75 L477.2 576.8 472.45 577.05 464.45 577.05 464.45 569.05 467.2 568.8 467.2 567.8 466.45 567.8 466.45 551.3 484.45 551.3 484.45 539.55 486.2 539.55 486.2 539.05 484.45 539.05 484.45 538.55 484.15 538.0 477.25 531.1 480.4 527.95 487.3 534.85 487.75 535.35 488.15 535.9 488.45 536.5 488.7 537.1 488.9 537.75 489.0 538.4 488.95 539.05 487.45 539.05 487.45 539.55 488.95 539.55 488.95 546.05 490.45 546.05 490.45 545.3 503.45 545.3 503.45 543.8 502.7 543.8 502.7 537.8 496.45 537.8 496.45 533.3 502.45 533.3 502.45 527.3 503.45 527.3 503.45 525.8 483.7 525.8 483.7 527.3 477.7 527.3 477.7 514.55 479.95 514.55 479.95 521.55 484.7 521.55 484.7 503.3 495.7 503.3 495.7 494.8 505.45 494.8 505.45 491.55 523.45 491.55 523.45 504.55 521.2 504.55 521.2 505.05 520.45 505.05 520.45 504.55 519.2 504.55 519.2 505.05 504.95 505.05 504.95 502.3 501.2 502.3 501.2 514.8 513.7 514.8 513.7 527.3 515.2 527.3 516.2 527.45 516.9 527.8 517.4 528.4 517.7 529.25 518.5 533.0 519.0 535.75 519.25 537.25 519.25 537.75 508.5 537.75 508.5 531.25 507.0 531.25 507.0 539.25 519.25 539.25 519.25 543.75 506.25 543.75 506.25 545.25 514.0 545.25 514.0 546.0 514.5 546.0 514.5 546.75 514.0 546.75 514.0 548.0 514.5 548.0 514.5 549.0 513.5 554.0 513.5 561.75 496.5 561.75 496.5 549.75 495.0 549.75 495.0 553.25 494.0 553.25 494.0 561.0 488.25 561.0 488.25 558.5 491.75 558.5 491.75 553.25 490.75 553.25 490.75 549.0 489.0 549.0 489.0 555.75 484.5 555.75 484.5 555.0 483.25 555.0 483.25 567.75 470.5 567.75 470.5 568.75 472.5 569.0 472.5 574.0 477.25 574.25 477.25 576.75 M568.25 554.25 L568.25 565.0 562.75 565.0 562.75 560.75 562.25 560.75 562.25 558.75 562.5 558.5 562.5 557.0 562.25 556.75 562.25 554.25 564.5 554.25 564.75 554.5 566.25 554.5 566.5 554.25 568.25 554.25 M400.9 627.4 L400.9 627.45 393.9 628.75 386.45 622.5 384.2 625.2 381.5 622.95 383.75 620.25 383.15 619.75 379.0 611.05 393.8 593.45 402.3 591.45 415.7 602.7 412.15 606.9 402.0 598.4 397.7 603.9 404.8 609.85 398.55 617.3 393.75 613.3 392.15 615.2 399.8 621.65 415.7 602.7 417.8 600.2 421.25 603.1 421.55 606.25 417.2 611.4 415.5 609.95 400.9 627.4 M466.85 397.2 L459.95 404.1 453.25 397.4 460.15 390.5 466.85 397.2 M525.25 425.75 L525.25 428.75 518.75 428.75 518.75 425.0 519.0 424.75 519.0 423.5 518.75 423.25 518.75 417.0 530.0 417.0 530.0 425.75 525.25 425.75" fill="#c0c0c0" fill-rule="evenodd" stroke="none"/>
    </g>
    <g id="shape32" transform="matrix(1.0, 0.0, 0.0, 1.0, -505.5, -422.25)">
      <path d="M519.75 536.0 L511.5 537.5 510.35 531.8 510.75 531.75 511.75 537.0 519.0 535.75 519.75 536.0 M512.75 494.5 L512.75 495.0 505.5 495.0 505.5 494.5 512.75 494.5 M518.5 427.75 L518.5 428.25 516.75 428.25 516.75 422.25 518.5 422.25 518.5 422.75 517.25 422.75 517.25 427.75 518.5 427.75 M594.6 505.3 L594.1 505.35 593.6 501.4 598.55 500.75 598.6 501.25 594.15 501.85 594.6 505.3 M600.9 499.45 L600.9 499.4 598.4 499.75 598.1 497.5 594.65 497.95 594.6 497.45 598.55 496.95 598.85 499.2 600.85 498.95 600.9 499.45 M542.75 561.75 L542.75 565.0 542.25 565.0 542.25 561.25 546.5 561.25 546.5 564.5 548.5 564.5 548.5 565.0 546.0 565.0 546.0 561.75 542.75 561.75 M520.0 462.75 L520.0 470.75 519.5 470.75 519.5 462.25 520.5 462.25 520.5 462.75 520.0 462.75 M534.75 453.25 L534.75 459.75 530.25 459.75 530.25 459.25 534.25 459.25 534.25 453.25 534.75 453.25 M536.4 533.3 L536.3 533.3 529.4 534.55 528.6 530.05 535.5 528.8 536.35 528.65 537.05 528.65 537.75 528.85 538.35 529.25 538.8 529.8 539.05 530.45 539.05 531.15 538.85 531.85 538.45 532.45 537.9 532.9 537.25 533.15 536.4 533.3" fill="#929292" fill-rule="evenodd" stroke="none"/>
    </g>
    <g id="shape33" transform="matrix(1.0, 0.0, 0.0, 1.0, -379.0, -532.55)">
      <path d="M400.9 627.4 L400.8 627.4 393.8 628.7 386.35 622.45 390.05 618.05 390.45 618.35 387.05 622.35 393.95 628.2 400.55 626.8 415.25 609.25 417.1 610.8 420.95 606.05 420.7 603.25 417.85 600.85 415.75 603.35 412.7 600.8 411.25 602.5 412.95 603.95 412.65 604.35 410.55 602.6 412.3 600.5 402.15 592.0 394.0 593.95 385.15 604.5 390.3 608.85 390.0 609.25 384.85 604.9 379.55 611.2 383.65 619.55 387.05 615.55 387.45 615.85 383.75 620.25 383.15 619.75 379.0 611.05 393.8 593.45 402.3 591.45 415.7 602.7 417.8 600.2 421.25 603.1 421.55 606.25 417.2 611.4 415.5 609.95 400.9 627.4 M467.5 568.75 L467.5 573.75 467.0 573.75 467.0 568.75 467.5 568.75 M470.75 568.75 L470.75 573.75 470.25 573.75 470.25 568.75 470.75 568.75 M522.75 559.0 L522.75 559.5 515.5 559.5 515.5 559.0 522.75 559.0 M522.75 553.5 L522.75 554.0 515.5 554.0 515.5 553.5 522.75 553.5 M520.75 551.25 L520.75 551.75 517.25 551.75 517.25 547.5 517.75 547.5 517.75 551.25 520.75 551.25 M518.5 533.0 L513.5 534.0 513.4 533.55 518.4 532.55 518.5 533.0" fill="#929292" fill-rule="evenodd" stroke="none"/>
    </g>
    <g id="shape34" transform="matrix(1.0, 0.0, 0.0, 1.0, -389.3, -598.0)">
      <path d="M394.6 607.7 L394.3 608.1 389.3 603.9 389.6 603.5 394.6 607.7 M412.8 607.0 L412.85 606.95 400.0 622.25 391.95 615.5 392.25 615.1 399.9 621.55 412.1 607.0 402.15 598.65 398.15 603.8 397.75 603.5 402.05 598.0 412.8 607.0" fill="#929292" fill-rule="evenodd" stroke="none"/>
    </g>
    <g id="shape35" transform="matrix(1.0, 0.0, 0.0, 1.0, -391.5, -609.65)">
      <path d="M399.1 617.05 L398.8 617.45 391.5 611.35 391.8 610.95 399.1 617.05 M401.15 609.95 L401.15 610.0 398.6 613.05 395.9 610.8 394.45 612.5 394.05 612.2 395.8 610.1 398.5 612.35 400.75 609.65 401.15 609.95" fill="#929292" fill-rule="evenodd" stroke="none"/>
    </g>
    <g id="shape36" transform="matrix(1.0, 0.0, 0.0, 1.0, -456.95, -394.15)">
      <path d="M566.7 482.8 L565.25 483.15 565.0 482.2 565.5 482.1 565.6 482.35 566.55 482.1 566.7 482.8 M569.7 481.95 L569.75 481.9 567.85 482.45 567.65 481.75 568.85 481.4 568.1 478.65 568.75 478.5 569.7 481.95 M566.8 473.75 L566.5 474.0 566.0 473.25 568.75 471.5 568.95 471.8 566.55 473.4 566.8 473.75 M463.15 397.35 L463.2 397.3 460.2 400.3 457.0 397.1 457.7 397.1 460.15 399.6 462.45 397.3 459.95 394.85 457.65 397.15 456.95 397.15 459.95 394.15 463.15 397.35 M570.25 511.25 L570.2 511.25 568.9 511.55 567.55 511.4 566.35 510.85 565.35 509.95 564.7 508.8 564.4 507.5 564.55 506.15 565.1 504.9 566.0 503.9 567.15 503.25 568.45 502.95 569.8 503.1 571.05 503.65 572.05 504.55 572.7 505.7 573.0 507.0 572.85 508.35 572.3 509.6 571.4 510.6 570.25 511.25" fill="#8d8d8d" fill-rule="evenodd" stroke="none"/>
    </g>
    <g id="shape37" transform="matrix(1.0, 0.0, 0.0, 1.0, -383.75, -392.75)">
      <path d="M568.75 471.5 L566.0 473.25 564.95 471.5 567.5 469.75 568.75 471.5 M548.5 561.25 L548.5 564.5 546.5 564.5 546.5 561.25 548.5 561.25 M542.25 561.25 L542.25 565.0 540.25 565.0 540.25 561.25 542.25 561.25 542.25 559.25 546.5 559.25 546.5 561.25 542.25 561.25 M527.5 420.0 L527.5 422.0 523.0 422.0 523.0 420.0 527.5 420.0 M527.5 417.25 L527.5 419.0 524.25 419.0 524.25 417.25 527.5 417.25 M542.0 483.75 L542.0 485.75 537.25 485.75 537.25 483.75 542.0 483.75 M541.5 480.75 L541.5 482.75 537.25 482.75 537.25 480.75 541.5 480.75 M528.0 474.25 L528.0 476.25 523.25 476.25 523.25 474.25 528.0 474.25 M528.0 471.25 L528.0 473.25 523.25 473.25 523.25 471.25 528.0 471.25 M536.5 453.25 L536.5 459.75 534.75 459.75 534.75 453.25 536.5 453.25 M596.5 547.25 L593.5 554.0 590.75 552.75 592.75 548.25 592.75 547.5 592.25 547.0 587.25 544.75 588.75 541.75 595.5 544.75 596.65 545.85 596.5 547.25 M617.75 543.35 L616.4 546.3 611.3 543.85 612.65 541.0 617.75 543.35 M620.5 537.2 L620.55 537.2 619.15 540.15 612.95 537.2 614.25 534.3 620.5 537.2 M613.25 522.5 L613.25 522.55 610.5 528.45 606.85 527.65 608.35 521.65 613.25 522.5 M598.85 503.2 L597.6 503.35 597.35 501.35 598.6 501.2 598.85 503.2 M604.7 503.45 L602.2 503.8 601.75 500.35 604.25 500.0 604.7 503.45 M608.05 504.05 L605.55 504.4 604.95 499.95 607.45 499.6 608.05 504.05 M600.8 498.95 L598.8 499.2 598.5 496.95 600.5 496.7 600.8 498.95 M598.55 496.95 L594.6 497.45 594.35 495.7 598.3 495.2 598.55 496.95 M464.35 398.6 L461.35 401.6 460.1 400.35 463.1 397.35 464.35 398.6 M460.1 400.4 L458.7 401.8 455.5 398.6 456.9 397.2 460.1 400.4 M459.95 394.2 L456.95 397.2 455.7 395.95 458.7 392.95 459.95 394.2 M464.55 395.95 L463.15 397.35 459.95 394.15 461.35 392.75 464.55 395.95 M390.1 625.5 L387.85 628.2 384.2 625.15 386.45 622.45 390.1 625.5 M390.15 618.05 L386.45 622.45 383.75 620.2 387.45 615.8 390.15 618.05 M398.6 613.05 L397.15 614.75 394.45 612.5 395.9 610.8 398.6 613.05 401.15 610.0 402.85 611.45 400.3 614.5 398.6 613.05 M392.35 606.5 L390.4 608.8 387.35 606.25 389.3 603.95 392.35 606.5 M412.75 604.35 L411.45 605.9 409.35 604.15 410.65 602.6 412.75 604.35 M477.25 574.25 L477.25 576.75 473.0 576.75 473.0 574.25 477.25 574.25 M470.25 569.0 L470.25 573.75 467.5 573.75 467.5 569.0 470.25 569.0 M491.75 558.5 L491.75 561.0 488.25 561.0 488.25 558.5 491.75 558.5 491.75 554.5 494.0 554.5 494.0 558.5 491.75 558.5 M522.75 554.0 L522.75 559.0 515.5 559.0 515.5 554.0 522.75 554.0 M520.75 551.75 L520.75 553.5 517.25 553.5 517.25 551.75 515.5 551.75 515.5 549.0 517.25 549.0 517.25 551.75 520.75 551.75 M513.5 534.0 L511.25 534.5 510.75 531.75 513.0 531.25 513.5 534.0 M487.35 534.8 L484.2 537.95 477.3 531.05 480.45 527.9 487.35 534.8 M480.0 514.5 L480.0 521.5 477.75 521.5 477.75 514.5 480.0 514.5 M462.25 504.5 L462.25 513.0 459.0 513.0 459.0 504.5 462.25 504.5 M467.0 496.0 L467.0 498.25 461.75 498.25 461.75 496.0 467.0 496.0 M523.5 494.75 L523.5 498.75 520.5 498.75 520.5 494.75 523.5 494.75 M512.75 491.5 L512.75 494.5 508.25 494.5 508.25 491.5 512.75 491.5 M520.5 491.5 L520.5 494.75 516.25 494.75 516.25 491.5 520.5 491.5" fill="#f0f0f0" fill-rule="evenodd" stroke="none"/>
    </g>
    <g id="shape38" transform="matrix(1.0, 0.0, 0.0, 1.0, -453.25, -390.5)">
      <path d="M605.8 506.35 L605.85 506.45 605.1 506.55 604.8 504.3 596.85 505.35 596.8 504.85 597.8 504.7 597.6 503.45 601.35 502.95 600.3 495.0 592.35 496.05 592.75 499.25 592.0 499.35 591.5 495.4 600.9 494.15 601.3 497.35 601.8 497.3 601.9 498.05 601.4 498.1 602.15 503.8 604.65 503.45 604.2 500.0 604.95 499.9 605.8 506.35 M466.85 397.2 L459.95 404.1 453.25 397.4 454.3 397.4 459.95 403.05 465.8 397.2 460.15 391.55 454.3 397.4 453.25 397.4 460.15 390.5 466.85 397.2 M472.65 561.75 L472.65 563.3 471.1 563.3 471.1 561.75 472.65 561.75 M478.65 561.75 L478.65 563.3 477.1 563.3 477.1 561.75 478.65 561.75 M502.65 555.75 L502.65 557.3 501.1 557.3 501.1 555.75 502.65 555.75 M472.65 555.75 L472.65 557.3 471.1 557.3 471.1 555.75 472.65 555.75 M478.65 555.75 L478.65 557.3 477.1 557.3 477.1 555.75 478.65 555.75 M502.65 549.75 L502.65 551.3 501.1 551.3 501.1 549.75 502.65 549.75 M508.65 549.75 L508.65 551.3 507.1 551.3 507.1 549.75 508.65 549.75 M514.5 533.5 L513.4 533.55 513.0 531.75 514.5 531.75 514.5 533.5 M508.75 519.75 L508.75 521.25 507.25 521.25 507.25 519.75 508.75 519.75 M490.5 519.75 L490.5 521.25 489.0 521.25 489.0 519.75 490.5 519.75 M496.75 519.75 L496.75 521.25 495.25 521.25 495.25 519.75 496.75 519.75 M502.5 519.75 L502.5 521.25 501.0 521.25 501.0 519.75 502.5 519.75 M497.5 513.75 L497.5 515.25 488.25 515.25 488.25 513.75 497.5 513.75 M488.25 513.75 L488.25 513.75 488.25 513.75 488.25 513.75 M490.75 507.75 L490.75 509.25 489.0 509.25 489.0 507.75 490.75 507.75 M496.75 507.75 L496.75 509.25 495.0 509.25 495.0 507.75 496.75 507.75 M467.0 498.25 L467.0 501.75 466.5 501.75 466.5 499.25 461.75 499.25 461.75 498.25 467.0 498.25" fill="#8d8d8d" fill-rule="evenodd" stroke="none"/>
    </g>
    <g id="shape39" transform="matrix(1.0, 0.0, 0.0, 1.0, -603.1, -496.55)">
      <path d="M606.6 512.3 L606.55 512.35 605.8 512.45 605.2 507.75 605.95 507.65 606.05 508.4 608.55 508.05 607.15 497.4 603.2 497.9 603.1 497.15 607.8 496.55 609.4 508.7 606.2 509.1 606.6 512.3" fill="#8d8d8d" fill-rule="evenodd" stroke="none"/>
    </g>
    <g id="shape40" transform="matrix(1.0, 0.0, 0.0, 1.0, -570.5, -500.5)">
      <path d="M624.85 537.9 L624.95 538.0 605.95 579.6 570.5 563.35 575.05 554.15 587.8 559.9 590.8 552.9 593.55 554.15 596.55 547.4 596.7 546.0 595.55 544.9 588.8 541.9 587.3 544.9 578.05 540.9 582.05 532.15 584.45 533.25 587.35 526.55 588.7 527.15 589.1 526.35 589.6 526.6 589.25 527.35 589.75 527.55 586.8 534.0 593.45 537.15 593.25 537.6 591.7 536.85 589.55 541.4 594.1 543.55 596.25 539.0 594.5 538.15 594.7 537.7 598.85 539.65 598.65 540.1 597.05 539.4 594.9 543.95 599.45 546.1 601.6 541.55 599.9 540.65 600.1 540.2 601.25 540.8 601.85 539.45 619.35 547.75 623.45 538.65 614.2 534.4 612.9 537.3 619.1 540.25 617.75 543.45 603.25 536.8 606.0 530.9 591.2 524.0 590.95 524.65 590.45 524.4 590.1 525.15 589.6 524.95 590.0 524.15 588.65 523.55 590.5 519.55 590.15 516.75 594.75 516.15 593.25 504.75 592.75 504.8 592.2 500.6 592.95 500.5 593.4 503.95 594.15 503.85 594.55 505.05 595.55 504.9 595.6 505.4 594.1 505.6 596.3 522.45 606.45 521.1 605.6 514.65 606.1 514.6 605.95 513.6 606.7 513.5 606.85 514.5 607.35 514.45 607.55 515.95 606.55 516.1 607.3 521.8 608.3 521.65 606.8 527.65 610.45 528.45 613.2 522.55 630.1 530.15 626.45 538.7 624.85 537.9" fill="#8d8d8d" fill-rule="evenodd" stroke="none"/>
    </g>
    <g id="shape41" transform="matrix(1.0, 0.0, 0.0, 1.0, -518.75, -457.75)">
      <path d="M545.75 483.75 L545.75 480.75 542.0 480.75 542.0 483.75 537.25 483.75 537.25 482.75 541.5 482.75 541.5 480.75 535.0 480.75 535.0 485.75 545.75 485.75 545.75 485.0 546.25 485.0 546.25 485.75 547.0 485.75 547.0 486.75 546.5 486.75 546.5 486.25 540.75 486.25 540.75 486.75 540.25 486.75 540.25 486.25 534.25 486.25 534.25 490.75 540.25 490.75 540.25 487.75 540.75 487.75 540.75 492.0 541.0 492.0 541.0 492.5 533.5 492.5 533.5 491.0 523.0 491.0 523.0 480.25 524.25 480.25 524.25 476.75 518.75 476.75 518.75 470.75 520.25 470.75 520.25 471.25 519.25 471.25 519.25 476.25 530.25 476.25 530.25 471.25 521.5 471.25 521.5 470.75 523.25 470.75 523.25 470.0 523.75 470.0 523.75 470.75 529.75 470.75 529.75 465.0 530.25 465.0 530.25 468.75 535.0 468.75 535.0 469.25 534.0 469.25 534.0 473.0 535.0 473.0 535.0 473.5 530.75 473.5 530.75 476.75 537.75 476.75 537.75 473.5 536.25 473.5 536.25 473.0 537.25 473.0 537.25 469.25 536.25 469.25 536.25 468.75 537.25 468.75 537.25 467.75 537.75 467.75 537.75 468.0 539.75 468.0 539.75 457.75 546.25 457.75 546.25 461.5 547.0 461.5 550.75 468.0 550.75 480.75 546.25 480.75 546.25 483.75 545.75 483.75 M601.45 517.25 L600.2 517.4 600.05 516.15 601.3 516.0 601.45 517.25 M600.7 511.3 L599.45 511.45 599.3 510.2 600.55 510.05 600.7 511.3" fill="#8d8d8d" fill-rule="evenodd" stroke="none"/>
    </g>
    <g id="shape42" transform="matrix(1.0, 0.0, 0.0, 1.0, -520.5, -459.25)">
      <path d="M562.5 554.5 L562.5 557.0 562.0 557.0 562.0 554.0 564.75 554.0 564.75 554.5 562.5 554.5 M568.5 554.0 L568.5 565.25 562.5 565.25 562.5 561.0 562.0 561.0 562.0 558.5 562.5 558.5 562.5 560.5 563.0 560.5 563.0 564.75 567.75 564.75 567.75 554.5 566.25 554.5 566.25 554.0 568.5 554.0 M547.0 488.0 L547.0 492.5 542.5 492.5 542.5 492.0 546.5 492.0 546.5 488.0 547.0 488.0 M528.0 473.25 L528.0 474.25 523.25 474.25 523.25 473.25 528.0 473.25 M537.75 462.25 L537.75 466.75 537.25 466.75 537.25 462.75 532.25 462.75 532.25 462.25 537.75 462.25 M523.75 462.75 L523.75 468.75 523.25 468.75 523.25 462.75 520.5 462.75 520.5 462.25 529.75 462.25 529.75 459.25 530.25 459.25 530.25 462.25 531.25 462.25 531.25 462.75 530.25 462.75 530.25 463.75 529.75 463.75 529.75 462.75 523.75 462.75" fill="#8d8d8d" fill-rule="evenodd" stroke="none"/>
    </g>
    <g id="shape43" transform="matrix(1.0, 0.0, 0.0, 1.0, -431.75, -448.5)">
      <path d="M524.0 494.0 L524.0 505.5 521.25 505.5 521.25 505.0 520.5 505.0 520.5 504.5 523.5 504.5 523.5 499.25 516.75 499.25 516.75 501.0 516.25 501.0 516.25 497.5 516.75 497.5 516.75 498.75 520.0 498.75 520.0 495.25 516.75 495.25 516.75 496.0 516.25 496.0 516.25 494.75 520.5 494.75 520.5 498.75 523.5 498.75 523.5 494.0 524.0 494.0 M524.0 490.75 L524.0 492.5 523.5 492.5 523.5 491.5 507.75 491.5 507.75 491.0 508.5 491.0 508.5 490.75 524.0 490.75 M486.0 568.75 L486.0 581.0 472.5 581.0 472.5 577.5 464.0 577.5 464.0 568.5 465.5 568.5 465.5 552.5 465.0 552.5 461.75 552.25 459.0 551.5 456.5 550.0 454.25 548.25 452.5 546.25 451.0 543.75 450.0 541.25 449.5 538.25 449.5 537.0 446.75 537.0 446.75 535.75 442.0 535.75 442.0 531.25 440.75 531.25 440.75 521.5 436.25 521.5 436.25 509.25 434.25 509.25 434.25 507.75 432.5 505.0 431.75 501.5 432.4 498.0 434.5 495.0 437.5 493.0 441.05 492.4 444.25 493.0 447.5 495.25 448.75 496.75 453.0 496.75 453.0 499.25 458.25 499.25 458.25 495.25 459.0 496.0 459.0 501.5 459.75 501.5 459.75 502.0 459.0 502.0 459.0 513.0 462.25 513.0 462.25 502.0 461.25 502.0 461.25 501.5 469.0 501.5 469.0 496.0 459.0 496.0 458.25 495.25 469.75 495.25 469.75 501.25 481.75 501.25 481.75 494.25 497.75 494.25 497.75 490.75 505.5 490.75 505.5 491.0 506.25 491.0 506.25 491.5 505.5 491.5 505.5 497.0 505.0 497.0 505.0 494.75 495.75 494.75 495.75 501.75 497.25 501.75 497.25 502.25 498.25 502.25 498.25 502.75 497.25 502.75 497.25 503.25 484.75 503.25 484.75 513.75 485.5 513.75 485.5 515.25 484.75 515.25 484.75 521.75 484.25 521.75 484.25 522.75 483.75 522.75 483.75 521.5 481.0 521.5 481.0 522.5 480.0 522.5 480.0 514.5 477.75 514.5 477.75 525.5 479.25 525.5 479.25 527.25 483.75 527.25 483.75 524.25 484.25 524.25 484.25 525.25 484.75 525.25 484.75 525.75 503.5 525.75 503.5 527.25 502.5 527.25 502.5 533.75 502.0 533.75 502.0 534.75 501.5 534.75 501.5 533.75 501.25 533.75 501.25 533.25 496.5 533.25 496.5 537.75 501.0 537.75 501.0 537.0 501.5 537.0 501.5 536.25 502.0 536.25 502.0 537.0 502.75 537.0 502.75 543.75 503.5 543.75 503.5 545.25 496.75 545.25 496.75 546.0 496.0 546.0 496.0 545.25 490.5 545.25 490.5 546.0 489.0 546.0 489.0 539.5 487.5 539.5 487.5 539.0 489.0 539.0 489.05 538.35 488.95 537.7 488.75 537.05 488.5 536.45 488.2 535.85 487.8 535.3 487.35 534.8 480.45 527.9 477.3 531.05 484.2 537.95 484.5 538.5 484.5 539.0 486.25 539.0 486.25 539.5 484.5 539.5 484.5 552.0 483.25 552.0 483.25 551.25 466.5 551.25 466.5 567.75 467.25 567.75 467.25 568.5 468.25 568.5 468.25 569.0 464.5 569.0 464.5 577.0 472.5 577.0 472.5 576.25 473.0 576.25 473.0 576.75 477.25 576.75 477.25 574.25 473.0 574.25 473.0 574.75 472.5 574.75 472.5 569.0 469.5 569.0 469.5 568.5 470.5 568.5 470.5 567.75 483.25 567.75 483.25 555.0 484.5 555.0 484.5 555.75 489.0 555.75 489.0 549.0 490.75 549.0 490.75 549.75 492.25 549.75 492.25 550.25 490.75 550.25 490.75 553.25 491.75 553.25 491.75 558.5 488.25 558.5 488.25 561.0 494.0 561.0 494.0 553.25 495.0 553.25 495.0 550.25 493.5 550.25 493.5 549.75 495.75 549.75 495.75 549.0 496.5 549.0 496.5 561.75 513.5 561.75 513.5 558.0 514.25 558.0 514.25 559.0 515.5 559.0 515.5 565.75 500.75 565.75 500.75 562.5 498.5 562.5 498.5 565.75 486.0 565.75 486.0 568.75 M569.8 488.7 L569.8 488.75 563.0 490.55 561.0 489.55 560.5 487.55 561.0 487.4 561.5 489.05 563.0 489.8 569.65 488.05 569.8 488.7 M580.0 486.0 L579.95 485.9 571.15 488.25 571.0 487.6 579.25 485.45 576.1 473.2 567.95 475.4 568.75 478.45 566.75 478.95 566.6 478.4 567.5 478.2 566.5 473.95 566.8 473.7 566.3 473.3 568.95 471.75 567.5 469.7 564.95 471.45 563.0 472.75 564.5 479.0 565.5 478.75 565.65 479.25 564.75 479.5 565.5 482.1 560.0 483.5 560.55 485.6 560.0 485.75 559.25 482.75 558.75 475.25 557.75 469.5 555.0 461.5 554.5 460.5 554.0 459.5 552.25 455.5 556.25 453.5 557.25 453.0 558.25 452.5 565.0 449.25 571.0 448.5 577.25 455.5 580.75 460.25 577.75 462.5 576.75 463.25 575.75 464.0 575.25 464.25 571.0 468.0 573.0 470.75 573.5 471.5 574.0 472.25 581.25 468.5 590.0 469.5 595.75 469.5 602.25 472.0 599.75 478.5 593.75 483.0 588.25 484.5 580.0 486.0 M549.0 558.75 L549.0 568.0 539.75 568.0 539.75 566.75 540.25 566.75 540.25 567.5 548.5 567.5 548.5 559.25 540.25 559.25 540.25 565.25 539.75 565.25 539.75 558.75 549.0 558.75 M565.5 558.75 L565.5 563.0 565.0 563.0 565.0 558.75 565.5 558.75" fill="#8d8d8d" fill-rule="evenodd" stroke="none"/>
    </g>
    <g id="shape44" transform="matrix(1.0, 0.0, 0.0, 1.0, -391.85, -416.75)">
      <path d="M525.5 426.0 L525.5 429.0 518.5 429.0 518.5 424.75 519.0 424.75 519.0 428.5 525.0 428.5 525.0 424.75 525.5 424.75 525.5 425.5 529.5 425.5 529.5 422.5 525.5 422.5 525.5 423.5 525.0 423.5 525.0 422.5 521.25 422.5 521.25 422.0 529.75 422.0 529.75 417.25 524.25 417.25 524.25 417.0 523.75 417.0 523.75 417.25 524.25 417.25 524.25 419.0 527.5 419.0 527.5 420.0 523.0 420.0 523.0 419.0 523.75 419.0 523.75 417.25 519.0 417.25 519.0 422.0 518.5 422.0 518.5 416.75 530.25 416.75 530.25 426.0 525.5 426.0 M606.7 484.9 L606.55 485.35 603.5 484.25 604.6 481.2 605.05 481.35 604.1 483.95 606.7 484.9 M612.5 479.8 L610.0 486.6 607.65 485.75 607.8 485.3 609.2 485.8 611.15 480.4 606.0 478.5 605.4 480.15 604.95 480.0 605.9 477.4 612.5 479.8 M404.9 609.8 L398.95 616.9 391.85 610.95 396.05 605.95 396.45 606.25 392.6 610.85 398.9 616.15 404.2 609.85 397.9 604.55 397.25 605.3 396.85 605.0 397.8 603.85 404.9 609.8 M514.25 554.0 L514.25 555.0 513.5 555.0 513.5 549.0 514.0 549.0 514.0 548.0 514.5 548.0 514.5 549.0 515.5 549.0 515.5 554.0 514.25 554.0 M520.0 537.25 L520.05 537.2 520.05 547.45 517.3 547.45 517.3 545.95 514.55 545.95 514.55 546.7 514.05 546.7 514.05 545.2 506.3 545.2 506.3 543.7 519.3 543.7 519.3 539.2 507.05 539.2 507.05 531.2 507.55 531.2 507.55 530.2 508.05 530.2 508.05 531.2 508.55 531.2 508.55 537.7 519.3 537.7 519.3 537.2 519.05 535.7 518.55 532.95 517.75 529.2 517.45 528.35 516.95 527.75 516.25 527.4 515.25 527.25 508.0 527.25 508.0 528.75 507.5 528.75 507.5 527.75 507.25 527.75 507.25 527.25 506.25 527.25 506.25 525.75 513.25 525.75 513.25 515.25 500.25 515.25 500.25 513.75 501.0 513.75 501.0 503.25 500.5 503.25 500.5 502.75 499.5 502.75 499.5 502.25 500.5 502.25 500.5 501.75 505.0 501.75 505.0 498.25 505.5 498.25 505.5 504.5 516.25 504.5 516.25 502.5 516.75 502.5 516.75 504.5 519.25 504.5 519.25 505.0 518.25 505.0 518.25 505.5 508.0 505.5 508.0 508.25 515.25 508.25 515.25 526.25 515.5 526.25 516.5 526.5 517.5 527.0 518.0 527.75 518.5 528.75 519.25 532.25 520.0 537.25" fill="#8d8d8d" fill-rule="evenodd" stroke="none"/>
    </g>
    <g id="shape45" transform="matrix(1.0, 0.0, 0.0, 1.0, -518.5, -422.0)">
      <path d="M519.0 422.5 L519.0 423.5 518.5 423.5 518.5 422.0 520.0 422.0 520.0 422.5 519.0 422.5" fill="#8d8d8d" fill-rule="evenodd" stroke="none"/>
    </g>
  </defs>
</svg>
