<?xml version="1.0" encoding="UTF-8" standalone="no"?>
<svg xmlns:xlink="http://www.w3.org/1999/xlink" height="922.5px" width="1650.0px" xmlns="http://www.w3.org/2000/svg">
  <g transform="matrix(1.0, 0.0, 0.0, 1.0, -130.2, -121.45)">
    <use height="24.45" transform="matrix(1.0, 0.0, 0.0, 1.0, 915.85, 525.1)" width="44.05" xlink:href="#shape0"/>
    <use height="2.15" transform="matrix(1.0, 0.0, 0.0, 1.0, 957.35, 536.05)" width="2.05" xlink:href="#shape1"/>
    <use height="922.5" transform="matrix(1.0, 0.0, 0.0, 1.0, 130.2, 121.45)" width="1125.75" xlink:href="#shape2"/>
    <use height="922.5" transform="matrix(1.0, 0.0, 0.0, 1.0, 762.7, 121.45)" width="493.25" xlink:href="#shape3"/>
    <use height="922.5" transform="matrix(1.0, 0.0, 0.0, 1.0, 130.2, 121.45)" width="790.0" xlink:href="#shape4"/>
    <use height="922.5" transform="matrix(1.0, 0.0, 0.0, 1.0, 842.7, 121.45)" width="937.5" xlink:href="#shape5"/>
    <use height="922.5" transform="matrix(1.0, 0.0, 0.0, 1.0, 130.2, 121.45)" width="785.0" xlink:href="#shape6"/>
    <use height="190.25" transform="matrix(1.0, 0.0, 0.0, 1.0, 850.45, 567.95)" width="96.0" xlink:href="#shape7"/>
    <use height="38.3" transform="matrix(1.0, 0.0, 0.0, 1.0, 892.0, 506.7)" width="71.45" xlink:href="#shape8"/>
    <use height="32.2" transform="matrix(1.0, 0.0, 0.0, 1.0, 907.5, 535.6)" width="52.45" xlink:href="#shape9"/>
    <use height="242.5" transform="matrix(1.0, 0.0, 0.0, 1.0, 881.2, 481.45)" width="191.5" xlink:href="#shape10"/>
    <use height="132.5" transform="matrix(1.0, 0.0, 0.0, 1.0, 890.2, 493.95)" width="182.5" xlink:href="#shape11"/>
    <use height="126.0" transform="matrix(1.0, 0.0, 0.0, 1.0, 901.95, 574.45)" width="159.0" xlink:href="#shape12"/>
    <use height="34.0" transform="matrix(1.0, 0.0, 0.0, 1.0, 981.7, 681.2)" width="73.0" xlink:href="#shape13"/>
    <use height="137.0" transform="matrix(1.0, 0.0, 0.0, 1.0, 956.4, 578.2)" width="61.8" xlink:href="#shape14"/>
    <use height="107.2" transform="matrix(1.0, 0.0, 0.0, 1.0, 930.7, 518.4)" width="82.25" xlink:href="#shape15"/>
    <use height="127.9" transform="matrix(1.0, 0.0, 0.0, 1.0, 923.0, 502.5)" width="26.05" xlink:href="#shape16"/>
    <use height="190.4" transform="matrix(1.0, 0.0, 0.0, 1.0, 921.65, 507.4)" width="139.3" xlink:href="#shape17"/>
    <use height="18.25" transform="matrix(1.0, 0.0, 0.0, 1.0, 1036.7, 531.45)" width="15.0" xlink:href="#shape18"/>
    <use height="18.25" transform="matrix(1.0, 0.0, 0.0, 1.0, 957.5, 531.45)" width="94.2" xlink:href="#shape19"/>
    <use height="24.45" transform="matrix(1.0, 0.0, 0.0, 1.0, 915.85, 525.1)" width="44.05" xlink:href="#shape20"/>
    <use height="2.15" transform="matrix(1.0, 0.0, 0.0, 1.0, 957.35, 536.05)" width="2.05" xlink:href="#shape21"/>
    <use height="130.2" transform="matrix(1.0, 0.0, 0.0, 1.0, 905.05, 498.7)" width="122.6" xlink:href="#shape22"/>
    <use height="69.6" transform="matrix(1.0, 0.0, 0.0, 1.0, 914.8, 502.85)" width="139.4" xlink:href="#shape23"/>
    <use height="107.55" transform="matrix(1.0, 0.0, 0.0, 1.0, 948.3, 527.45)" width="75.9" xlink:href="#shape24"/>
    <use height="111.75" transform="matrix(1.0, 0.0, 0.0, 1.0, 914.55, 524.2)" width="118.9" xlink:href="#shape25"/>
    <use height="110.4" transform="matrix(1.0, 0.0, 0.0, 1.0, 915.9, 525.1)" width="47.3" xlink:href="#shape26"/>
    <use height="43.1" transform="matrix(1.0, 0.0, 0.0, 1.0, 918.7, 502.5)" width="31.4" xlink:href="#shape27"/>
    <use height="23.4" transform="matrix(1.0, 0.0, 0.0, 1.0, 914.4, 532.0)" width="23.9" xlink:href="#shape28"/>
    <use height="90.4" transform="matrix(1.0, 0.0, 0.0, 1.0, 922.75, 538.6)" width="44.1" xlink:href="#shape29"/>
  </g>
  <defs>
    <g id="shape0" transform="matrix(1.0, 0.0, 0.0, 1.0, -915.85, -525.1)">
      <path d="M917.3 539.3 L918.85 538.0 918.7 537.8 917.15 539.1 917.3 539.3 M916.0 537.8 L917.55 536.5 917.4 536.3 915.85 537.6 916.0 537.8 M916.45 530.3 L917.75 531.85 917.95 531.7 916.65 530.15 916.45 530.3 M918.0 529.05 L919.3 530.6 919.5 530.45 918.2 528.9 918.0 529.05 M939.5 548.1 L938.2 546.55 938.0 546.7 939.3 548.25 939.5 548.1 M937.95 549.4 L936.65 547.85 936.45 548.0 937.75 549.55 937.95 549.4 M943.1 525.1 L942.95 527.1 943.2 527.1 943.35 525.1 943.1 525.1 M945.1 525.25 L944.95 527.25 945.2 527.25 945.35 525.25 945.1 525.25 M957.4 538.15 L957.45 538.1 957.7 538.25 958.0 538.35 958.35 538.45 958.9 538.4 959.4 538.1 959.7 537.75 959.85 537.4 959.9 537.1 959.9 536.75 959.75 536.35 959.55 536.0 959.25 535.75 958.9 535.6 958.45 535.5 958.1 535.55 957.7 535.75 957.4 536.0 957.15 536.4 957.05 536.65 957.0 536.9 957.0 537.25 957.1 537.6 957.25 537.95 957.4 538.15" fill="#8d8d8d" fill-rule="evenodd" stroke="none"/>
    </g>
    <g id="shape1" transform="matrix(1.0, 0.0, 0.0, 1.0, -957.35, -536.05)">
      <path d="M957.8 537.95 L957.8 538.05 957.95 538.15 958.15 538.2 958.4 538.2 958.65 538.15 958.9 538.05 959.1 537.9 959.25 537.7 959.4 537.45 959.4 537.2 959.4 536.9 959.3 536.65 959.15 536.4 958.85 536.2 958.6 536.1 958.3 536.05 958.05 536.1 957.8 536.2 957.6 536.4 957.45 536.65 957.35 536.95 957.35 537.25 957.45 537.5 957.6 537.75 957.8 537.95" fill="#1a1a1a" fill-rule="evenodd" stroke="none"/>
    </g>
    <g id="shape2" transform="matrix(1.0, 0.0, 0.0, 1.0, -130.2, -121.45)">
      <path d="M1255.95 121.45 L1255.95 1043.95 130.2 1043.95 130.2 121.45 1255.95 121.45" fill="#1a1a1a" fill-rule="evenodd" stroke="none"/>
    </g>
    <g id="shape3" transform="matrix(1.0, 0.0, 0.0, 1.0, -762.7, -121.45)">
      <path d="M1255.95 121.45 L1255.95 1043.95 762.7 1043.95 882.7 923.95 882.7 871.45 920.2 833.95 920.2 821.45 930.2 811.45 930.2 783.95 937.7 776.45 937.7 741.45 947.7 731.45 947.7 683.95 942.7 678.95 942.7 662.2 928.95 648.45 928.95 642.95 917.45 631.45 902.7 631.45 880.2 608.95 880.2 563.95 870.2 553.95 870.2 523.95 877.7 516.45 877.7 501.45 912.7 466.45 912.7 303.95 932.7 283.95 932.7 181.45 992.7 121.45 1255.95 121.45" fill="#404040" fill-rule="evenodd" stroke="none"/>
    </g>
    <g id="shape4" transform="matrix(1.0, 0.0, 0.0, 1.0, -130.2, -121.45)">
      <path d="M515.2 948.95 L420.2 1043.95 130.2 1043.95 130.2 121.45 807.7 121.45 855.2 168.95 855.2 298.95 785.2 368.95 785.2 428.95 807.7 451.45 807.7 471.7 835.2 499.2 835.2 516.45 845.2 526.45 845.2 543.95 862.7 561.45 862.7 581.45 855.2 588.95 855.2 608.95 882.7 636.45 890.2 636.45 910.2 656.45 910.2 676.45 920.2 686.45 920.2 736.45 915.2 741.45 915.2 771.45 900.2 786.45 900.2 801.45 852.7 848.95 835.2 848.95 792.7 891.45 742.7 891.45 685.2 948.95 515.2 948.95" fill="#404040" fill-rule="evenodd" stroke="none"/>
    </g>
    <g id="shape5" transform="matrix(1.0, 0.0, 0.0, 1.0, -842.7, -121.45)">
      <path d="M1780.2 475.7 L1780.2 1043.95 842.7 1043.95 842.7 993.95 900.2 936.45 900.2 868.95 937.7 831.45 937.7 788.95 945.2 781.45 945.2 746.45 957.7 733.95 957.7 716.45 952.7 711.45 952.7 681.45 947.7 676.45 947.7 660.7 933.45 646.45 933.45 642.7 917.95 627.2 905.95 627.2 885.2 606.45 885.2 583.95 887.7 581.45 887.7 558.95 877.7 548.95 877.7 528.95 885.2 521.45 885.2 506.45 945.2 446.45 945.2 391.45 925.2 371.45 925.2 318.95 955.2 288.95 955.2 221.45 1055.2 121.45 1780.2 121.45 1780.2 475.7" fill="#d9d9d9" fill-rule="evenodd" stroke="none"/>
    </g>
    <g id="shape6" transform="matrix(1.0, 0.0, 0.0, 1.0, -130.2, -121.45)">
      <path d="M897.7 496.45 L895.2 498.95 880.2 483.95 882.7 481.45 897.7 496.45 M477.7 921.45 L355.2 1043.95 130.2 1043.95 130.2 121.45 750.2 121.45 805.2 176.45 805.2 298.95 762.7 341.45 762.7 423.95 795.2 456.45 795.2 471.45 827.7 503.95 827.7 518.95 840.2 531.45 840.2 546.45 857.7 563.95 857.7 578.95 847.7 588.95 847.7 608.95 880.2 641.45 887.7 641.45 905.2 658.95 905.2 678.95 915.2 688.95 915.2 733.95 910.2 738.95 910.2 768.95 892.7 786.45 892.7 798.95 852.7 838.95 825.2 838.95 787.7 876.45 722.7 876.45 677.7 921.45 477.7 921.45" fill="#d9d9d9" fill-rule="evenodd" stroke="none"/>
    </g>
    <g id="shape7" transform="matrix(1.0, 0.0, 0.0, 1.0, -850.45, -567.95)">
      <path d="M946.45 752.2 L946.45 752.45 946.45 758.2 907.7 758.2 907.7 752.2 946.45 752.2 M927.2 632.95 L922.2 642.45 919.2 640.95 921.7 636.2 911.7 631.2 913.2 628.45 923.2 633.45 924.2 631.45 927.2 632.95 M897.7 567.95 L897.7 573.7 850.45 573.7 850.45 567.95 897.7 567.95" fill="#d9d9d9" fill-rule="evenodd" stroke="none"/>
    </g>
    <g id="shape8" transform="matrix(1.0, 0.0, 0.0, 1.0, -892.0, -506.7)">
      <path d="M905.65 544.7 L905.25 545.0 895.75 533.7 896.15 533.4 905.65 544.7 M894.1 530.95 L894.15 530.95 893.75 531.25 892.0 529.45 892.25 528.95 894.1 530.95 M963.45 535.2 L961.2 543.2 960.7 542.95 962.95 535.2 962.65 534.1 959.7 531.35 956.9 528.8 949.55 521.6 948.0 522.9 947.7 522.5 949.6 520.9 957.3 528.5 960.1 531.05 963.2 534.0 963.45 535.2 M947.55 518.4 L947.45 518.45 945.55 520.05 945.25 519.65 946.8 518.35 943.7 515.4 940.9 512.85 937.9 510.45 933.4 507.05 933.7 506.7 938.3 510.15 941.3 512.55 944.1 515.1 947.55 518.4" fill="#8d8d8d" fill-rule="evenodd" stroke="none"/>
    </g>
    <g id="shape9" transform="matrix(1.0, 0.0, 0.0, 1.0, -907.5, -535.6)">
      <path d="M930.95 566.85 L930.95 566.8 928.65 567.8 923.6 566.85 921.05 563.8 921.45 563.5 923.85 566.35 928.55 567.3 930.75 566.45 930.95 566.85 M935.3 564.9 L935.25 564.85 932.95 565.8 932.75 565.35 934.95 564.5 942.55 560.75 944.05 559.8 943.1 558.65 943.5 558.35 944.8 559.9 942.9 561.15 935.3 564.9 M919.65 561.4 L919.25 561.7 907.5 547.7 907.9 547.4 919.65 561.4 M949.15 556.5 L949.15 556.45 947.8 557.55 946.35 555.85 946.75 555.55 947.85 556.9 948.8 556.1 958.95 545.65 959.45 544.9 959.95 545.15 959.5 545.85 949.15 556.5 M959.35 538.35 L959.3 538.3 958.65 538.55 957.95 538.45 957.35 538.05 957.0 537.45 957.0 536.75 957.35 536.1 957.95 535.7 958.65 535.6 959.3 535.85 959.8 536.4 959.95 537.1 959.8 537.8 959.35 538.35" fill="#8d8d8d" fill-rule="evenodd" stroke="none"/>
    </g>
    <g id="shape10" transform="matrix(1.0, 0.0, 0.0, 1.0, -881.2, -481.45)">
      <path d="M1062.45 706.7 L1062.45 723.95 1037.95 723.95 1037.95 710.2 1038.45 710.2 1038.45 709.95 1037.95 709.95 1037.95 710.2 1025.45 710.2 1014.95 714.45 1014.95 715.2 1014.7 714.7 1014.45 714.7 1014.45 714.2 1025.2 709.7 1046.45 709.7 1046.45 710.2 1038.45 710.2 1038.45 723.45 1061.95 723.45 1061.95 706.85 1062.45 706.7 1061.95 706.45 1061.95 706.85 1048.7 710.2 1048.7 709.7 1061.95 706.2 1061.95 678.7 1066.45 678.7 1066.45 654.7 1068.45 652.7 1068.45 602.2 1072.2 587.95 1072.2 580.2 1068.2 553.2 1068.2 520.7 1067.7 516.7 1066.2 513.45 1063.2 510.45 1059.7 508.2 1055.95 506.45 1051.2 505.95 1009.45 505.95 1007.7 504.2 1002.95 504.2 1001.2 505.95 965.95 505.95 941.95 481.95 936.95 481.95 931.7 484.95 886.7 524.95 883.95 528.7 882.2 532.45 881.7 537.2 881.7 541.95 898.2 562.7 899.45 564.7 899.45 566.95 898.2 568.2 897.7 568.2 897.7 573.2 898.2 573.2 898.2 580.45 908.95 604.7 908.95 616.2 920.95 628.2 962.7 650.45 975.95 663.7 982.2 692.95 982.2 700.2 981.7 700.2 981.7 693.2 975.45 663.95 962.45 650.95 920.7 628.7 908.45 616.45 908.45 604.95 897.7 580.7 897.7 573.7 897.2 573.7 897.2 567.7 897.95 567.7 898.95 566.7 898.95 564.95 897.7 562.95 881.2 542.2 881.2 536.95 881.7 532.2 883.45 528.45 886.2 524.7 931.45 484.45 936.7 481.45 942.2 481.45 966.2 505.45 1000.95 505.45 1002.7 503.7 1007.95 503.7 1009.7 505.45 1051.7 505.45 1056.2 505.95 1059.95 507.7 1063.45 509.95 1066.7 513.2 1068.2 516.45 1068.7 520.45 1068.7 552.95 1072.7 580.2 1072.7 588.2 1068.95 602.45 1068.95 652.95 1066.95 654.95 1066.95 679.2 1062.45 679.2 1062.45 706.7" fill="#8d8d8d" fill-rule="evenodd" stroke="none"/>
    </g>
    <g id="shape11" transform="matrix(1.0, 0.0, 0.0, 1.0, -890.2, -493.95)">
      <path d="M930.95 625.95 L930.7 626.45 919.95 618.2 919.95 579.45 916.2 575.7 914.95 575.7 914.95 573.45 915.45 573.45 915.45 575.2 916.45 575.2 920.45 579.2 920.45 617.95 930.95 625.95 M910.45 571.7 L910.45 573.7 909.95 573.7 909.95 571.7 910.45 571.7 M904.95 568.2 L904.95 570.2 904.45 570.2 904.45 568.2 904.95 568.2 M902.45 566.7 L902.45 567.2 901.95 567.2 901.95 566.7 902.45 566.7 M997.95 552.7 L997.95 561.2 981.45 561.2 981.45 552.45 981.95 552.45 981.95 560.7 997.45 560.7 997.45 552.7 997.95 552.7 M997.95 537.7 L997.95 549.95 997.45 549.95 997.45 537.7 997.95 537.7 M981.95 533.45 L981.95 549.7 981.45 549.7 981.45 533.45 981.95 533.45 M911.45 536.95 L907.2 541.2 903.2 537.2 907.45 532.95 911.45 536.95 M1052.2 548.45 L1050.45 550.2 1038.45 550.2 1038.7 549.7 1050.2 549.7 1051.7 548.2 1051.7 533.2 1049.95 531.45 1039.95 531.45 1036.7 534.7 1036.7 547.7 1038.7 549.7 1038.45 550.2 1036.2 547.95 1036.2 534.45 1039.7 530.95 1050.2 530.95 1052.2 532.95 1052.2 548.45 M997.95 527.45 L997.95 533.95 997.45 533.95 997.45 527.45 997.95 527.45 M995.7 525.45 L995.7 525.95 981.7 525.95 981.7 525.45 995.7 525.45 M915.45 567.45 L915.45 568.45 914.95 568.45 914.95 567.7 892.45 542.2 890.2 537.95 890.2 533.2 892.2 527.45 894.95 524.45 895.45 524.7 892.7 527.7 890.7 533.45 890.7 537.7 892.95 541.95 915.45 567.45 M1013.45 524.2 L1013.45 527.45 1006.95 527.45 1006.95 526.95 1012.95 526.95 1012.95 524.7 1006.95 524.7 1006.95 524.2 1013.45 524.2 M1060.95 571.95 L1060.95 573.7 1060.45 573.7 1060.45 571.95 1061.2 557.7 1061.2 522.2 1061.7 522.2 1061.7 557.7 1060.95 571.95 M981.2 516.2 L981.2 521.2 976.2 521.2 976.2 516.2 976.7 516.7 976.7 520.7 980.7 520.7 980.7 516.7 976.7 516.7 976.2 516.2 981.2 516.2 M1060.95 519.95 L1060.45 520.2 1060.2 519.7 1057.45 516.7 1055.7 515.7 1054.45 515.45 1006.45 515.45 1006.45 514.95 1054.7 514.95 1055.95 515.2 1057.7 516.2 1060.7 519.45 1060.95 519.95 M1004.45 514.95 L1004.45 515.45 961.95 515.45 961.2 514.7 961.45 514.2 962.2 514.95 1004.45 514.95 M931.7 494.45 L895.45 524.7 894.95 524.45 931.45 493.95 941.2 493.95 960.2 512.95 959.7 513.2 940.95 494.45 931.7 494.45 M1072.2 586.45 L1072.7 586.45 1072.7 586.2 1072.2 586.2 1072.2 586.45 M897.2 573.2 L897.7 573.2 897.7 572.45 897.2 572.45 897.2 573.2" fill="#8d8d8d" fill-rule="evenodd" stroke="none"/>
    </g>
    <g id="shape12" transform="matrix(1.0, 0.0, 0.0, 1.0, -901.95, -574.45)">
      <path d="M1007.45 699.95 L1007.45 700.45 992.95 700.45 992.95 668.2 989.2 652.45 986.7 648.45 980.2 643.45 980.45 642.95 987.2 648.2 989.7 652.2 993.45 668.2 993.45 699.95 1007.45 699.95 M975.2 640.2 L975.2 640.7 973.95 640.45 966.2 640.45 944.45 634.45 939.95 632.45 935.45 629.95 932.45 627.7 932.7 627.2 935.7 629.45 940.2 631.95 944.7 633.95 966.45 639.95 973.95 639.95 975.2 640.2 M1006.95 622.7 L1006.95 635.2 981.95 618.45 982.2 617.95 1006.45 634.2 1006.45 622.7 1006.95 622.7 M949.2 612.45 L949.2 612.95 937.2 612.95 937.2 612.45 949.2 612.45 M979.45 616.2 L979.2 616.7 975.95 614.7 955.95 612.95 953.2 612.95 953.2 612.45 956.2 612.45 976.2 614.2 979.45 616.2 M1054.7 671.45 L1054.7 678.95 1054.2 678.95 1054.2 671.2 1059.45 638.95 1060.45 619.45 1060.45 601.95 1060.95 601.95 1060.95 618.95 1059.95 638.95 1054.7 671.45 M1006.95 618.2 L1006.95 619.95 1006.45 619.95 1006.45 618.45 1004.2 602.2 1002.7 599.7 1003.2 599.45 1004.7 601.95 1006.95 618.2 M1002.2 596.95 L1001.7 597.2 1001.7 576.7 994.95 575.95 992.95 575.95 992.95 575.45 995.2 575.45 1002.2 576.2 1002.2 596.95 M949.7 574.7 L949.7 575.2 937.45 575.2 937.45 574.7 949.7 574.7 M988.95 575.45 L988.95 575.95 983.45 575.95 959.45 575.2 953.45 575.2 953.45 574.7 959.7 574.7 983.7 575.45 988.95 575.45 M934.45 612.45 L934.45 612.95 932.7 612.95 925.7 610.95 925.7 574.7 934.7 574.7 934.7 575.2 926.2 575.2 926.2 610.45 932.95 612.45 934.45 612.45 M902.45 574.45 L902.45 574.95 901.95 574.95 901.95 574.45 902.45 574.45 M919.95 613.7 L920.45 613.7 920.45 613.45 919.95 613.45 919.95 613.7" fill="#8d8d8d" fill-rule="evenodd" stroke="none"/>
    </g>
    <g id="shape13" transform="matrix(1.0, 0.0, 0.0, 1.0, -981.7, -681.2)">
      <path d="M1014.45 714.95 L1014.95 715.2 1005.7 715.2 1005.7 713.95 996.2 709.45 981.7 706.45 981.7 700.2 982.2 700.2 982.2 705.95 996.2 708.95 1006.2 713.7 1006.2 714.7 1014.45 714.7 1014.45 714.95 M1047.25 697.85 L1043.25 700.45 1013.25 700.45 1013.25 699.95 1043.0 699.95 1047.25 697.2 1047.25 697.85 M1054.7 687.7 L1053.2 693.7 1052.7 693.45 1054.2 687.45 1054.2 681.2 1054.7 681.2 1054.7 687.7 M993.2 699.95 L992.95 700.45 993.45 700.2 993.45 699.95 993.2 699.95" fill="#8d8d8d" fill-rule="evenodd" stroke="none"/>
    </g>
    <g id="shape14" transform="matrix(1.0, 0.0, 0.0, 1.0, -956.4, -578.2)">
      <path d="M967.95 601.5 L963.65 597.2 964.55 596.3 968.85 600.55 967.95 601.5 M983.45 699.7 L983.45 702.7 982.2 702.7 982.2 699.7 983.45 699.7 M987.1 693.1 L985.8 693.3 984.95 687.3 986.25 687.1 987.1 693.1 M995.45 684.7 L994.7 687.7 993.45 687.45 994.2 684.45 995.45 684.7 M1001.7 679.45 L1001.7 685.45 1000.45 685.45 1000.45 679.45 1001.7 679.45 M989.45 678.95 L989.45 684.95 988.2 684.95 988.2 678.95 989.45 678.95 M1006.3 678.15 L1006.3 684.35 1005.0 684.35 1005.0 678.15 1006.3 678.15 M997.95 676.2 L997.95 679.2 996.7 679.2 996.7 676.2 997.95 676.2 M989.45 669.95 L989.45 675.95 988.2 675.95 988.2 669.95 989.45 669.95 M997.95 667.45 L997.95 670.45 996.7 670.45 996.7 667.45 997.95 667.45 M1001.45 665.7 L1001.45 676.2 1000.2 676.2 1000.2 665.7 1001.45 665.7 M984.7 670.15 L984.75 670.15 983.3 670.25 982.8 664.25 984.15 664.15 984.7 670.15 M1006.3 669.3 L1006.3 669.35 1006.3 675.5 1005.0 675.5 1005.0 669.45 1004.3 663.25 1005.6 663.1 1006.3 669.3 M988.7 664.85 L987.45 665.0 987.1 662.0 988.4 661.85 988.7 664.85 M987.9 658.55 L987.85 658.55 986.6 658.8 986.0 655.85 987.3 655.6 987.9 658.55 M974.75 659.9 L973.5 660.55 970.65 654.9 971.8 654.25 974.75 659.9 M981.05 658.35 L981.0 658.4 979.8 658.95 978.3 656.1 977.55 653.0 978.9 652.7 979.65 655.6 981.05 658.35 M1005.5 654.6 L1005.5 654.55 1004.2 654.65 1003.9 648.5 1005.2 648.45 1005.5 654.6 M996.85 653.6 L996.8 653.6 995.6 654.1 994.55 651.2 993.25 648.35 991.7 645.75 992.85 645.05 994.5 647.75 995.8 650.65 996.85 653.6 M983.6 642.2 L982.95 643.3 980.35 641.7 981.05 640.6 983.6 642.2 M1004.75 646.15 L1004.7 646.15 1003.5 646.7 1001.05 641.15 1002.25 640.6 1004.75 646.15 M990.9 642.8 L990.0 643.7 985.7 639.5 986.6 638.55 990.9 642.8 M984.75 637.25 L984.8 637.25 984.1 638.35 981.5 636.8 982.15 635.7 984.75 637.25 M1000.6 638.45 L1000.6 638.5 999.7 639.45 997.5 637.25 995.05 635.35 995.85 634.3 998.4 636.2 1000.6 638.45 M996.95 643.0 L996.9 642.95 995.85 643.7 992.35 638.7 987.7 634.65 988.6 633.7 993.4 637.9 996.95 643.0 M986.95 632.55 L987.0 632.6 986.25 633.65 983.8 631.9 984.5 630.85 986.95 632.55 M994.65 633.3 L993.85 634.35 985.65 628.35 986.45 627.3 994.65 633.3 M1002.2 626.2 L1001.45 627.2 996.7 623.7 997.45 622.7 1002.2 626.2 M995.45 621.45 L994.7 622.45 992.2 620.7 992.95 619.7 995.45 621.45 M1004.2 621.7 L1003.45 622.7 1000.95 620.7 1001.7 619.7 1004.2 621.7 M991.2 618.45 L990.45 619.45 985.7 615.95 986.45 614.95 991.2 618.45 M981.85 610.85 L981.9 610.8 981.15 611.85 976.2 608.35 976.95 607.3 981.85 610.85 M965.6 608.9 L965.55 608.9 964.7 609.9 962.35 608.0 963.2 607.0 965.6 608.9 M1003.95 610.45 L1003.2 611.45 998.2 607.95 998.95 606.95 1003.95 610.45 M973.4 609.95 L972.55 610.95 967.85 607.15 968.7 606.15 973.4 609.95 M997.2 605.7 L996.45 606.7 993.95 604.95 994.7 603.95 997.2 605.7 M975.0 605.9 L974.15 606.9 969.5 603.0 970.35 602.0 975.0 605.9 M961.6 605.4 L960.7 606.3 956.45 601.95 957.35 601.05 961.6 605.4 M967.05 604.85 L967.05 604.8 966.1 605.75 961.8 601.5 962.75 600.6 967.05 604.85 M979.45 601.7 L978.7 602.7 973.95 598.7 974.7 597.7 979.45 601.7 M989.95 599.95 L989.2 600.95 984.2 597.2 984.95 596.2 989.95 599.95 M981.45 597.2 L980.7 598.2 978.45 596.45 979.2 595.45 981.45 597.2 M961.25 598.9 L961.2 598.9 960.2 599.75 956.4 595.0 957.45 594.2 961.25 598.9 M973.4 596.4 L972.4 597.25 968.35 592.75 969.35 591.9 973.4 596.4 M963.1 594.6 L963.15 594.6 962.1 595.4 958.45 590.55 959.5 589.75 963.1 594.6 M977.45 593.95 L976.45 594.95 972.2 590.45 973.2 589.45 977.45 593.95 M968.05 590.3 L966.95 590.95 963.75 585.8 964.85 585.15 968.05 590.3 M971.05 586.35 L971.0 586.35 969.9 587.0 968.35 584.35 969.5 583.7 971.05 586.35 M968.8 581.75 L968.75 581.75 967.5 582.05 966.8 579.15 968.1 578.85 968.8 581.75 M964.5 584.05 L963.2 584.35 961.85 578.5 963.1 578.2 964.5 584.05 M1013.2 710.45 L1011.45 710.7 1009.2 710.7 1007.45 710.45 1007.45 709.95 1009.45 710.2 1011.2 710.2 1013.2 709.95 1013.2 710.45 M1018.2 705.7 L1012.45 707.7 1012.2 707.2 1017.95 705.2 1018.2 705.7 M1007.95 707.45 L1007.7 707.95 1005.7 707.45 1003.7 706.45 1002.2 705.2 1002.45 704.7 1003.95 705.95 1005.95 706.95 1007.95 707.45 M1005.95 714.7 L1005.7 715.2 1006.2 714.95 1006.2 714.7 1005.95 714.7" fill="#8d8d8d" fill-rule="evenodd" stroke="none"/>
    </g>
    <g id="shape15" transform="matrix(1.0, 0.0, 0.0, 1.0, -930.7, -518.4)">
      <path d="M970.95 622.85 L970.7 625.6 969.45 625.5 969.7 622.75 970.95 622.85 M949.5 621.0 L949.25 623.75 948.0 623.65 948.25 620.9 949.5 621.0 M935.2 570.7 L933.2 571.7 930.7 566.45 932.75 565.4 935.2 570.7 M947.85 557.65 L947.9 557.7 944.85 559.9 943.55 558.35 946.4 555.95 947.85 557.65 M965.95 546.2 L964.95 548.2 959.45 544.95 960.7 542.95 965.95 546.2 M1012.95 524.7 L1012.95 526.95 1006.95 526.95 1006.95 524.7 1012.95 524.7 M949.6 520.9 L947.7 522.5 945.6 520.0 947.5 518.4 949.6 520.9" fill="#f0f0f0" fill-rule="evenodd" stroke="none"/>
    </g>
    <g id="shape16" transform="matrix(1.0, 0.0, 0.0, 1.0, -923.0, -502.5)">
      <path d="M930.9 505.95 L930.9 505.9 925.9 510.1 924.2 508.1 923.95 507.8 923.9 507.75 923.0 506.7 928.0 502.5 930.9 505.95 M948.5 629.95 L948.5 629.9 948.45 630.4 941.5 629.8 942.1 623.1 949.05 623.7 949.0 624.2 942.5 623.65 942.0 629.4 948.5 629.95" fill="#8d8d8d" fill-rule="evenodd" stroke="none"/>
    </g>
    <g id="shape17" transform="matrix(1.0, 0.0, 0.0, 1.0, -921.65, -507.4)">
      <path d="M1001.6 692.8 L1001.2 696.8 995.25 696.15 995.65 692.15 1001.6 692.8 M1053.15 693.65 L1047.2 697.8 1044.75 694.3 1050.7 690.15 1053.15 693.65 M1023.95 631.95 L1023.95 644.2 1017.7 644.2 1017.7 631.95 1023.95 631.95 M968.8 632.95 L968.7 633.95 948.3 632.15 949.05 623.7 949.3 623.7 949.55 620.95 969.7 622.7 969.2 628.45 973.2 628.8 972.8 633.3 968.8 632.95 M1023.95 607.7 L1023.95 620.2 1017.45 620.2 1017.45 607.7 1023.95 607.7 M1060.95 618.95 L1059.95 638.95 1051.95 638.45 1051.95 637.95 1053.2 618.95 1053.2 618.45 1053.95 618.5 1053.95 618.7 1060.7 619.2 1060.7 618.95 1053.95 618.5 1053.95 606.2 1060.7 606.2 1060.7 618.95 1060.95 618.95 M1031.7 592.7 L1031.7 601.95 1016.7 601.95 1016.7 592.7 1031.7 592.7 M985.35 586.9 L981.8 592.35 973.6 587.05 977.15 581.6 985.35 586.9 M1060.95 573.45 L1060.95 602.2 1041.95 602.2 1041.95 594.45 1052.95 594.45 1052.95 573.45 1060.95 573.45 M1050.45 567.7 L1050.45 572.45 1033.2 572.45 1033.2 561.95 1050.45 561.95 1050.45 563.2 1054.2 563.2 1054.2 567.7 1050.45 567.7 M1057.7 527.95 L1057.7 534.2 1054.45 534.2 1054.45 527.95 1057.7 527.95 M1029.45 526.95 L1029.45 561.2 1002.7 561.2 1002.7 526.95 1029.45 526.95 M971.45 524.45 L966.45 529.45 959.2 522.2 964.2 517.2 971.45 524.45 M923.9 510.0 L923.9 509.9 923.3 510.15 922.65 510.15 922.1 509.85 921.75 509.35 921.65 508.7 921.8 508.1 922.2 507.65 922.8 507.4 923.4 507.45 923.9 507.7 924.2 508.05 924.35 508.25 924.45 508.9 924.3 509.5 923.9 510.0" fill="#8d8d8d" fill-rule="evenodd" stroke="none"/>
    </g>
    <g id="shape18" transform="matrix(1.0, 0.0, 0.0, 1.0, -1036.7, -531.45)">
      <path d="M1051.7 548.2 L1050.2 549.7 1038.7 549.7 1036.7 547.7 1036.7 534.7 1039.95 531.45 1049.95 531.45 1051.7 533.2 1051.7 548.2" fill="#666666" fill-rule="evenodd" stroke="none"/>
    </g>
    <g id="shape19" transform="matrix(1.0, 0.0, 0.0, 1.0, -957.5, -531.45)">
      <path d="M959.0 538.05 L959.05 538.05 958.55 538.15 958.05 538.05 957.65 537.7 957.5 537.2 957.55 536.7 957.85 536.25 958.3 536.0 958.8 536.0 959.25 536.25 959.55 536.7 959.6 537.2 959.4 537.7 959.0 538.05 M1051.7 548.2 L1050.2 549.7 1038.7 549.7 1036.7 547.7 1036.7 534.7 1039.95 531.45 1049.95 531.45 1051.7 533.2 1051.7 548.2" fill="#1a1a1a" fill-rule="evenodd" stroke="none"/>
    </g>
    <g id="shape20" transform="matrix(1.0, 0.0, 0.0, 1.0, -915.85, -525.1)">
      <path d="M917.3 539.3 L918.85 538.0 918.7 537.8 917.15 539.1 917.3 539.3 M916.0 537.8 L917.55 536.5 917.4 536.3 915.85 537.6 916.0 537.8 M916.45 530.3 L917.75 531.85 917.95 531.7 916.65 530.15 916.45 530.3 M918.0 529.05 L919.3 530.6 919.5 530.45 918.2 528.9 918.0 529.05 M939.5 548.1 L938.2 546.55 938.0 546.7 939.3 548.25 939.5 548.1 M937.95 549.4 L936.65 547.85 936.45 548.0 937.75 549.55 937.95 549.4 M943.1 525.1 L942.95 527.1 943.2 527.1 943.35 525.1 943.1 525.1 M945.1 525.25 L944.95 527.25 945.2 527.25 945.35 525.25 945.1 525.25 M957.4 538.15 L957.45 538.1 957.7 538.25 958.0 538.35 958.35 538.45 958.9 538.4 959.4 538.1 959.7 537.75 959.85 537.4 959.9 537.1 959.9 536.75 959.75 536.35 959.55 536.0 959.25 535.75 958.9 535.6 958.45 535.5 958.1 535.55 957.7 535.75 957.4 536.0 957.15 536.4 957.05 536.65 957.0 536.9 957.0 537.25 957.1 537.6 957.25 537.95 957.4 538.15" fill="#8d8d8d" fill-rule="evenodd" stroke="none"/>
    </g>
    <g id="shape21" transform="matrix(1.0, 0.0, 0.0, 1.0, -957.35, -536.05)">
      <path d="M957.8 537.95 L957.8 538.05 957.95 538.15 958.15 538.2 958.4 538.2 958.65 538.15 958.9 538.05 959.1 537.9 959.25 537.7 959.4 537.45 959.4 537.2 959.4 536.9 959.3 536.65 959.15 536.4 958.85 536.2 958.6 536.1 958.3 536.05 958.05 536.1 957.8 536.2 957.6 536.4 957.45 536.65 957.35 536.95 957.35 537.25 957.45 537.5 957.6 537.75 957.8 537.95" fill="#1a1a1a" fill-rule="evenodd" stroke="none"/>
    </g>
    <g id="shape22" transform="matrix(1.0, 0.0, 0.0, 1.0, -905.05, -498.7)">
      <path d="M974.25 622.4 L973.7 628.9 969.2 628.5 969.75 622.0 974.25 622.4 M949.35 620.2 L949.05 623.7 947.3 623.55 947.6 620.05 949.35 620.2 M1018.7 527.45 L1018.7 550.95 1008.7 550.95 1008.7 527.45 1018.7 527.45 M913.25 537.05 L909.15 541.15 905.05 537.05 909.15 532.95 913.25 537.05 M928.35 508.7 L927.6 509.35 926.95 508.6 927.7 507.95 928.35 508.7 M1027.65 499.15 L1027.65 499.1 1027.2 504.05 1020.5 503.45 1020.7 501.35 1022.45 501.5 1022.7 498.7 1027.65 499.15" fill="#d9d9d9" fill-rule="evenodd" stroke="none"/>
    </g>
    <g id="shape23" transform="matrix(1.0, 0.0, 0.0, 1.0, -914.8, -502.85)">
      <path d="M1050.45 567.7 L1050.45 572.45 1033.2 572.45 1033.2 563.95 1024.7 563.95 1024.7 543.95 1022.7 543.95 1022.7 538.45 1024.7 538.45 1024.7 526.95 1020.95 526.95 1020.95 527.45 1019.7 527.45 1019.7 526.95 1012.95 526.95 1012.95 524.7 1013.2 524.45 1027.45 524.45 1027.45 561.95 1050.45 561.95 1050.45 563.2 1054.2 563.2 1054.2 567.7 1050.45 567.7 M928.0 553.05 L928.05 553.05 925.75 555.0 914.8 542.0 919.15 538.65 920.7 537.35 921.1 536.7 920.0 535.35 920.15 533.6 921.85 532.15 918.95 528.7 931.95 517.75 940.3 527.7 941.85 526.4 945.9 526.6 952.2 533.7 951.6 538.45 949.1 540.55 948.9 544.95 944.5 548.65 939.9 548.25 938.6 546.7 933.45 551.05 932.9 553.15 931.2 554.6 929.1 554.4 928.0 553.05 M926.9 508.6 L925.9 509.75 923.35 506.7 927.95 502.85 930.5 505.9 927.65 507.95 926.9 508.6" fill="#c0c0c0" fill-rule="evenodd" stroke="none"/>
    </g>
    <g id="shape24" transform="matrix(1.0, 0.0, 0.0, 1.0, -948.3, -527.45)">
      <path d="M955.75 632.8 L955.8 632.75 955.6 635.0 953.6 634.85 953.8 632.6 948.3 632.1 949.3 620.65 969.7 622.45 969.2 628.45 973.2 628.8 972.8 633.3 968.8 632.95 968.7 633.95 955.75 632.8 M1024.2 544.45 L1024.2 560.7 1008.7 560.7 1008.7 551.45 1019.2 551.45 1019.2 527.45 1024.2 527.45 1024.2 537.95 1022.2 537.95 1022.2 544.45 1024.2 544.45" fill="#c0c0c0" fill-rule="evenodd" stroke="none"/>
    </g>
    <g id="shape25" transform="matrix(1.0, 0.0, 0.0, 1.0, -914.55, -524.2)">
      <path d="M963.05 635.45 L963.0 635.95 953.3 635.1 953.5 632.6 954.0 632.65 953.85 634.65 963.05 635.45 M965.7 622.15 L965.65 622.65 957.45 621.95 957.5 621.45 965.7 622.15 M1033.45 563.95 L1033.45 564.45 1024.2 564.45 1024.2 561.2 1024.7 561.2 1024.7 563.95 1033.45 563.95 M1033.45 561.45 L1033.45 561.95 1027.45 561.95 1027.45 560.45 1027.95 560.45 1027.95 561.45 1033.45 561.45 M1027.95 524.2 L1027.95 527.2 1027.45 527.2 1027.45 524.7 1012.95 524.7 1012.95 524.2 1027.95 524.2 M936.35 549.0 L933.5 551.4 933.35 550.85 936.4 548.3 937.7 549.85 937.3 550.15 936.35 549.0 M919.9 552.35 L919.95 552.4 919.55 552.7 914.55 546.75 916.85 544.8 917.15 545.2 915.25 546.8 919.9 552.35 M917.0 536.5 L915.85 537.45 915.55 537.05 916.5 536.25 916.9 531.65 916.1 530.7 916.5 530.4 917.45 531.55 917.0 536.5 M949.1 545.15 L949.0 545.15 944.4 549.0 939.65 548.4 938.2 546.7 938.6 546.4 939.9 547.95 944.3 548.5 948.5 544.95 948.9 540.35 951.2 538.4 951.8 533.65 946.35 527.15 945.3 527.05 945.45 525.3 946.0 525.15 945.9 526.55 946.6 526.6 952.4 533.5 951.8 538.6 949.5 540.55 949.1 545.15 M941.85 526.75 L941.85 526.85 940.5 527.95 940.2 527.55 941.75 526.25 942.45 526.3 942.55 524.9 943.05 525.1 942.9 526.85 941.85 526.75" fill="#8d8d8d" fill-rule="evenodd" stroke="none"/>
    </g>
    <g id="shape26" transform="matrix(1.0, 0.0, 0.0, 1.0, -915.9, -525.1)">
      <path d="M963.2 633.5 L963.05 635.5 955.6 634.85 955.75 632.85 963.2 633.5 M921.8 550.75 L919.9 552.35 916.5 548.35 918.4 546.75 921.8 550.75 M939.6 548.2 L937.7 549.8 936.4 548.25 938.3 546.65 939.6 548.2 M932.8 538.55 L930.9 540.15 929.8 538.8 931.7 537.2 932.8 538.55 934.7 536.95 937.45 540.2 935.55 541.8 932.8 538.55 M918.65 538.4 L917.5 539.35 915.9 537.45 917.05 536.5 918.65 538.4 M919.55 529.8 L917.45 531.55 916.5 530.4 918.6 528.65 919.55 529.8 M945.5 525.3 L945.35 527.05 942.9 526.85 943.05 525.1 945.5 525.3" fill="#f0f0f0" fill-rule="evenodd" stroke="none"/>
    </g>
    <g id="shape27" transform="matrix(1.0, 0.0, 0.0, 1.0, -918.7, -502.5)">
      <path d="M946.0 543.8 L945.95 543.85 943.85 545.6 941.75 545.4 939.65 542.9 936.95 545.15 936.65 544.75 939.35 542.5 938.85 541.95 939.25 541.65 942.0 544.9 943.75 545.05 945.45 543.6 945.6 541.85 944.0 539.95 949.35 535.8 944.35 529.85 940.35 533.25 940.05 532.85 942.55 530.75 941.6 529.6 942.0 529.3 942.95 530.45 944.5 529.15 950.1 535.85 944.75 540.0 946.2 541.7 946.0 543.8 M922.1 537.45 L922.15 537.6 921.75 537.9 921.1 537.15 920.7 537.45 920.4 537.05 920.8 536.75 919.85 535.6 920.05 533.5 921.6 532.2 918.7 528.75 932.1 517.5 941.1 528.2 940.7 528.5 934.9 521.6 933.35 522.9 933.05 522.5 934.6 521.2 932.05 518.15 924.75 524.25 925.7 525.4 925.3 525.7 924.35 524.55 919.35 528.75 921.9 531.8 926.9 527.6 926.1 526.65 926.5 526.35 927.3 527.3 932.1 523.3 932.4 523.7 927.6 527.7 929.55 530.0 929.15 530.3 927.2 528.0 920.5 533.6 920.35 535.35 922.1 537.45 M927.25 509.0 L927.2 509.05 925.85 510.15 922.95 506.7 927.95 502.5 930.85 505.95 928.0 508.35 927.7 507.95 930.2 505.85 927.95 503.15 923.75 506.7 926.0 509.4 926.95 508.6 927.25 509.0" fill="#8d8d8d" fill-rule="evenodd" stroke="none"/>
    </g>
    <g id="shape28" transform="matrix(1.0, 0.0, 0.0, 1.0, -914.4, -532.0)">
      <path d="M927.95 553.4 L927.95 553.45 925.65 555.4 914.4 542.0 918.8 538.3 919.1 538.7 915.1 542.05 918.95 546.65 921.25 544.7 921.55 545.1 919.25 547.05 925.7 554.7 928.0 552.75 929.3 554.3 931.05 554.45 932.75 553.0 932.9 551.25 928.9 546.45 929.3 546.15 931.7 549.0 934.4 546.75 934.7 547.15 932.0 549.4 933.45 551.1 933.25 553.2 931.15 554.95 929.05 554.75 927.95 553.4 M938.3 540.45 L937.9 540.75 933.55 535.6 929.15 539.3 929.3 539.5 928.9 539.8 928.75 539.6 928.55 539.75 928.25 539.35 933.25 535.15 930.85 532.3 931.25 532.0 935.25 536.8 937.95 534.55 938.25 534.95 935.55 537.2 938.3 540.45" fill="#8d8d8d" fill-rule="evenodd" stroke="none"/>
    </g>
    <g id="shape29" transform="matrix(1.0, 0.0, 0.0, 1.0, -922.75, -538.6)">
      <path d="M966.85 626.5 L966.65 629.0 961.9 628.6 962.1 626.1 966.85 626.5 M959.85 625.9 L959.65 628.4 954.9 628.0 955.1 625.5 959.85 625.9 M928.35 544.95 L928.45 544.95 928.05 545.25 925.3 542.0 923.6 543.45 923.3 543.05 925.0 541.6 922.75 538.9 923.15 538.6 925.7 541.65 926.65 540.85 926.95 541.25 926.0 542.05 927.1 543.4 928.05 542.6 928.35 543.0 927.4 543.8 928.35 544.95 M935.55 541.85 L935.5 541.85 935.1 542.15 932.7 539.3 930.0 541.55 929.7 541.15 929.9 541.0 929.75 540.8 930.15 540.5 930.3 540.7 932.8 538.6 935.55 541.85" fill="#8d8d8d" fill-rule="evenodd" stroke="none"/>
    </g>
  </defs>
</svg>
