<?xml version="1.0" encoding="UTF-8" standalone="no"?>
<svg xmlns:xlink="http://www.w3.org/1999/xlink" height="825.0px" width="1075.0px" xmlns="http://www.w3.org/2000/svg">
  <g transform="matrix(1.0, 0.0, 0.0, 1.0, -22.0, 0.0)">
    <use height="825.0" transform="matrix(1.0, 0.0, 0.0, 1.0, 22.0, 0.0)" width="1075.0" xlink:href="#shape0"/>
    <use height="156.75" transform="matrix(1.0, 0.0, 0.0, 1.0, 443.5, 332.75)" width="277.0" xlink:href="#shape1"/>
    <use height="245.0" transform="matrix(1.0, 0.0, 0.0, 1.0, 479.4, 290.0)" width="617.6" xlink:href="#shape2"/>
    <use height="825.0" transform="matrix(1.0, 0.0, 0.0, 1.0, 22.0, 0.0)" width="1075.0" xlink:href="#shape3"/>
    <use height="127.5" transform="matrix(1.0, 0.0, 0.0, 1.0, 464.5, 338.5)" width="251.5" xlink:href="#shape4"/>
    <use height="155.5" transform="matrix(1.0, 0.0, 0.0, 1.0, 461.25, 333.5)" width="258.5" xlink:href="#shape5"/>
    <use height="25.5" transform="matrix(1.0, 0.0, 0.0, 1.0, 686.0, 420.25)" width="18.5" xlink:href="#shape6"/>
    <use height="61.0" transform="matrix(1.0, 0.0, 0.0, 1.0, 525.25, 357.75)" width="77.0" xlink:href="#shape7"/>
    <use height="144.5" transform="matrix(1.0, 0.0, 0.0, 1.0, 454.0, 345.0)" width="215.75" xlink:href="#shape8"/>
    <use height="95.5" transform="matrix(1.0, 0.0, 0.0, 1.0, 460.75, 332.75)" width="80.75" xlink:href="#shape9"/>
    <use height="36.25" transform="matrix(1.0, 0.0, 0.0, 1.0, 467.75, 391.75)" width="0.5" xlink:href="#shape10"/>
    <use height="86.5" transform="matrix(1.0, 0.0, 0.0, 1.0, 454.5, 361.25)" width="172.75" xlink:href="#shape11"/>
    <use height="72.5" transform="matrix(1.0, 0.0, 0.0, 1.0, 454.5, 348.75)" width="36.5" xlink:href="#shape12"/>
    <use height="108.75" transform="matrix(1.0, 0.0, 0.0, 1.0, 461.25, 361.25)" width="259.25" xlink:href="#shape13"/>
    <use height="54.25" transform="matrix(1.0, 0.0, 0.0, 1.0, 708.5, 413.5)" width="12.0" xlink:href="#shape14"/>
    <use height="156.75" transform="matrix(1.0, 0.0, 0.0, 1.0, 480.9, 332.75)" width="239.6" xlink:href="#shape15"/>
    <use height="96.05" transform="matrix(1.0, 0.0, 0.0, 1.0, 499.65, 344.45)" width="172.1" xlink:href="#shape16"/>
    <use height="76.25" transform="matrix(1.0, 0.0, 0.0, 1.0, 535.5, 372.0)" width="133.0" xlink:href="#shape17"/>
    <use height="95.85" transform="matrix(1.0, 0.0, 0.0, 1.0, 499.65, 344.4)" width="71.85" xlink:href="#shape18"/>
    <use height="67.75" transform="matrix(1.0, 0.0, 0.0, 1.0, 535.5, 376.25)" width="40.0" xlink:href="#shape19"/>
    <use height="58.25" transform="matrix(1.0, 0.0, 0.0, 1.0, 571.5, 381.0)" width="3.75" xlink:href="#shape20"/>
    <use height="12.25" transform="matrix(1.0, 0.0, 0.0, 1.0, 661.5, 380.25)" width="10.0" xlink:href="#shape21"/>
    <use height="10.0" transform="matrix(1.0, 0.0, 0.0, 1.0, 659.25, 390.25)" width="12.25" xlink:href="#shape22"/>
    <use height="38.75" transform="matrix(1.0, 0.0, 0.0, 1.0, 615.0, 390.75)" width="46.5" xlink:href="#shape23"/>
    <use height="12.25" transform="matrix(1.0, 0.0, 0.0, 1.0, 659.25, 420.25)" width="12.25" xlink:href="#shape24"/>
    <use height="11.0" transform="matrix(1.0, 0.0, 0.0, 1.0, 558.75, 430.25)" width="112.75" xlink:href="#shape25"/>
    <use height="76.25" transform="matrix(1.0, 0.0, 0.0, 1.0, 539.5, 372.0)" width="124.25" xlink:href="#shape26"/>
    <use height="127.75" transform="matrix(1.0, 0.0, 0.0, 1.0, 491.2, 337.5)" width="193.05" xlink:href="#shape27"/>
  </g>
  <defs>
    <g id="shape0" transform="matrix(1.0, 0.0, 0.0, 1.0, -22.0, 0.0)">
      <path d="M22.0 0.0 L22.0 825.0 1097.0 825.0 1097.0 0.0 22.0 0.0" fill="#1a1a1a" fill-rule="evenodd" stroke="none"/>
    </g>
    <g id="shape1" transform="matrix(1.0, 0.0, 0.0, 1.0, -443.5, -332.75)">
      <path d="M485.25 351.75 L484.25 352.75 460.75 376.25 460.75 376.5 443.5 376.5 443.5 442.5 460.75 442.5 460.75 446.0 485.0 470.0 533.25 470.0 541.25 489.5 720.5 489.5 720.5 332.75 541.25 332.75 533.25 351.75 485.25 351.75" fill="#d9d9d9" fill-rule="evenodd" stroke="none"/>
    </g>
    <g id="shape2" transform="matrix(1.0, 0.0, 0.0, 1.0, -479.4, -290.0)">
      <path d="M707.0 332.75 L720.5 332.75 720.5 489.5 707.0 489.5 707.0 528.75 713.25 535.0 1097.0 535.0 1097.0 290.0 764.5 290.0 761.0 293.5 713.0 293.5 707.0 299.5 707.0 332.75 M479.45 343.85 L479.4 343.9 480.1 351.85 505.25 349.65 505.0 346.65 504.25 346.7 504.1 344.7 504.85 344.65 504.6 341.65 479.45 343.85" fill="#d9d9d9" fill-rule="evenodd" stroke="none"/>
    </g>
    <g id="shape3" transform="matrix(1.0, 0.0, 0.0, 1.0, -22.0, 0.0)">
      <path d="M527.0 590.0 L527.0 824.75 1097.0 825.0 1097.0 560.0 762.0 560.0 754.5 567.5 672.0 567.5 654.5 550.0 574.5 550.0 562.0 562.5 542.0 562.5 527.0 577.5 527.0 590.0 M324.5 432.5 L22.0 432.5 22.0 825.0 494.5 824.75 494.5 560.0 484.5 550.0 484.5 540.0 464.5 520.0 464.5 500.0 454.5 490.0 454.5 482.5 424.5 452.5 402.0 452.5 382.0 432.5 324.5 432.5 M22.0 0.0 L22.0 375.0 399.5 375.0 409.5 365.0 432.0 365.0 474.5 322.5 504.5 322.5 532.0 295.0 554.5 295.0 574.5 275.0 599.5 275.0 614.5 260.0 712.0 260.0 717.0 265.0 769.5 265.0 777.0 257.5 809.5 257.5 822.0 270.0 1097.0 270.0 1097.0 0.0 22.0 0.0" fill="#d9d9d9" fill-rule="evenodd" stroke="none"/>
    </g>
    <g id="shape4" transform="matrix(1.0, 0.0, 0.0, 1.0, -464.5, -338.5)">
      <path d="M693.5 374.5 L693.5 379.5 696.25 379.5 696.25 377.5 703.25 377.5 703.25 374.5 693.5 374.5 M709.5 382.25 L709.5 392.25 712.5 392.25 712.5 382.25 709.5 382.25 M709.5 372.25 L709.5 379.25 712.5 379.25 712.5 372.25 709.5 372.25 M713.0 338.5 L713.0 345.5 716.0 345.5 716.0 338.5 713.0 338.5 M683.85 410.2 L683.85 410.1 684.05 408.65 684.45 407.35 685.05 406.1 685.95 405.0 687.05 404.15 688.3 403.5 689.65 403.05 691.0 402.9 692.4 403.05 693.75 403.45 695.0 404.15 696.05 405.05 696.95 406.15 697.6 407.35 698.0 408.7 698.15 410.15 698.0 411.5 697.6 412.85 696.95 414.05 696.1 415.15 695.0 416.05 693.8 416.7 692.4 417.15 691.05 417.3 689.65 417.15 688.3 416.75 687.05 416.1 686.0 415.25 685.1 414.15 684.4 412.95 684.0 411.6 683.85 410.2 M704.5 400.0 L704.5 397.0 704.0 397.0 701.8 395.35 699.0 393.75 696.15 392.5 693.5 391.75 691.2 391.35 689.25 391.25 689.25 374.5 686.0 374.5 686.0 394.25 689.25 394.25 691.95 394.45 694.7 395.2 697.6 396.3 700.3 397.9 702.75 400.0 704.5 400.0 M575.75 457.75 L578.75 457.75 578.75 448.25 575.75 448.25 575.75 457.75 M646.5 353.8 L646.45 353.75 645.3 354.4 644.45 355.45 644.05 356.7 644.2 358.05 644.8 359.2 645.8 360.05 647.1 360.45 648.4 360.3 649.6 359.7 650.45 358.65 650.8 357.4 650.7 356.1 650.1 354.95 649.1 354.1 647.8 353.7 646.5 353.8 M694.25 340.5 L694.25 343.75 704.25 343.75 704.25 340.5 694.25 340.5 M520.75 379.25 L540.5 379.25 540.5 376.5 520.75 376.5 520.75 379.25 M497.75 379.25 L517.5 379.25 517.5 376.5 497.75 376.5 497.75 379.25 M474.75 379.25 L494.25 379.25 494.25 376.5 474.75 376.5 474.75 379.25 M532.5 444.75 L526.0 451.0 532.5 457.75 533.0 457.75 533.0 444.75 532.5 444.75 M517.0 442.25 L523.0 448.25 529.0 442.25 523.0 436.25 517.0 442.25 M516.75 459.75 L523.0 466.0 529.0 460.0 522.75 453.75 516.75 459.75 M514.0 445.25 L508.0 451.25 514.0 457.25 520.0 451.25 514.0 445.25 M507.5 432.25 L507.5 432.75 514.0 439.25 520.5 432.75 520.5 432.25 507.5 432.25 M499.25 459.75 L505.25 466.0 511.5 460.0 505.25 453.75 499.25 459.75 M481.75 459.75 L487.75 465.75 493.75 459.75 487.75 453.75 481.75 459.75 M499.25 442.25 L505.25 448.25 511.25 442.25 505.25 436.25 499.25 442.25 M490.0 432.25 L490.0 432.75 496.5 439.25 503.0 432.75 503.0 432.25 490.0 432.25 M481.75 442.0 L487.75 448.0 493.75 442.0 487.75 436.0 481.75 442.0 M473.0 451.0 L479.0 457.0 485.0 451.0 479.0 445.0 473.0 451.0 M472.5 432.25 L472.5 432.75 479.0 439.25 485.5 432.75 485.5 432.25 472.5 432.25 M470.5 436.25 L464.5 442.25 470.5 448.25 476.5 442.25 470.5 436.25" fill="#929292" fill-rule="evenodd" stroke="none"/>
    </g>
    <g id="shape5" transform="matrix(1.0, 0.0, 0.0, 1.0, -461.25, -333.5)">
      <path d="M622.75 460.25 L622.75 467.5 625.75 467.5 625.75 460.25 622.75 460.25 M622.75 448.25 L622.75 458.0 625.75 458.0 625.75 448.25 622.75 448.25 M654.75 480.0 L654.75 482.75 663.5 482.75 663.5 480.0 654.75 480.0 M649.0 474.0 L649.0 476.75 656.0 476.75 656.0 474.0 649.0 474.0 M643.25 480.0 L643.25 482.75 650.25 482.75 650.25 480.0 643.25 480.0 M638.0 474.0 L638.0 476.75 644.75 476.75 644.75 474.0 638.0 474.0 M629.75 480.0 L629.75 482.75 638.75 482.75 638.75 480.0 629.75 480.0 M620.75 474.0 L620.75 476.75 630.5 476.75 630.5 474.0 620.75 474.0 M612.0 480.0 L612.0 482.75 621.0 482.75 621.0 480.0 612.0 480.0 M602.0 474.0 L602.0 479.5 605.0 479.5 605.0 476.75 612.5 476.75 612.5 474.0 602.0 474.0 M587.5 474.0 L587.5 476.75 594.75 476.75 594.75 479.5 597.75 479.5 597.75 474.0 587.5 474.0 M581.75 480.0 L581.75 482.75 590.75 482.75 590.75 480.0 581.75 480.0 M575.5 474.0 L575.5 479.5 578.5 479.5 578.5 476.75 582.75 476.75 582.75 474.0 575.5 474.0 M560.5 472.0 L560.5 475.0 567.5 475.0 567.5 481.75 560.5 481.75 560.5 485.0 570.5 485.0 570.5 472.0 560.5 472.0 M546.75 472.0 L546.75 484.75 556.75 484.75 556.75 481.75 549.75 481.75 549.75 475.0 556.75 475.0 556.75 472.0 546.75 472.0 M542.5 465.25 L542.5 468.25 562.0 468.25 562.0 465.25 542.5 465.25 M551.5 363.75 L551.5 366.25 559.75 366.25 559.75 363.75 551.5 363.75 M563.75 363.75 L563.75 366.25 571.75 366.25 571.75 363.75 563.75 363.75 M566.75 343.5 L566.75 361.0 571.75 361.0 571.75 343.5 566.75 343.5 M551.5 343.5 L551.5 361.0 556.25 361.0 556.25 343.5 551.5 343.5 M543.5 354.75 L543.5 374.0 546.5 374.0 546.5 354.75 543.5 354.75 M524.75 469.5 L533.0 469.5 533.0 462.0 532.25 462.0 524.75 468.75 524.75 469.5 M507.5 469.5 L520.75 469.5 520.75 468.5 513.75 462.25 507.5 468.25 507.5 469.5 M490.25 469.5 L503.0 469.5 503.0 469.0 496.5 462.5 490.25 468.75 490.25 469.5 M461.25 432.25 L461.25 439.75 468.25 432.75 468.25 432.25 461.25 432.25 M461.25 376.5 L461.25 379.25 471.5 379.25 471.5 376.5 461.25 376.5 M480.25 360.0 L480.25 365.25 482.25 365.25 482.25 360.0 480.25 360.0 M483.25 356.25 L483.25 358.5 494.5 358.5 494.5 356.25 483.25 356.25 M497.75 356.25 L508.75 356.25 508.75 358.5 497.75 358.5 497.75 356.25 M497.75 367.25 L497.75 369.25 510.25 369.25 510.25 360.75 508.75 360.75 508.75 367.25 497.75 367.25 M483.25 367.25 L483.25 369.25 494.5 369.25 494.5 367.25 483.25 367.25 M671.5 380.5 L671.5 380.25 671.5 360.25 668.25 360.25 668.25 380.5 671.5 380.5 M575.75 459.75 L575.75 469.75 578.75 469.75 578.75 459.75 575.75 459.75 M575.5 489.0 L598.0 489.0 598.0 486.0 578.5 486.0 578.5 483.25 575.5 483.25 575.5 489.0 M602.0 489.0 L621.75 489.0 621.75 486.0 602.0 486.0 602.0 489.0 M629.75 489.0 L645.75 489.0 645.75 486.0 629.75 486.0 629.75 489.0 M669.75 476.75 L669.75 474.0 660.25 474.0 660.25 476.75 669.75 476.75 M670.5 486.0 L670.5 488.75 719.75 488.75 719.75 486.0 670.5 486.0 M650.25 489.0 L669.75 489.0 669.75 486.0 650.25 486.0 650.25 489.0 M719.75 455.75 L719.75 452.75 708.5 452.75 708.5 455.75 719.75 455.75 M719.75 447.75 L719.75 427.75 717.0 427.75 717.0 447.75 719.75 447.75 M719.75 423.25 L719.75 420.25 708.5 420.25 708.5 423.25 719.75 423.25 M719.75 400.0 L719.75 397.0 708.5 397.0 708.5 400.0 719.75 400.0 M719.75 392.25 L719.75 372.25 716.75 372.25 716.75 392.25 719.75 392.25 M719.75 367.5 L719.75 364.5 708.5 364.5 708.5 367.5 719.75 367.5 M546.5 333.5 L543.5 333.5 543.5 352.5 546.5 352.5 546.5 333.5 M571.75 333.5 L551.5 333.5 551.5 340.75 556.25 340.75 556.25 341.25 559.75 341.25 560.15 341.85 560.75 342.3 561.75 342.5 562.75 342.3 563.35 341.8 563.75 341.25 567.0 341.25 567.0 340.75 571.75 340.75 571.75 333.5 M579.0 333.5 L576.0 333.5 576.0 353.0 579.0 353.0 579.0 333.5 M623.75 333.5 L620.75 333.5 620.75 353.0 623.75 353.0 623.75 333.5 M686.75 336.0 L719.75 336.0 719.75 333.5 686.75 333.5 686.75 336.0 M671.5 333.5 L668.25 333.5 668.25 353.0 671.5 353.0 671.5 333.5 M686.75 348.25 L686.75 351.25 704.5 351.25 704.5 348.25 686.75 348.25 M708.5 348.25 L708.5 351.25 719.75 351.25 719.75 348.25 708.5 348.25 M604.75 340.25 L604.75 343.25 611.75 343.25 611.75 350.0 605.0 350.0 605.0 353.0 614.75 353.0 614.75 340.25 604.75 340.25 M584.0 340.25 L584.0 353.0 594.25 353.0 594.25 350.0 587.25 350.0 587.25 343.25 594.25 343.25 594.25 340.25 584.0 340.25 M693.25 441.0 L693.25 445.75 703.25 445.75 703.25 442.75 696.25 442.75 696.25 441.0 693.25 441.0 M693.25 433.25 L693.25 438.25 696.25 438.25 696.25 436.25 703.25 436.25 703.25 433.25 693.25 433.25 M704.5 452.75 L689.25 452.75 689.25 449.75 686.0 449.75 686.0 455.75 704.5 455.75 704.5 452.75 M709.75 427.75 L709.75 447.75 712.75 447.75 712.75 427.75 709.75 427.75 M704.5 364.5 L686.0 364.5 686.0 370.5 689.25 370.5 689.25 367.5 704.5 367.5 704.5 364.5 M693.5 382.25 L693.5 387.0 703.25 387.0 703.25 384.25 696.25 384.25 696.25 382.25 693.5 382.25" fill="#929292" fill-rule="evenodd" stroke="none"/>
    </g>
    <g id="shape6" transform="matrix(1.0, 0.0, 0.0, 1.0, -686.0, -420.25)">
      <path d="M686.0 426.0 L686.0 445.75 689.25 445.75 689.25 429.25 691.1 429.1 693.0 428.75 696.25 427.75 699.25 426.5 701.9 424.85 703.75 423.25 704.5 423.25 704.5 420.25 702.75 420.25 700.4 422.3 697.5 424.0 695.05 425.05 692.0 425.75 689.25 426.0 686.0 426.0" fill="#929292" fill-rule="evenodd" stroke="none"/>
    </g>
    <g id="shape7" transform="matrix(1.0, 0.0, 0.0, 1.0, -525.25, -357.75)">
      <path d="M601.75 359.75 L602.25 359.75 602.25 357.75 601.75 357.75 601.75 359.75 M597.0 359.75 L597.5 359.75 597.5 357.75 597.0 357.75 597.0 359.75 M584.5 359.75 L584.0 359.75 584.0 357.75 584.5 357.75 584.5 359.75 M588.75 359.75 L589.25 359.75 589.25 357.75 588.75 357.75 588.75 359.75 M563.75 372.0 L575.5 372.0 575.5 372.5 563.75 372.5 563.75 372.0 M527.25 401.5 L527.25 401.0 525.25 401.0 525.25 401.5 527.25 401.5 M527.25 405.75 L527.25 406.25 525.25 406.25 525.25 405.75 527.25 405.75 M527.25 414.25 L527.25 413.75 525.25 413.75 525.25 414.25 527.25 414.25 M527.25 418.25 L527.25 418.75 525.25 418.75 525.25 418.25 527.25 418.25" fill="#8d8d8d" fill-rule="evenodd" stroke="none"/>
    </g>
    <g id="shape8" transform="matrix(1.0, 0.0, 0.0, 1.0, -454.0, -345.0)">
      <path d="M533.0 469.5 L485.25 469.5 461.25 445.75 461.25 413.05 460.75 413.05 460.75 446.0 485.0 470.0 533.0 470.0 533.0 469.5 M669.75 489.0 L541.5 489.0 533.75 470.0 533.25 470.0 541.25 489.5 669.75 489.5 669.75 489.0 M454.5 399.0 L454.0 399.0 454.0 421.25 454.5 421.25 454.5 399.0 M487.0 364.75 L505.25 364.75 505.25 361.0 487.0 361.0 487.0 364.75 M564.25 360.75 L564.25 345.0 559.25 345.0 559.25 360.75 564.25 360.75 M527.75 401.5 L527.75 393.25 539.5 393.25 539.5 392.75 527.25 392.75 527.25 401.5 527.75 401.5 M527.75 414.25 L527.75 405.75 527.25 405.75 527.25 414.25 527.75 414.25 M539.5 426.75 L527.75 426.75 527.75 418.25 527.25 418.25 527.25 427.25 539.5 427.25 539.5 426.75 M575.5 447.75 L563.75 447.75 563.75 448.25 575.5 448.25 575.5 447.75 M627.25 436.25 L627.75 436.25 627.75 446.5 627.25 446.5 627.25 436.25 M627.0 373.0 L627.0 384.25 627.5 384.25 627.5 373.0 627.0 373.0 M584.5 360.25 L576.25 360.25 576.25 372.0 575.75 372.0 575.75 359.75 584.5 359.75 584.5 360.25 M597.5 359.75 L588.75 359.75 588.75 360.25 597.5 360.25 597.5 359.75 M622.75 372.0 L623.25 372.0 623.25 359.75 614.75 359.75 614.75 360.25 622.75 360.25 622.75 372.0 M614.75 359.75 L615.25 359.75 615.25 357.75 614.75 357.75 614.75 359.75 M610.25 359.75 L609.75 359.75 609.75 357.75 610.25 357.75 610.25 359.75 601.75 359.75 601.75 360.25 610.25 360.25 610.25 359.75" fill="#8d8d8d" fill-rule="evenodd" stroke="none"/>
    </g>
    <g id="shape9" transform="matrix(1.0, 0.0, 0.0, 1.0, -460.75, -332.75)">
      <path d="M517.5 412.0 L517.5 428.25 518.0 428.25 518.0 412.0 517.5 412.0 M517.5 392.0 L517.5 408.0 518.0 408.0 518.0 392.0 517.5 392.0 M532.95 371.9 L533.45 371.9 533.45 359.8 532.95 359.8 532.95 371.9 M461.25 407.05 L461.25 376.5 485.5 352.25 517.0 352.25 517.0 370.75 516.25 370.75 516.25 360.75 510.25 360.75 510.25 371.25 510.75 371.25 510.75 361.25 515.75 361.25 515.75 371.25 517.5 371.25 517.5 352.25 533.5 352.25 541.5 333.5 541.25 332.75 533.25 351.75 485.25 351.75 460.75 376.25 460.75 407.05 461.25 407.05" fill="#8d8d8d" fill-rule="evenodd" stroke="none"/>
    </g>
    <g id="shape10" transform="matrix(1.0, 0.0, 0.0, 1.0, -467.75, -391.75)">
      <path d="M467.75 412.0 L467.75 428.0 468.25 428.0 468.25 412.0 467.75 412.0 M467.75 391.75 L467.75 407.75 468.25 407.75 468.25 391.75 467.75 391.75" fill="#8d8d8d" fill-rule="evenodd" stroke="none"/>
    </g>
    <g id="shape11" transform="matrix(1.0, 0.0, 0.0, 1.0, -454.5, -361.25)">
      <path d="M563.75 444.0 L563.75 447.75 571.25 447.75 571.25 444.0 563.75 444.0 M627.25 446.5 L627.25 440.5 623.5 440.5 623.5 446.5 627.25 446.5 M623.5 373.0 L623.5 379.75 627.0 379.75 627.0 373.0 623.5 373.0 M563.75 372.5 L571.25 372.5 571.25 376.25 563.75 376.25 563.75 372.5 M454.5 413.25 L454.5 421.25 460.75 421.25 460.75 413.25 454.5 413.25 M454.5 399.0 L454.5 406.75 460.75 406.75 460.75 399.0 454.5 399.0 M510.75 361.25 L510.75 369.75 515.75 369.75 515.75 361.25 510.75 361.25" fill="#f0f0f0" fill-rule="evenodd" stroke="none"/>
    </g>
    <g id="shape12" transform="matrix(1.0, 0.0, 0.0, 1.0, -454.5, -348.75)">
      <path d="M489.0 351.75 L491.0 351.75 491.0 348.75 489.0 348.75 489.0 351.75 M454.5 413.25 L454.5 421.25 460.75 421.25 460.75 413.25 454.5 413.25 M454.5 399.0 L454.5 406.75 460.75 406.75 460.75 399.0 454.5 399.0" fill="#f0f0f0" fill-rule="evenodd" stroke="none"/>
    </g>
    <g id="shape13" transform="matrix(1.0, 0.0, 0.0, 1.0, -461.25, -361.25)">
      <path d="M719.75 361.25 L719.75 364.5 708.5 364.5 708.5 365.25 719.75 365.25 719.75 399.5 708.5 399.5 708.5 400.0 719.75 400.0 719.75 413.75 720.5 413.75 720.5 361.25 719.75 361.25 M533.0 461.5 L533.0 470.0 533.75 470.0 533.75 461.5 533.0 461.5 M533.0 444.0 L533.0 458.25 533.75 458.25 533.75 444.0 533.0 444.0 M524.25 431.5 L524.25 432.25 533.0 432.25 533.0 440.5 533.75 440.5 533.75 431.5 524.25 431.5 M507.0 431.5 L507.0 432.25 521.0 432.25 521.0 431.5 507.0 431.5 M489.25 431.5 L489.25 432.25 503.5 432.25 503.5 431.5 489.25 431.5 M471.75 431.5 L471.75 432.25 486.0 432.25 486.0 431.5 471.75 431.5 M461.25 431.5 L461.25 432.25 468.5 432.25 468.5 431.5 461.25 431.5 M671.5 380.25 L651.5 380.25 651.5 384.25 623.5 384.25 623.5 372.0 575.5 372.0 575.5 376.25 543.5 376.25 543.5 392.25 539.5 392.25 539.5 428.25 543.5 428.25 543.5 444.0 575.5 444.0 575.5 448.25 623.5 448.25 623.5 436.25 651.5 436.25 651.5 440.25 671.5 440.25 671.5 420.25 651.75 420.25 651.75 416.0 652.5 416.0 652.5 414.0 654.5 414.0 654.5 411.75 653.5 411.75 653.5 408.5 654.5 408.5 654.5 406.25 652.5 406.25 652.5 404.25 651.75 404.25 651.75 400.25 671.5 400.25 671.5 380.25" fill="#8d8d8d" fill-rule="evenodd" stroke="none"/>
    </g>
    <g id="shape14" transform="matrix(1.0, 0.0, 0.0, 1.0, -708.5, -413.5)">
      <path d="M719.75 413.5 L719.75 420.25 708.5 420.25 708.5 421.0 719.75 421.0 719.75 455.0 708.5 455.0 708.5 455.75 719.75 455.75 719.75 467.75 720.5 467.75 720.5 413.5 719.75 413.5" fill="#8d8d8d" fill-rule="evenodd" stroke="none"/>
    </g>
    <g id="shape15" transform="matrix(1.0, 0.0, 0.0, 1.0, -480.9, -332.75)">
      <path d="M494.65 345.05 L494.9 348.05 496.65 347.9 500.1 347.1 502.1 346.95 501.95 344.95 499.95 345.1 496.4 344.9 494.65 345.05 M484.65 345.9 L484.9 348.9 481.15 349.25 480.9 346.25 484.65 345.9 M492.6 449.45 L493.5 449.8 493.15 450.75 492.25 450.35 492.6 449.45 M493.15 452.5 L492.25 452.9 492.65 453.8 493.55 453.4 493.15 452.5 M494.75 454.65 L494.7 454.65 494.35 455.55 495.3 455.95 495.7 455.0 494.75 454.65 M498.4 454.65 L498.35 454.7 497.45 455.1 497.9 456.0 498.8 455.55 498.4 454.65 M500.05 452.45 L500.05 452.5 500.95 452.9 500.55 453.8 499.65 453.35 500.05 452.45 M499.55 449.8 L499.95 450.7 500.85 450.3 500.45 449.4 499.55 449.8 M497.75 447.25 L497.8 447.25 497.4 448.15 498.3 448.5 498.65 447.6 497.75 447.25 M494.4 447.6 L494.7 448.55 495.65 448.25 495.35 447.3 494.4 447.6 M669.75 463.75 L669.75 464.5 670.5 464.5 670.5 463.75 669.75 463.75 M669.25 360.5 L669.25 380.5 670.0 380.5 670.0 360.5 669.25 360.5 M686.0 449.75 L686.0 455.75 704.5 455.75 704.5 455.0 686.75 455.0 686.75 449.75 686.0 449.75 M686.0 426.0 L686.05 426.0 686.05 445.75 686.8 445.75 686.8 426.75 689.3 426.75 692.3 426.5 695.25 425.75 697.9 424.65 700.85 422.85 703.0 421.0 704.5 421.0 704.5 420.25 702.75 420.25 700.4 422.3 697.5 424.0 695.05 425.05 692.0 425.75 689.25 426.0 686.0 426.0 M686.0 364.5 L686.0 370.5 686.75 370.5 686.75 365.25 704.5 365.25 704.5 364.5 686.0 364.5 M686.0 374.5 L686.0 394.25 689.25 394.25 691.95 394.45 694.7 395.2 697.6 396.3 700.3 397.9 702.75 400.0 704.5 400.0 704.5 399.25 703.0 399.25 700.75 397.5 698.0 395.75 695.0 394.5 692.0 393.75 689.25 393.5 686.75 393.5 686.75 374.5 686.0 374.5 M541.25 332.75 L541.5 333.5 577.0 333.5 577.0 352.75 577.75 352.75 577.75 333.5 621.75 333.5 621.75 352.75 622.5 352.75 622.5 333.5 669.25 333.5 669.25 352.75 670.0 352.75 670.0 333.5 686.0 333.5 686.0 332.75 541.25 332.75 M708.5 350.5 L719.75 350.5 719.75 333.5 686.75 333.5 686.75 350.5 704.5 350.5 704.5 351.25 686.0 351.25 686.0 332.75 720.5 332.75 720.5 361.5 719.75 361.5 719.75 351.25 708.5 351.25 708.5 350.5 M670.5 440.25 L669.75 440.25 669.75 454.75 670.5 454.75 670.5 440.25 M719.75 488.75 L670.5 488.75 670.5 474.0 669.75 474.0 669.75 489.5 719.75 489.5 719.75 488.75 M719.75 467.5 L719.75 489.5 720.5 489.5 720.5 467.5 719.75 467.5" fill="#8d8d8d" fill-rule="evenodd" stroke="none"/>
    </g>
    <g id="shape16" transform="matrix(1.0, 0.0, 0.0, 1.0, -499.65, -344.45)">
      <path d="M650.75 400.5 L650.75 405.25 650.75 419.75 616.0 419.75 616.0 400.5 650.75 400.5 M575.75 400.5 L575.75 419.75 607.5 419.75 607.5 400.5 575.75 400.5 M655.5 380.0 L668.5 380.0 668.5 380.25 671.75 380.25 671.75 400.5 655.5 400.5 655.5 397.25 668.5 397.0 668.5 383.0 655.5 383.0 655.5 380.0 M671.75 420.0 L671.75 440.5 671.0 440.5 671.0 440.25 668.5 440.25 668.5 440.5 655.5 440.5 655.5 437.25 668.5 437.25 668.5 423.25 655.5 423.25 655.5 420.0 671.75 420.0 M499.65 344.85 L499.85 347.35 504.6 346.95 504.4 344.45 499.65 344.85" fill="#d9d9d9" fill-rule="evenodd" stroke="none"/>
    </g>
    <g id="shape17" transform="matrix(1.0, 0.0, 0.0, 1.0, -535.5, -372.0)">
      <path d="M668.5 383.25 L651.5 383.25 651.5 384.25 623.5 384.25 623.5 372.0 575.5 372.0 575.5 376.25 543.5 376.25 543.5 392.25 539.5 392.25 539.5 400.0 535.5 400.0 535.5 420.25 539.5 420.25 539.5 428.25 543.5 428.25 543.5 444.0 575.5 444.0 575.5 448.25 623.5 448.25 623.5 436.25 651.5 436.25 651.5 437.25 668.5 437.25 668.5 423.25 651.5 423.25 651.5 419.75 616.0 419.75 616.0 410.25 607.5 410.25 607.5 419.75 575.75 419.75 575.75 400.5 607.5 400.5 607.5 410.25 616.0 410.25 616.0 400.5 651.5 400.5 651.5 397.0 668.5 397.0 668.5 383.25" fill="#c0c0c0" fill-rule="evenodd" stroke="none"/>
    </g>
    <g id="shape18" transform="matrix(1.0, 0.0, 0.0, 1.0, -499.65, -344.4)">
      <path d="M563.5 440.25 L563.5 429.75 571.0 429.75 571.0 439.25 571.5 439.25 571.5 429.25 563.0 429.25 563.0 440.25 563.5 440.25 M571.5 381.0 L571.5 391.0 563.0 391.0 563.0 380.0 563.5 380.0 563.5 390.5 571.0 390.5 571.0 381.0 571.5 381.0 M500.65 344.75 L500.65 344.7 499.65 344.8 499.85 347.3 504.6 346.9 504.4 344.4 501.65 344.65 501.7 345.15 503.95 344.95 504.1 346.45 500.35 346.8 500.2 345.3 500.7 345.25 500.65 344.75" fill="#8d8d8d" fill-rule="evenodd" stroke="none"/>
    </g>
    <g id="shape19" transform="matrix(1.0, 0.0, 0.0, 1.0, -535.5, -376.25)">
      <path d="M544.0 428.25 L543.5 428.25 543.5 444.0 575.5 444.0 575.5 443.5 544.0 443.5 544.0 428.25 M539.5 400.0 L535.5 400.0 535.5 420.25 539.5 420.25 539.5 419.75 536.0 419.75 536.0 400.5 539.5 400.5 539.5 400.0 M543.5 376.25 L543.5 392.25 544.0 392.25 544.0 376.75 575.5 376.75 575.5 376.25 543.5 376.25" fill="#8d8d8d" fill-rule="evenodd" stroke="none"/>
    </g>
    <g id="shape20" transform="matrix(1.0, 0.0, 0.0, 1.0, -571.5, -381.0)">
      <path d="M575.25 429.25 L575.25 439.25 571.5 439.25 571.5 429.25 575.25 429.25 M571.5 391.0 L575.25 391.0 575.25 381.0 571.5 381.0 571.5 391.0" fill="#f0f0f0" fill-rule="evenodd" stroke="none"/>
    </g>
    <g id="shape21" transform="matrix(1.0, 0.0, 0.0, 1.0, -661.5, -380.25)">
      <path d="M671.5 391.5 L670.5 391.5 670.5 392.5 671.5 392.5 671.5 391.5 M671.5 387.75 L670.5 387.75 670.5 388.75 671.5 388.75 671.5 387.75 M671.5 380.25 L666.25 380.25 666.25 381.25 667.5 381.25 667.5 383.0 661.5 383.0 661.5 384.0 667.5 384.0 667.5 390.25 668.5 390.25 668.5 384.25 670.5 384.25 670.5 385.5 671.5 385.5 671.5 380.25" fill="#8d8d8d" fill-rule="evenodd" stroke="none"/>
    </g>
    <g id="shape22" transform="matrix(1.0, 0.0, 0.0, 1.0, -659.25, -390.25)">
      <path d="M660.25 400.25 L660.25 399.25 659.25 399.25 659.25 400.25 660.25 400.25 M663.75 400.25 L663.75 399.25 662.75 399.25 662.75 400.25 663.75 400.25 M671.5 394.75 L670.5 394.75 670.5 396.25 668.5 396.25 668.5 390.25 667.5 390.25 667.5 396.25 661.5 396.25 661.5 397.25 667.5 397.25 667.5 399.25 666.25 399.25 666.25 400.25 671.5 400.25 671.5 394.75" fill="#8d8d8d" fill-rule="evenodd" stroke="none"/>
    </g>
    <g id="shape23" transform="matrix(1.0, 0.0, 0.0, 1.0, -615.0, -390.75)">
      <path d="M616.0 410.25 L616.0 419.75 650.75 419.75 650.75 410.25 653.25 410.25 653.25 414.0 652.5 414.0 652.5 416.0 651.75 416.0 651.75 420.25 656.75 420.25 656.75 421.25 655.5 421.25 655.5 423.25 661.5 423.25 661.5 424.25 652.5 424.25 652.5 429.5 651.5 429.5 651.5 424.75 615.0 424.75 615.0 410.25 616.0 410.25 616.0 400.5 650.75 400.5 650.75 410.25 653.25 410.25 653.25 406.25 652.5 406.25 652.5 404.25 651.75 404.25 651.75 400.25 656.75 400.25 656.75 399.25 655.5 399.25 655.5 397.25 661.5 397.25 661.5 396.25 652.5 396.25 652.5 390.75 651.45 390.75 651.45 395.5 615.0 395.5 615.0 410.25 616.0 410.25" fill="#8d8d8d" fill-rule="evenodd" stroke="none"/>
    </g>
    <g id="shape24" transform="matrix(1.0, 0.0, 0.0, 1.0, -659.25, -420.25)">
      <path d="M671.5 431.5 L670.5 431.5 670.5 432.5 671.5 432.5 671.5 431.5 M671.5 427.75 L670.5 427.75 670.5 428.75 671.5 428.75 671.5 427.75 M666.25 420.25 L666.25 421.25 667.75 421.25 667.75 423.25 661.5 423.25 661.5 424.25 667.5 424.25 667.5 430.25 668.5 430.25 668.5 424.0 670.5 424.0 670.5 425.25 671.5 425.25 671.5 420.25 666.25 420.25 M662.75 420.25 L662.75 421.25 663.75 421.25 663.75 420.25 662.75 420.25 M659.25 420.25 L659.25 421.25 660.25 421.25 660.25 420.25 659.25 420.25" fill="#8d8d8d" fill-rule="evenodd" stroke="none"/>
    </g>
    <g id="shape25" transform="matrix(1.0, 0.0, 0.0, 1.0, -558.75, -430.25)">
      <path d="M560.25 441.25 L560.25 440.25 559.75 440.25 559.75 434.0 559.25 434.0 559.25 440.25 558.75 440.25 558.75 441.25 560.25 441.25 M656.75 440.25 L656.75 439.25 655.5 439.25 655.5 437.25 661.75 437.25 661.75 436.25 652.5 436.25 652.5 430.75 651.5 430.75 651.5 440.25 656.75 440.25 M660.25 440.25 L660.25 439.25 659.25 439.25 659.25 440.25 660.25 440.25 M664.0 440.25 L664.0 439.25 663.0 439.25 663.0 440.25 664.0 440.25 M671.5 435.0 L670.5 435.0 670.5 436.25 668.5 436.25 668.5 430.25 667.5 430.25 667.5 436.25 661.75 436.25 661.75 437.25 667.5 437.25 667.5 439.25 666.25 439.25 666.25 440.25 671.5 440.25 671.5 435.0" fill="#8d8d8d" fill-rule="evenodd" stroke="none"/>
    </g>
    <g id="shape26" transform="matrix(1.0, 0.0, 0.0, 1.0, -539.5, -372.0)">
      <path d="M576.25 420.75 L608.5 420.75 608.5 410.25 607.5 410.25 607.5 419.75 575.75 419.75 575.75 414.25 574.75 414.25 574.75 420.25 570.75 420.25 570.75 420.75 574.0 420.75 574.0 421.75 575.25 421.75 575.25 424.5 576.25 424.5 576.25 420.75 M559.75 432.0 L559.75 424.75 559.25 424.75 559.25 427.25 556.5 427.25 556.5 427.75 559.25 427.75 559.25 432.0 559.75 432.0 M554.4 393.15 L554.4 393.2 554.4 392.7 551.5 392.7 551.5 380.05 556.25 380.05 556.25 379.05 550.5 379.05 550.5 392.25 546.9 392.25 546.9 393.15 554.4 393.15 M559.25 388.2 L559.25 388.15 559.25 392.6 556.4 392.6 556.4 393.1 559.25 393.1 559.25 395.6 559.8 395.6 559.8 388.2 559.25 388.2 M574.0 399.75 L559.75 399.75 559.75 397.5 559.25 397.5 559.25 399.75 554.0 399.75 554.0 400.25 565.25 400.25 565.25 409.25 565.75 409.25 565.75 408.25 569.0 408.25 569.0 407.75 565.75 407.75 565.75 400.25 574.75 400.25 574.75 404.0 575.75 404.0 575.75 400.5 607.5 400.5 607.5 410.25 608.5 410.25 608.5 399.5 576.25 399.5 576.25 395.75 575.25 395.75 575.25 398.5 574.0 398.5 574.0 399.75 M554.5 427.75 L554.5 427.25 546.75 427.25 546.75 428.25 550.5 428.25 550.5 432.75 551.5 432.75 551.5 427.75 554.5 427.75 M576.25 426.5 L575.25 426.5 575.25 440.25 562.75 440.25 562.75 441.25 575.5 441.25 575.5 448.25 623.5 448.25 623.5 436.25 651.5 436.25 651.5 435.25 622.5 435.25 622.5 447.25 577.25 447.25 577.25 435.0 576.25 435.0 576.25 426.5 M662.75 380.25 L662.75 381.25 663.75 381.25 663.75 380.25 662.75 380.25 M659.25 380.25 L659.25 381.25 660.25 381.25 660.25 380.25 659.25 380.25 M651.5 380.25 L651.5 389.5 652.5 389.5 652.5 384.0 661.5 384.0 661.5 383.0 655.5 383.0 655.5 381.25 656.75 381.25 656.75 380.25 651.5 380.25 M562.75 379.0 L562.75 380.0 575.25 380.0 575.25 393.75 576.25 393.75 576.25 380.5 586.5 380.5 586.5 379.5 577.0 379.5 577.0 373.0 595.5 373.0 595.5 375.75 596.5 375.75 596.5 373.0 622.5 373.0 622.5 383.75 612.5 383.75 612.5 384.75 622.5 384.75 622.5 385.25 651.5 385.25 651.5 384.25 623.5 384.25 623.5 372.0 575.5 372.0 575.5 379.0 562.75 379.0 M558.75 379.0 L558.75 380.0 559.25 380.0 559.25 386.25 559.75 386.25 559.75 380.0 560.25 380.0 560.25 379.0 558.75 379.0 M539.5 404.75 L540.5 404.75 540.5 400.25 552.0 400.25 552.0 399.75 540.5 399.75 540.5 393.25 544.25 393.25 544.25 392.25 539.5 392.25 539.5 404.75 M539.5 408.75 L540.5 408.75 540.5 407.5 539.5 407.5 539.5 408.75 M539.5 412.75 L540.5 412.75 540.5 411.5 539.5 411.5 539.5 412.75 M539.5 428.25 L544.0 428.25 544.0 427.25 540.5 427.25 540.5 420.75 552.0 420.75 552.0 420.25 540.5 420.25 540.5 415.5 539.5 415.5 539.5 428.25 M550.5 441.25 L559.25 441.25 559.25 440.25 551.5 440.25 551.5 435.5 550.5 435.5 550.5 441.25" fill="#8d8d8d" fill-rule="evenodd" stroke="none"/>
    </g>
    <g id="shape27" transform="matrix(1.0, 0.0, 0.0, 1.0, -491.2, -337.5)">
      <path d="M496.5 446.2 L496.5 446.1 494.9 446.4 493.4 447.15 492.25 448.35 491.5 449.85 491.2 451.55 491.45 453.2 492.2 454.7 493.4 455.85 494.85 456.65 496.5 456.95 498.2 456.65 499.7 455.9 500.85 454.7 501.6 453.2 501.85 451.55 501.6 449.9 500.85 448.4 499.7 447.25 498.2 446.5 496.5 446.2 M530.75 363.0 L519.75 363.0 519.75 371.0 530.75 371.0 530.75 363.0 M684.25 337.5 L673.5 337.5 673.5 345.5 684.25 345.5 684.25 337.5 M549.25 454.75 L541.25 454.75 541.25 465.25 549.25 465.25 549.25 454.75 M559.75 422.75 L559.75 420.75 568.75 420.75 568.75 420.25 565.75 420.25 565.75 411.0 565.25 411.0 565.25 420.25 554.0 420.25 554.0 420.75 559.25 420.75 559.25 422.75 559.75 422.75 M587.75 380.5 L595.5 380.5 595.5 384.75 611.25 384.75 611.25 383.75 596.5 383.75 596.5 377.25 595.5 377.25 595.5 379.5 587.75 379.5 587.75 380.5 M574.75 414.25 L575.75 414.25 575.75 404.0 574.75 404.0 574.75 407.75 570.75 407.75 570.75 408.25 574.75 408.25 574.75 414.25" fill="#8d8d8d" fill-rule="evenodd" stroke="none"/>
    </g>
  </defs>
</svg>
